<svg xmlns="http://www.w3.org/2000/svg" xmlns:xlink="http://www.w3.org/1999/xlink" width="1920" zoomAndPan="magnify" viewBox="0 0 1440 809.999993" height="1080" preserveAspectRatio="xMidYMid meet" version="1.0"><defs><g/><clipPath id="8e53f5506d"><path d="M 452.648438 160.847656 L 529.105469 160.847656 L 529.105469 235.074219 L 452.648438 235.074219 Z M 452.648438 160.847656 " clip-rule="nonzero"/></clipPath><clipPath id="39c072e409"><path d="M 634.949219 160.847656 L 711.40625 160.847656 L 711.40625 235.074219 L 634.949219 235.074219 Z M 634.949219 160.847656 " clip-rule="nonzero"/></clipPath><clipPath id="ef5f1a4a63"><path d="M 816.628906 160.847656 L 893.085938 160.847656 L 893.085938 235.074219 L 816.628906 235.074219 Z M 816.628906 160.847656 " clip-rule="nonzero"/></clipPath><clipPath id="0f9c2a2df0"><path d="M 284.957031 311.5625 L 361.414062 311.5625 L 361.414062 385.792969 L 284.957031 385.792969 Z M 284.957031 311.5625 " clip-rule="nonzero"/></clipPath><clipPath id="a7669a723b"><path d="M 452.957031 311.5625 L 529.417969 311.5625 L 529.417969 385.792969 L 452.957031 385.792969 Z M 452.957031 311.5625 " clip-rule="nonzero"/></clipPath><clipPath id="e315475017"><path d="M 635.261719 311.5625 L 711.71875 311.5625 L 711.71875 385.792969 L 635.261719 385.792969 Z M 635.261719 311.5625 " clip-rule="nonzero"/></clipPath><clipPath id="9a0842469e"><path d="M 816.941406 311.5625 L 893.398438 311.5625 L 893.398438 385.792969 L 816.941406 385.792969 Z M 816.941406 311.5625 " clip-rule="nonzero"/></clipPath><clipPath id="aca053753c"><path d="M 452.957031 449.296875 L 529.417969 449.296875 L 529.417969 523.527344 L 452.957031 523.527344 Z M 452.957031 449.296875 " clip-rule="nonzero"/></clipPath><clipPath id="ed3f84a495"><path d="M 452.957031 587.035156 L 529.417969 587.035156 L 529.417969 661.261719 L 452.957031 661.261719 Z M 452.957031 587.035156 " clip-rule="nonzero"/></clipPath><clipPath id="6c7dbc4ad6"><path d="M 635.261719 449.296875 L 711.71875 449.296875 L 711.71875 523.527344 L 635.261719 523.527344 Z M 635.261719 449.296875 " clip-rule="nonzero"/></clipPath><clipPath id="7b5c758873"><path d="M 635.261719 587.035156 L 711.71875 587.035156 L 711.71875 661.261719 L 635.261719 661.261719 Z M 635.261719 587.035156 " clip-rule="nonzero"/></clipPath><clipPath id="676d4cf006"><path d="M 816.941406 449.296875 L 893.398438 449.296875 L 893.398438 523.527344 L 816.941406 523.527344 Z M 816.941406 449.296875 " clip-rule="nonzero"/></clipPath><clipPath id="75f75b45dc"><path d="M 816.941406 587.035156 L 893.398438 587.035156 L 893.398438 661.261719 L 816.941406 661.261719 Z M 816.941406 587.035156 " clip-rule="nonzero"/></clipPath><clipPath id="dd07701f67"><path d="M 284.957031 587.035156 L 361.414062 587.035156 L 361.414062 661.261719 L 284.957031 661.261719 Z M 284.957031 587.035156 " clip-rule="nonzero"/></clipPath><clipPath id="2d7e0b37af"><path d="M 284.957031 449.296875 L 361.414062 449.296875 L 361.414062 523.527344 L 284.957031 523.527344 Z M 284.957031 449.296875 " clip-rule="nonzero"/></clipPath><clipPath id="7c2b523d7e"><path d="M 1042.679688 273.195312 L 1429.816406 273.195312 L 1429.816406 606.65625 L 1042.679688 606.65625 Z M 1042.679688 273.195312 " clip-rule="nonzero"/></clipPath><clipPath id="778f8f39d0"><path d="M 1054.679688 273.195312 L 1417.992188 273.195312 C 1421.175781 273.195312 1424.226562 274.460938 1426.476562 276.710938 C 1428.730469 278.960938 1429.992188 282.011719 1429.992188 285.195312 L 1429.992188 594.636719 C 1429.992188 597.820312 1428.730469 600.871094 1426.476562 603.121094 C 1424.226562 605.371094 1421.175781 606.636719 1417.992188 606.636719 L 1054.679688 606.636719 C 1051.496094 606.636719 1048.445312 605.371094 1046.191406 603.121094 C 1043.941406 600.871094 1042.679688 597.820312 1042.679688 594.636719 L 1042.679688 285.195312 C 1042.679688 282.011719 1043.941406 278.960938 1046.191406 276.710938 C 1048.445312 274.460938 1051.496094 273.195312 1054.679688 273.195312 Z M 1054.679688 273.195312 " clip-rule="nonzero"/></clipPath><clipPath id="5d92dece93"><path d="M 1094.3125 382.449219 L 1144.429688 382.449219 L 1144.429688 432.566406 L 1094.3125 432.566406 Z M 1094.3125 382.449219 " clip-rule="nonzero"/></clipPath><clipPath id="6924dea13e"><path d="M 1096.421875 451.21875 L 1146.539062 451.21875 L 1146.539062 501.335938 L 1096.421875 501.335938 Z M 1096.421875 451.21875 " clip-rule="nonzero"/></clipPath><clipPath id="befb8cfc65"><path d="M 1096.421875 528.746094 L 1146.539062 528.746094 L 1146.539062 578.859375 L 1096.421875 578.859375 Z M 1096.421875 528.746094 " clip-rule="nonzero"/></clipPath></defs><path stroke-linecap="butt" transform="matrix(0.75, 0, 0, 0.75, 403.95949, 270.568542)" fill="none" stroke-linejoin="miter" d="M 0.00193013 3.50236 L 729.903009 3.50236 " stroke="#545454" stroke-width="7" stroke-opacity="1" stroke-miterlimit="4"/><path stroke-linecap="butt" transform="matrix(0, -0.75, 0.75, 0, 401.330084, 716.799488)" fill="none" stroke-linejoin="miter" d="M -0.00172442 3.502597 L 591.48268 3.502597 " stroke="#545454" stroke-width="7" stroke-opacity="1" stroke-miterlimit="4"/><g clip-path="url(#8e53f5506d)"><path fill="#38a3a5" d="M 452.648438 160.847656 L 529.195312 160.847656 L 529.195312 235.074219 L 452.648438 235.074219 Z M 452.648438 160.847656 " fill-opacity="1" fill-rule="nonzero"/></g><g clip-path="url(#39c072e409)"><path fill="#c45511" d="M 634.949219 160.847656 L 711.5 160.847656 L 711.5 235.074219 L 634.949219 235.074219 Z M 634.949219 160.847656 " fill-opacity="1" fill-rule="nonzero"/></g><g clip-path="url(#ef5f1a4a63)"><path fill="#737373" d="M 816.628906 160.847656 L 893.179688 160.847656 L 893.179688 235.074219 L 816.628906 235.074219 Z M 816.628906 160.847656 " fill-opacity="1" fill-rule="nonzero"/></g><g clip-path="url(#0f9c2a2df0)"><path fill="#38a3a5" d="M 284.957031 311.5625 L 361.503906 311.5625 L 361.503906 385.792969 L 284.957031 385.792969 Z M 284.957031 311.5625 " fill-opacity="1" fill-rule="nonzero"/></g><g clip-path="url(#a7669a723b)"><path fill="#38a3a5" d="M 452.957031 311.5625 L 529.507812 311.5625 L 529.507812 385.792969 L 452.957031 385.792969 Z M 452.957031 311.5625 " fill-opacity="1" fill-rule="nonzero"/></g><g clip-path="url(#e315475017)"><path fill="#38a3a5" d="M 635.261719 311.5625 L 711.808594 311.5625 L 711.808594 385.792969 L 635.261719 385.792969 Z M 635.261719 311.5625 " fill-opacity="1" fill-rule="nonzero"/></g><g clip-path="url(#9a0842469e)"><path fill="#38a3a5" d="M 816.941406 311.5625 L 893.488281 311.5625 L 893.488281 385.792969 L 816.941406 385.792969 Z M 816.941406 311.5625 " fill-opacity="1" fill-rule="nonzero"/></g><g clip-path="url(#aca053753c)"><path fill="#38a3a5" d="M 452.957031 449.296875 L 529.507812 449.296875 L 529.507812 523.527344 L 452.957031 523.527344 Z M 452.957031 449.296875 " fill-opacity="1" fill-rule="nonzero"/></g><g clip-path="url(#ed3f84a495)"><path fill="#38a3a5" d="M 452.957031 587.035156 L 529.507812 587.035156 L 529.507812 661.261719 L 452.957031 661.261719 Z M 452.957031 587.035156 " fill-opacity="1" fill-rule="nonzero"/></g><g clip-path="url(#6c7dbc4ad6)"><path fill="#c45511" d="M 635.261719 449.296875 L 711.808594 449.296875 L 711.808594 523.527344 L 635.261719 523.527344 Z M 635.261719 449.296875 " fill-opacity="1" fill-rule="nonzero"/></g><g clip-path="url(#7b5c758873)"><path fill="#c45511" d="M 635.261719 587.035156 L 711.808594 587.035156 L 711.808594 661.261719 L 635.261719 661.261719 Z M 635.261719 587.035156 " fill-opacity="1" fill-rule="nonzero"/></g><g clip-path="url(#676d4cf006)"><path fill="#c45511" d="M 816.941406 449.296875 L 893.488281 449.296875 L 893.488281 523.527344 L 816.941406 523.527344 Z M 816.941406 449.296875 " fill-opacity="1" fill-rule="nonzero"/></g><g clip-path="url(#75f75b45dc)"><path fill="#737373" d="M 816.941406 587.035156 L 893.488281 587.035156 L 893.488281 661.261719 L 816.941406 661.261719 Z M 816.941406 587.035156 " fill-opacity="1" fill-rule="nonzero"/></g><g clip-path="url(#dd07701f67)"><path fill="#737373" d="M 284.957031 587.035156 L 361.503906 587.035156 L 361.503906 661.261719 L 284.957031 661.261719 Z M 284.957031 587.035156 " fill-opacity="1" fill-rule="nonzero"/></g><g clip-path="url(#2d7e0b37af)"><path fill="#c45511" d="M 284.957031 449.296875 L 361.503906 449.296875 L 361.503906 523.527344 L 284.957031 523.527344 Z M 284.957031 449.296875 " fill-opacity="1" fill-rule="nonzero"/></g><g fill="#545454" fill-opacity="1"><g transform="translate(572.958553, 86.402176)"><g><path d="M 11.90625 -19.609375 L 14.328125 -19.609375 C 16.691406 -19.609375 18.4375 -20 19.5625 -20.78125 C 20.6875 -21.570312 21.25 -22.8125 21.25 -24.5 C 21.25 -26.175781 20.671875 -27.363281 19.515625 -28.0625 C 18.367188 -28.769531 16.59375 -29.125 14.1875 -29.125 L 11.90625 -29.125 Z M 11.90625 -13.53125 L 11.90625 0 L 4.4375 0 L 4.4375 -35.265625 L 14.71875 -35.265625 C 19.5 -35.265625 23.039062 -34.390625 25.34375 -32.640625 C 27.644531 -30.898438 28.796875 -28.253906 28.796875 -24.703125 C 28.796875 -22.617188 28.222656 -20.769531 27.078125 -19.15625 C 25.941406 -17.539062 24.328125 -16.273438 22.234375 -15.359375 C 27.535156 -7.429688 30.992188 -2.3125 32.609375 0 L 24.3125 0 L 15.890625 -13.53125 Z M 11.90625 -13.53125 "/></g></g></g><g fill="#545454" fill-opacity="1"><g transform="translate(605.561922, 86.402176)"><g><path d="M 20.984375 0 L 19.5625 -3.671875 L 19.359375 -3.671875 C 18.128906 -2.109375 16.859375 -1.023438 15.546875 -0.421875 C 14.234375 0.179688 12.523438 0.484375 10.421875 0.484375 C 7.828125 0.484375 5.785156 -0.253906 4.296875 -1.734375 C 2.816406 -3.210938 2.078125 -5.320312 2.078125 -8.0625 C 2.078125 -10.914062 3.078125 -13.019531 5.078125 -14.375 C 7.078125 -15.738281 10.09375 -16.492188 14.125 -16.640625 L 18.8125 -16.78125 L 18.8125 -17.96875 C 18.8125 -20.695312 17.410156 -22.0625 14.609375 -22.0625 C 12.460938 -22.0625 9.929688 -21.410156 7.015625 -20.109375 L 4.578125 -25.078125 C 7.679688 -26.703125 11.125 -27.515625 14.90625 -27.515625 C 18.519531 -27.515625 21.289062 -26.726562 23.21875 -25.15625 C 25.15625 -23.582031 26.125 -21.1875 26.125 -17.96875 L 26.125 0 Z M 18.8125 -12.5 L 15.96875 -12.390625 C 13.820312 -12.328125 12.226562 -11.941406 11.1875 -11.234375 C 10.144531 -10.523438 9.625 -9.445312 9.625 -8 C 9.625 -5.925781 10.8125 -4.890625 13.1875 -4.890625 C 14.894531 -4.890625 16.257812 -5.378906 17.28125 -6.359375 C 18.300781 -7.347656 18.8125 -8.65625 18.8125 -10.28125 Z M 18.8125 -12.5 "/></g></g></g><g fill="#545454" fill-opacity="1"><g transform="translate(635.392086, 86.402176)"><g><path d="M 22.671875 -8 C 22.671875 -5.238281 21.707031 -3.132812 19.78125 -1.6875 C 17.863281 -0.238281 14.992188 0.484375 11.171875 0.484375 C 9.203125 0.484375 7.523438 0.347656 6.140625 0.078125 C 4.765625 -0.179688 3.472656 -0.566406 2.265625 -1.078125 L 2.265625 -7.15625 C 3.628906 -6.519531 5.164062 -5.984375 6.875 -5.546875 C 8.59375 -5.109375 10.101562 -4.890625 11.40625 -4.890625 C 14.070312 -4.890625 15.40625 -5.660156 15.40625 -7.203125 C 15.40625 -7.785156 15.226562 -8.257812 14.875 -8.625 C 14.519531 -8.988281 13.910156 -9.394531 13.046875 -9.84375 C 12.179688 -10.300781 11.023438 -10.835938 9.578125 -11.453125 C 7.503906 -12.316406 5.976562 -13.117188 5 -13.859375 C 4.03125 -14.597656 3.320312 -15.445312 2.875 -16.40625 C 2.4375 -17.363281 2.21875 -18.539062 2.21875 -19.9375 C 2.21875 -22.332031 3.144531 -24.1875 5 -25.5 C 6.863281 -26.8125 9.5 -27.46875 12.90625 -27.46875 C 16.15625 -27.46875 19.3125 -26.757812 22.375 -25.34375 L 20.15625 -20.046875 C 18.8125 -20.617188 17.550781 -21.085938 16.375 -21.453125 C 15.195312 -21.828125 14 -22.015625 12.78125 -22.015625 C 10.613281 -22.015625 9.53125 -21.429688 9.53125 -20.265625 C 9.53125 -19.597656 9.878906 -19.023438 10.578125 -18.546875 C 11.273438 -18.066406 12.804688 -17.351562 15.171875 -16.40625 C 17.273438 -15.550781 18.816406 -14.753906 19.796875 -14.015625 C 20.773438 -13.273438 21.5 -12.421875 21.96875 -11.453125 C 22.4375 -10.492188 22.671875 -9.34375 22.671875 -8 Z M 22.671875 -8 "/></g></g></g><g fill="#545454" fill-opacity="1"><g transform="translate(659.941073, 86.402176)"><g><path d="M 15.21875 -5.375 C 16.5 -5.375 18.039062 -5.65625 19.84375 -6.21875 L 19.84375 -0.75 C 18.007812 0.0703125 15.757812 0.484375 13.09375 0.484375 C 10.15625 0.484375 8.015625 -0.257812 6.671875 -1.75 C 5.328125 -3.238281 4.65625 -5.46875 4.65625 -8.4375 L 4.65625 -21.4375 L 1.140625 -21.4375 L 1.140625 -24.546875 L 5.1875 -27.015625 L 7.3125 -32.703125 L 12.015625 -32.703125 L 12.015625 -26.96875 L 19.5625 -26.96875 L 19.5625 -21.4375 L 12.015625 -21.4375 L 12.015625 -8.4375 C 12.015625 -7.394531 12.304688 -6.625 12.890625 -6.125 C 13.472656 -5.625 14.25 -5.375 15.21875 -5.375 Z M 15.21875 -5.375 "/></g></g></g><g fill="#545454" fill-opacity="1"><g transform="translate(681.379245, 86.402176)"><g><path d="M 15.03125 -22.234375 C 13.46875 -22.234375 12.242188 -21.738281 11.359375 -20.75 C 10.472656 -19.757812 9.96875 -18.359375 9.84375 -16.546875 L 20.15625 -16.546875 C 20.125 -18.359375 19.648438 -19.757812 18.734375 -20.75 C 17.816406 -21.738281 16.582031 -22.234375 15.03125 -22.234375 Z M 16.0625 0.484375 C 11.71875 0.484375 8.320312 -0.710938 5.875 -3.109375 C 3.4375 -5.503906 2.21875 -8.894531 2.21875 -13.28125 C 2.21875 -17.800781 3.347656 -21.296875 5.609375 -23.765625 C 7.867188 -26.234375 10.988281 -27.46875 14.96875 -27.46875 C 18.78125 -27.46875 21.75 -26.378906 23.875 -24.203125 C 26 -22.035156 27.0625 -19.039062 27.0625 -15.21875 L 27.0625 -11.640625 L 9.671875 -11.640625 C 9.753906 -9.554688 10.375 -7.925781 11.53125 -6.75 C 12.6875 -5.570312 14.3125 -4.984375 16.40625 -4.984375 C 18.019531 -4.984375 19.550781 -5.148438 21 -5.484375 C 22.445312 -5.828125 23.960938 -6.367188 25.546875 -7.109375 L 25.546875 -1.421875 C 24.253906 -0.773438 22.875 -0.296875 21.40625 0.015625 C 19.945312 0.328125 18.164062 0.484375 16.0625 0.484375 Z M 16.0625 0.484375 "/></g></g></g><g fill="#545454" fill-opacity="1"><g transform="translate(710.558295, 86.402176)"><g><path d="M 18.90625 -27.46875 C 19.90625 -27.46875 20.734375 -27.394531 21.390625 -27.25 L 20.84375 -20.359375 C 20.238281 -20.515625 19.515625 -20.59375 18.671875 -20.59375 C 16.316406 -20.59375 14.484375 -19.988281 13.171875 -18.78125 C 11.867188 -17.582031 11.21875 -15.894531 11.21875 -13.71875 L 11.21875 0 L 3.859375 0 L 3.859375 -26.96875 L 9.421875 -26.96875 L 10.515625 -22.421875 L 10.875 -22.421875 C 11.707031 -23.941406 12.835938 -25.160156 14.265625 -26.078125 C 15.691406 -27.003906 17.238281 -27.46875 18.90625 -27.46875 Z M 18.90625 -27.46875 "/></g></g></g><g fill="#545454" fill-opacity="1"><g transform="translate(732.985169, 86.402176)"><g/></g></g><g fill="#545454" fill-opacity="1"><g transform="translate(745.814305, 86.402176)"><g><path d="M 20.40625 0 L 12.953125 0 L 12.953125 -20.40625 L 13.015625 -23.75 L 13.140625 -27.421875 C 11.898438 -26.179688 11.039062 -25.367188 10.5625 -24.984375 L 6.515625 -21.734375 L 2.921875 -26.21875 L 14.28125 -35.265625 L 20.40625 -35.265625 Z M 20.40625 0 "/></g></g></g><g fill="#545454" fill-opacity="1"><g transform="translate(12.344782, 512.589912)"><g><path d="M 11.90625 -19.609375 L 14.328125 -19.609375 C 16.691406 -19.609375 18.4375 -20 19.5625 -20.78125 C 20.6875 -21.570312 21.25 -22.8125 21.25 -24.5 C 21.25 -26.175781 20.671875 -27.363281 19.515625 -28.0625 C 18.367188 -28.769531 16.59375 -29.125 14.1875 -29.125 L 11.90625 -29.125 Z M 11.90625 -13.53125 L 11.90625 0 L 4.4375 0 L 4.4375 -35.265625 L 14.71875 -35.265625 C 19.5 -35.265625 23.039062 -34.390625 25.34375 -32.640625 C 27.644531 -30.898438 28.796875 -28.253906 28.796875 -24.703125 C 28.796875 -22.617188 28.222656 -20.769531 27.078125 -19.15625 C 25.941406 -17.539062 24.328125 -16.273438 22.234375 -15.359375 C 27.535156 -7.429688 30.992188 -2.3125 32.609375 0 L 24.3125 0 L 15.890625 -13.53125 Z M 11.90625 -13.53125 "/></g></g></g><g fill="#545454" fill-opacity="1"><g transform="translate(44.948151, 512.589912)"><g><path d="M 20.984375 0 L 19.5625 -3.671875 L 19.359375 -3.671875 C 18.128906 -2.109375 16.859375 -1.023438 15.546875 -0.421875 C 14.234375 0.179688 12.523438 0.484375 10.421875 0.484375 C 7.828125 0.484375 5.785156 -0.253906 4.296875 -1.734375 C 2.816406 -3.210938 2.078125 -5.320312 2.078125 -8.0625 C 2.078125 -10.914062 3.078125 -13.019531 5.078125 -14.375 C 7.078125 -15.738281 10.09375 -16.492188 14.125 -16.640625 L 18.8125 -16.78125 L 18.8125 -17.96875 C 18.8125 -20.695312 17.410156 -22.0625 14.609375 -22.0625 C 12.460938 -22.0625 9.929688 -21.410156 7.015625 -20.109375 L 4.578125 -25.078125 C 7.679688 -26.703125 11.125 -27.515625 14.90625 -27.515625 C 18.519531 -27.515625 21.289062 -26.726562 23.21875 -25.15625 C 25.15625 -23.582031 26.125 -21.1875 26.125 -17.96875 L 26.125 0 Z M 18.8125 -12.5 L 15.96875 -12.390625 C 13.820312 -12.328125 12.226562 -11.941406 11.1875 -11.234375 C 10.144531 -10.523438 9.625 -9.445312 9.625 -8 C 9.625 -5.925781 10.8125 -4.890625 13.1875 -4.890625 C 14.894531 -4.890625 16.257812 -5.378906 17.28125 -6.359375 C 18.300781 -7.347656 18.8125 -8.65625 18.8125 -10.28125 Z M 18.8125 -12.5 "/></g></g></g><g fill="#545454" fill-opacity="1"><g transform="translate(74.778315, 512.589912)"><g><path d="M 22.671875 -8 C 22.671875 -5.238281 21.707031 -3.132812 19.78125 -1.6875 C 17.863281 -0.238281 14.992188 0.484375 11.171875 0.484375 C 9.203125 0.484375 7.523438 0.347656 6.140625 0.078125 C 4.765625 -0.179688 3.472656 -0.566406 2.265625 -1.078125 L 2.265625 -7.15625 C 3.628906 -6.519531 5.164062 -5.984375 6.875 -5.546875 C 8.59375 -5.109375 10.101562 -4.890625 11.40625 -4.890625 C 14.070312 -4.890625 15.40625 -5.660156 15.40625 -7.203125 C 15.40625 -7.785156 15.226562 -8.257812 14.875 -8.625 C 14.519531 -8.988281 13.910156 -9.394531 13.046875 -9.84375 C 12.179688 -10.300781 11.023438 -10.835938 9.578125 -11.453125 C 7.503906 -12.316406 5.976562 -13.117188 5 -13.859375 C 4.03125 -14.597656 3.320312 -15.445312 2.875 -16.40625 C 2.4375 -17.363281 2.21875 -18.539062 2.21875 -19.9375 C 2.21875 -22.332031 3.144531 -24.1875 5 -25.5 C 6.863281 -26.8125 9.5 -27.46875 12.90625 -27.46875 C 16.15625 -27.46875 19.3125 -26.757812 22.375 -25.34375 L 20.15625 -20.046875 C 18.8125 -20.617188 17.550781 -21.085938 16.375 -21.453125 C 15.195312 -21.828125 14 -22.015625 12.78125 -22.015625 C 10.613281 -22.015625 9.53125 -21.429688 9.53125 -20.265625 C 9.53125 -19.597656 9.878906 -19.023438 10.578125 -18.546875 C 11.273438 -18.066406 12.804688 -17.351562 15.171875 -16.40625 C 17.273438 -15.550781 18.816406 -14.753906 19.796875 -14.015625 C 20.773438 -13.273438 21.5 -12.421875 21.96875 -11.453125 C 22.4375 -10.492188 22.671875 -9.34375 22.671875 -8 Z M 22.671875 -8 "/></g></g></g><g fill="#545454" fill-opacity="1"><g transform="translate(99.327302, 512.589912)"><g><path d="M 15.21875 -5.375 C 16.5 -5.375 18.039062 -5.65625 19.84375 -6.21875 L 19.84375 -0.75 C 18.007812 0.0703125 15.757812 0.484375 13.09375 0.484375 C 10.15625 0.484375 8.015625 -0.257812 6.671875 -1.75 C 5.328125 -3.238281 4.65625 -5.46875 4.65625 -8.4375 L 4.65625 -21.4375 L 1.140625 -21.4375 L 1.140625 -24.546875 L 5.1875 -27.015625 L 7.3125 -32.703125 L 12.015625 -32.703125 L 12.015625 -26.96875 L 19.5625 -26.96875 L 19.5625 -21.4375 L 12.015625 -21.4375 L 12.015625 -8.4375 C 12.015625 -7.394531 12.304688 -6.625 12.890625 -6.125 C 13.472656 -5.625 14.25 -5.375 15.21875 -5.375 Z M 15.21875 -5.375 "/></g></g></g><g fill="#545454" fill-opacity="1"><g transform="translate(120.765474, 512.589912)"><g><path d="M 15.03125 -22.234375 C 13.46875 -22.234375 12.242188 -21.738281 11.359375 -20.75 C 10.472656 -19.757812 9.96875 -18.359375 9.84375 -16.546875 L 20.15625 -16.546875 C 20.125 -18.359375 19.648438 -19.757812 18.734375 -20.75 C 17.816406 -21.738281 16.582031 -22.234375 15.03125 -22.234375 Z M 16.0625 0.484375 C 11.71875 0.484375 8.320312 -0.710938 5.875 -3.109375 C 3.4375 -5.503906 2.21875 -8.894531 2.21875 -13.28125 C 2.21875 -17.800781 3.347656 -21.296875 5.609375 -23.765625 C 7.867188 -26.234375 10.988281 -27.46875 14.96875 -27.46875 C 18.78125 -27.46875 21.75 -26.378906 23.875 -24.203125 C 26 -22.035156 27.0625 -19.039062 27.0625 -15.21875 L 27.0625 -11.640625 L 9.671875 -11.640625 C 9.753906 -9.554688 10.375 -7.925781 11.53125 -6.75 C 12.6875 -5.570312 14.3125 -4.984375 16.40625 -4.984375 C 18.019531 -4.984375 19.550781 -5.148438 21 -5.484375 C 22.445312 -5.828125 23.960938 -6.367188 25.546875 -7.109375 L 25.546875 -1.421875 C 24.253906 -0.773438 22.875 -0.296875 21.40625 0.015625 C 19.945312 0.328125 18.164062 0.484375 16.0625 0.484375 Z M 16.0625 0.484375 "/></g></g></g><g fill="#545454" fill-opacity="1"><g transform="translate(149.944524, 512.589912)"><g><path d="M 18.90625 -27.46875 C 19.90625 -27.46875 20.734375 -27.394531 21.390625 -27.25 L 20.84375 -20.359375 C 20.238281 -20.515625 19.515625 -20.59375 18.671875 -20.59375 C 16.316406 -20.59375 14.484375 -19.988281 13.171875 -18.78125 C 11.867188 -17.582031 11.21875 -15.894531 11.21875 -13.71875 L 11.21875 0 L 3.859375 0 L 3.859375 -26.96875 L 9.421875 -26.96875 L 10.515625 -22.421875 L 10.875 -22.421875 C 11.707031 -23.941406 12.835938 -25.160156 14.265625 -26.078125 C 15.691406 -27.003906 17.238281 -27.46875 18.90625 -27.46875 Z M 18.90625 -27.46875 "/></g></g></g><g fill="#545454" fill-opacity="1"><g transform="translate(172.371398, 512.589912)"><g/></g></g><g fill="#545454" fill-opacity="1"><g transform="translate(185.200534, 512.589912)"><g><path d="M 26.625 0 L 1.984375 0 L 1.984375 -5.1875 L 10.828125 -14.125 C 13.453125 -16.8125 15.164062 -18.671875 15.96875 -19.703125 C 16.769531 -20.742188 17.347656 -21.707031 17.703125 -22.59375 C 18.054688 -23.476562 18.234375 -24.394531 18.234375 -25.34375 C 18.234375 -26.757812 17.84375 -27.8125 17.0625 -28.5 C 16.28125 -29.195312 15.238281 -29.546875 13.9375 -29.546875 C 12.570312 -29.546875 11.242188 -29.226562 9.953125 -28.59375 C 8.671875 -27.96875 7.332031 -27.078125 5.9375 -25.921875 L 1.875 -30.71875 C 3.613281 -32.195312 5.050781 -33.242188 6.1875 -33.859375 C 7.332031 -34.472656 8.582031 -34.941406 9.9375 -35.265625 C 11.289062 -35.597656 12.800781 -35.765625 14.46875 -35.765625 C 16.675781 -35.765625 18.625 -35.363281 20.3125 -34.5625 C 22 -33.757812 23.304688 -32.632812 24.234375 -31.1875 C 25.171875 -29.738281 25.640625 -28.082031 25.640625 -26.21875 C 25.640625 -24.59375 25.351562 -23.066406 24.78125 -21.640625 C 24.207031 -20.222656 23.320312 -18.765625 22.125 -17.265625 C 20.925781 -15.773438 18.816406 -13.644531 15.796875 -10.875 L 11.265625 -6.609375 L 11.265625 -6.265625 L 26.625 -6.265625 Z M 26.625 0 "/></g></g></g><g clip-path="url(#7c2b523d7e)"><g clip-path="url(#778f8f39d0)"><path fill="#d9d9d9" d="M 1066.679688 270.195312 L 1075.679688 270.195312 L 1075.679688 276.195312 L 1066.679688 276.195312 Z M 1078.679688 270.195312 L 1087.679688 270.195312 L 1087.679688 276.195312 L 1078.679688 276.195312 Z M 1090.679688 270.195312 L 1099.679688 270.195312 L 1099.679688 276.195312 L 1090.679688 276.195312 Z M 1102.679688 270.195312 L 1111.679688 270.195312 L 1111.679688 276.195312 L 1102.679688 276.195312 Z M 1114.679688 270.195312 L 1123.679688 270.195312 L 1123.679688 276.195312 L 1114.679688 276.195312 Z M 1126.679688 270.195312 L 1135.679688 270.195312 L 1135.679688 276.195312 L 1126.679688 276.195312 Z M 1138.679688 270.195312 L 1147.679688 270.195312 L 1147.679688 276.195312 L 1138.679688 276.195312 Z M 1150.679688 270.195312 L 1159.679688 270.195312 L 1159.679688 276.195312 L 1150.679688 276.195312 Z M 1162.679688 270.195312 L 1171.679688 270.195312 L 1171.679688 276.195312 L 1162.679688 276.195312 Z M 1174.679688 270.195312 L 1183.679688 270.195312 L 1183.679688 276.195312 L 1174.679688 276.195312 Z M 1186.679688 270.195312 L 1195.679688 270.195312 L 1195.679688 276.195312 L 1186.679688 276.195312 Z M 1198.679688 270.195312 L 1207.679688 270.195312 L 1207.679688 276.195312 L 1198.679688 276.195312 Z M 1210.679688 270.195312 L 1219.679688 270.195312 L 1219.679688 276.195312 L 1210.679688 276.195312 Z M 1222.679688 270.195312 L 1231.679688 270.195312 L 1231.679688 276.195312 L 1222.679688 276.195312 Z M 1234.679688 270.195312 L 1243.679688 270.195312 L 1243.679688 276.195312 L 1234.679688 276.195312 Z M 1246.679688 270.195312 L 1255.679688 270.195312 L 1255.679688 276.195312 L 1246.679688 276.195312 Z M 1258.679688 270.195312 L 1267.679688 270.195312 L 1267.679688 276.195312 L 1258.679688 276.195312 Z M 1270.679688 270.195312 L 1279.679688 270.195312 L 1279.679688 276.195312 L 1270.679688 276.195312 Z M 1282.679688 270.195312 L 1291.679688 270.195312 L 1291.679688 276.195312 L 1282.679688 276.195312 Z M 1294.679688 270.195312 L 1303.679688 270.195312 L 1303.679688 276.195312 L 1294.679688 276.195312 Z M 1306.679688 270.195312 L 1315.679688 270.195312 L 1315.679688 276.195312 L 1306.679688 276.195312 Z M 1318.679688 270.195312 L 1327.679688 270.195312 L 1327.679688 276.195312 L 1318.679688 276.195312 Z M 1330.679688 270.195312 L 1339.679688 270.195312 L 1339.679688 276.195312 L 1330.679688 276.195312 Z M 1342.679688 270.195312 L 1351.679688 270.195312 L 1351.679688 276.195312 L 1342.679688 276.195312 Z M 1354.679688 270.195312 L 1363.679688 270.195312 L 1363.679688 276.195312 L 1354.679688 276.195312 Z M 1366.679688 270.195312 L 1375.679688 270.195312 L 1375.679688 276.195312 L 1366.679688 276.195312 Z M 1378.679688 270.195312 L 1387.679688 270.195312 L 1387.679688 276.195312 L 1378.679688 276.195312 Z M 1390.679688 270.195312 L 1399.679688 270.195312 L 1399.679688 276.195312 L 1390.679688 276.195312 Z M 1402.679688 270.195312 L 1411.679688 270.195312 L 1411.679688 276.195312 L 1402.679688 276.195312 Z M 1414.679688 270.195312 L 1417.992188 270.195312 C 1420.421875 270.195312 1422.714844 270.753906 1424.871094 271.867188 L 1422.121094 277.199219 C 1420.824219 276.53125 1419.449219 276.195312 1417.992188 276.195312 L 1414.679688 276.195312 Z M 1427.972656 273.996094 C 1428.1875 274.1875 1428.394531 274.386719 1428.601562 274.589844 C 1431.167969 277.160156 1432.613281 280.253906 1432.933594 283.875 L 1426.957031 284.402344 C 1426.765625 282.230469 1425.898438 280.375 1424.355469 278.832031 C 1424.234375 278.710938 1424.109375 278.589844 1423.980469 278.476562 Z M 1432.992188 287.152344 L 1432.992188 296.152344 L 1426.992188 296.152344 L 1426.992188 287.152344 Z M 1432.992188 299.152344 L 1432.992188 308.152344 L 1426.992188 308.152344 L 1426.992188 299.152344 Z M 1432.992188 311.152344 L 1432.992188 320.152344 L 1426.992188 320.152344 L 1426.992188 311.152344 Z M 1432.992188 323.152344 L 1432.992188 332.152344 L 1426.992188 332.152344 L 1426.992188 323.152344 Z M 1432.992188 335.152344 L 1432.992188 344.152344 L 1426.992188 344.152344 L 1426.992188 335.152344 Z M 1432.992188 347.152344 L 1432.992188 356.152344 L 1426.992188 356.152344 L 1426.992188 347.152344 Z M 1432.992188 359.152344 L 1432.992188 368.152344 L 1426.992188 368.152344 L 1426.992188 359.152344 Z M 1432.992188 371.152344 L 1432.992188 380.152344 L 1426.992188 380.152344 L 1426.992188 371.152344 Z M 1432.992188 383.152344 L 1432.992188 392.152344 L 1426.992188 392.152344 L 1426.992188 383.152344 Z M 1432.992188 395.152344 L 1432.992188 404.152344 L 1426.992188 404.152344 L 1426.992188 395.152344 Z M 1432.992188 407.152344 L 1432.992188 416.152344 L 1426.992188 416.152344 L 1426.992188 407.152344 Z M 1432.992188 419.152344 L 1432.992188 428.152344 L 1426.992188 428.152344 L 1426.992188 419.152344 Z M 1432.992188 431.152344 L 1432.992188 440.152344 L 1426.992188 440.152344 L 1426.992188 431.152344 Z M 1432.992188 443.152344 L 1432.992188 452.152344 L 1426.992188 452.152344 L 1426.992188 443.152344 Z M 1432.992188 455.152344 L 1432.992188 464.152344 L 1426.992188 464.152344 L 1426.992188 455.152344 Z M 1432.992188 467.152344 L 1432.992188 476.152344 L 1426.992188 476.152344 L 1426.992188 467.152344 Z M 1432.992188 479.152344 L 1432.992188 488.152344 L 1426.992188 488.152344 L 1426.992188 479.152344 Z M 1432.992188 491.152344 L 1432.992188 500.152344 L 1426.992188 500.152344 L 1426.992188 491.152344 Z M 1432.992188 503.152344 L 1432.992188 512.152344 L 1426.992188 512.152344 L 1426.992188 503.152344 Z M 1432.992188 515.152344 L 1432.992188 524.152344 L 1426.992188 524.152344 L 1426.992188 515.152344 Z M 1432.992188 527.152344 L 1432.992188 536.152344 L 1426.992188 536.152344 L 1426.992188 527.152344 Z M 1432.992188 539.152344 L 1432.992188 548.152344 L 1426.992188 548.152344 L 1426.992188 539.152344 Z M 1432.992188 551.152344 L 1432.992188 560.152344 L 1426.992188 560.152344 L 1426.992188 551.152344 Z M 1432.992188 563.152344 L 1432.992188 572.152344 L 1426.992188 572.152344 L 1426.992188 563.152344 Z M 1432.992188 575.152344 L 1432.992188 584.152344 L 1426.992188 584.152344 L 1426.992188 575.152344 Z M 1432.992188 587.152344 L 1432.992188 594.636719 C 1432.992188 595.277344 1432.953125 595.917969 1432.871094 596.550781 L 1426.917969 595.785156 C 1426.96875 595.402344 1426.992188 595.019531 1426.992188 594.636719 L 1426.992188 587.152344 Z M 1431.929688 600.183594 C 1431.167969 602.097656 1430.058594 603.785156 1428.597656 605.242188 C 1427.355469 606.488281 1425.933594 607.480469 1424.339844 608.226562 L 1421.800781 602.789062 C 1422.757812 602.34375 1423.609375 601.746094 1424.355469 601 C 1425.230469 600.125 1425.898438 599.113281 1426.355469 597.964844 Z M 1420.773438 609.375 C 1419.855469 609.550781 1418.929688 609.636719 1417.992188 609.636719 L 1411.207031 609.636719 L 1411.207031 603.636719 L 1417.992188 603.636719 C 1418.554688 603.636719 1419.109375 603.582031 1419.660156 603.480469 Z M 1408.207031 609.636719 L 1399.207031 609.636719 L 1399.207031 603.636719 L 1408.207031 603.636719 Z M 1396.207031 609.636719 L 1387.207031 609.636719 L 1387.207031 603.636719 L 1396.207031 603.636719 Z M 1384.207031 609.636719 L 1375.207031 609.636719 L 1375.207031 603.636719 L 1384.207031 603.636719 Z M 1372.207031 609.636719 L 1363.207031 609.636719 L 1363.207031 603.636719 L 1372.207031 603.636719 Z M 1360.207031 609.636719 L 1351.207031 609.636719 L 1351.207031 603.636719 L 1360.207031 603.636719 Z M 1348.207031 609.636719 L 1339.207031 609.636719 L 1339.207031 603.636719 L 1348.207031 603.636719 Z M 1336.207031 609.636719 L 1327.207031 609.636719 L 1327.207031 603.636719 L 1336.207031 603.636719 Z M 1324.207031 609.636719 L 1315.207031 609.636719 L 1315.207031 603.636719 L 1324.207031 603.636719 Z M 1312.207031 609.636719 L 1303.207031 609.636719 L 1303.207031 603.636719 L 1312.207031 603.636719 Z M 1300.207031 609.636719 L 1291.207031 609.636719 L 1291.207031 603.636719 L 1300.207031 603.636719 Z M 1288.207031 609.636719 L 1279.207031 609.636719 L 1279.207031 603.636719 L 1288.207031 603.636719 Z M 1276.207031 609.636719 L 1267.207031 609.636719 L 1267.207031 603.636719 L 1276.207031 603.636719 Z M 1264.207031 609.636719 L 1255.207031 609.636719 L 1255.207031 603.636719 L 1264.207031 603.636719 Z M 1252.207031 609.636719 L 1243.207031 609.636719 L 1243.207031 603.636719 L 1252.207031 603.636719 Z M 1240.207031 609.636719 L 1231.207031 609.636719 L 1231.207031 603.636719 L 1240.207031 603.636719 Z M 1228.207031 609.636719 L 1219.207031 609.636719 L 1219.207031 603.636719 L 1228.207031 603.636719 Z M 1216.207031 609.636719 L 1207.207031 609.636719 L 1207.207031 603.636719 L 1216.207031 603.636719 Z M 1204.207031 609.636719 L 1195.207031 609.636719 L 1195.207031 603.636719 L 1204.207031 603.636719 Z M 1192.207031 609.636719 L 1183.207031 609.636719 L 1183.207031 603.636719 L 1192.207031 603.636719 Z M 1180.207031 609.636719 L 1171.207031 609.636719 L 1171.207031 603.636719 L 1180.207031 603.636719 Z M 1168.207031 609.636719 L 1159.207031 609.636719 L 1159.207031 603.636719 L 1168.207031 603.636719 Z M 1156.207031 609.636719 L 1147.207031 609.636719 L 1147.207031 603.636719 L 1156.207031 603.636719 Z M 1144.207031 609.636719 L 1135.207031 609.636719 L 1135.207031 603.636719 L 1144.207031 603.636719 Z M 1132.207031 609.636719 L 1123.207031 609.636719 L 1123.207031 603.636719 L 1132.207031 603.636719 Z M 1120.207031 609.636719 L 1111.207031 609.636719 L 1111.207031 603.636719 L 1120.207031 603.636719 Z M 1108.207031 609.636719 L 1099.207031 609.636719 L 1099.207031 603.636719 L 1108.207031 603.636719 Z M 1096.207031 609.636719 L 1087.207031 609.636719 L 1087.207031 603.636719 L 1096.207031 603.636719 Z M 1084.207031 609.636719 L 1075.207031 609.636719 L 1075.207031 603.636719 L 1084.207031 603.636719 Z M 1072.207031 609.636719 L 1063.207031 609.636719 L 1063.207031 603.636719 L 1072.207031 603.636719 Z M 1060.207031 609.636719 L 1054.679688 609.636719 C 1053.207031 609.636719 1051.769531 609.425781 1050.363281 609 L 1052.089844 603.253906 C 1052.933594 603.507812 1053.796875 603.636719 1054.679688 603.636719 L 1060.207031 603.636719 Z M 1046.941406 607.484375 C 1045.890625 606.855469 1044.9375 606.105469 1044.070312 605.242188 C 1042.222656 603.394531 1040.945312 601.210938 1040.238281 598.691406 L 1046.011719 597.070312 C 1046.4375 598.578125 1047.203125 599.890625 1048.316406 601 C 1048.832031 601.519531 1049.40625 601.96875 1050.035156 602.34375 Z M 1039.683594 594.960938 C 1039.679688 594.851562 1039.679688 594.746094 1039.679688 594.636719 L 1039.679688 585.890625 L 1045.679688 585.890625 L 1045.679688 594.636719 C 1045.679688 594.703125 1045.679688 594.765625 1045.679688 594.832031 Z M 1039.679688 582.890625 L 1039.679688 573.890625 L 1045.679688 573.890625 L 1045.679688 582.890625 Z M 1039.679688 570.890625 L 1039.679688 561.890625 L 1045.679688 561.890625 L 1045.679688 570.890625 Z M 1039.679688 558.890625 L 1039.679688 549.890625 L 1045.679688 549.890625 L 1045.679688 558.890625 Z M 1039.679688 546.890625 L 1039.679688 537.890625 L 1045.679688 537.890625 L 1045.679688 546.890625 Z M 1039.679688 534.890625 L 1039.679688 525.890625 L 1045.679688 525.890625 L 1045.679688 534.890625 Z M 1039.679688 522.890625 L 1039.679688 513.890625 L 1045.679688 513.890625 L 1045.679688 522.890625 Z M 1039.679688 510.890625 L 1039.679688 501.890625 L 1045.679688 501.890625 L 1045.679688 510.890625 Z M 1039.679688 498.890625 L 1039.679688 489.890625 L 1045.679688 489.890625 L 1045.679688 498.890625 Z M 1039.679688 486.890625 L 1039.679688 477.890625 L 1045.679688 477.890625 L 1045.679688 486.890625 Z M 1039.679688 474.890625 L 1039.679688 465.890625 L 1045.679688 465.890625 L 1045.679688 474.890625 Z M 1039.679688 462.890625 L 1039.679688 453.890625 L 1045.679688 453.890625 L 1045.679688 462.890625 Z M 1039.679688 450.890625 L 1039.679688 441.890625 L 1045.679688 441.890625 L 1045.679688 450.890625 Z M 1039.679688 438.890625 L 1039.679688 429.890625 L 1045.679688 429.890625 L 1045.679688 438.890625 Z M 1039.679688 426.890625 L 1039.679688 417.890625 L 1045.679688 417.890625 L 1045.679688 426.890625 Z M 1039.679688 414.890625 L 1039.679688 405.890625 L 1045.679688 405.890625 L 1045.679688 414.890625 Z M 1039.679688 402.890625 L 1039.679688 393.890625 L 1045.679688 393.890625 L 1045.679688 402.890625 Z M 1039.679688 390.890625 L 1039.679688 381.890625 L 1045.679688 381.890625 L 1045.679688 390.890625 Z M 1039.679688 378.890625 L 1039.679688 369.890625 L 1045.679688 369.890625 L 1045.679688 378.890625 Z M 1039.679688 366.890625 L 1039.679688 357.890625 L 1045.679688 357.890625 L 1045.679688 366.890625 Z M 1039.679688 354.890625 L 1039.679688 345.890625 L 1045.679688 345.890625 L 1045.679688 354.890625 Z M 1039.679688 342.890625 L 1039.679688 333.890625 L 1045.679688 333.890625 L 1045.679688 342.890625 Z M 1039.679688 330.890625 L 1039.679688 321.890625 L 1045.679688 321.890625 L 1045.679688 330.890625 Z M 1039.679688 318.890625 L 1039.679688 309.890625 L 1045.679688 309.890625 L 1045.679688 318.890625 Z M 1039.679688 306.890625 L 1039.679688 297.890625 L 1045.679688 297.890625 L 1045.679688 306.890625 Z M 1039.679688 294.890625 L 1039.679688 285.890625 L 1045.679688 285.890625 L 1045.679688 294.890625 Z M 1039.960938 282.300781 C 1040.546875 279.3125 1041.917969 276.742188 1044.070312 274.589844 C 1044.652344 274.007812 1045.273438 273.480469 1045.941406 273.003906 L 1049.4375 277.878906 C 1049.035156 278.167969 1048.664062 278.484375 1048.316406 278.832031 C 1047.023438 280.125 1046.199219 281.667969 1045.847656 283.457031 Z M 1049.238281 271.21875 C 1050.988281 270.535156 1052.800781 270.195312 1054.679688 270.195312 L 1063.679688 270.195312 L 1063.679688 276.195312 L 1054.679688 276.195312 C 1053.550781 276.195312 1052.464844 276.398438 1051.414062 276.808594 Z M 1049.238281 271.21875 " fill-opacity="1" fill-rule="nonzero"/></g></g><g clip-path="url(#5d92dece93)"><path fill="#38a3a5" d="M 1094.3125 382.449219 L 1144.429688 382.449219 L 1144.429688 432.566406 L 1094.3125 432.566406 Z M 1094.3125 382.449219 " fill-opacity="1" fill-rule="nonzero"/></g><g clip-path="url(#6924dea13e)"><path fill="#c45511" d="M 1096.421875 451.21875 L 1146.539062 451.21875 L 1146.539062 501.335938 L 1096.421875 501.335938 Z M 1096.421875 451.21875 " fill-opacity="1" fill-rule="nonzero"/></g><g clip-path="url(#befb8cfc65)"><path fill="#737373" d="M 1096.421875 528.746094 L 1146.539062 528.746094 L 1146.539062 578.859375 L 1096.421875 578.859375 Z M 1096.421875 528.746094 " fill-opacity="1" fill-rule="nonzero"/></g><g fill="#545454" fill-opacity="1"><g transform="translate(1164.235388, 329.630721)"><g><path d="M 3.28125 0 L 3.28125 -26.09375 L 8.8125 -26.09375 L 8.8125 -4.5625 L 19.390625 -4.5625 L 19.390625 0 Z M 3.28125 0 "/></g></g><g transform="translate(1184.880499, 329.630721)"><g><path d="M 11.125 -16.453125 C 9.96875 -16.453125 9.0625 -16.085938 8.40625 -15.359375 C 7.75 -14.628906 7.375 -13.585938 7.28125 -12.234375 L 14.921875 -12.234375 C 14.898438 -13.585938 14.546875 -14.628906 13.859375 -15.359375 C 13.179688 -16.085938 12.269531 -16.453125 11.125 -16.453125 Z M 11.890625 0.359375 C 8.671875 0.359375 6.15625 -0.523438 4.34375 -2.296875 C 2.539062 -4.078125 1.640625 -6.585938 1.640625 -9.828125 C 1.640625 -13.171875 2.472656 -15.753906 4.140625 -17.578125 C 5.816406 -19.410156 8.128906 -20.328125 11.078125 -20.328125 C 13.898438 -20.328125 16.09375 -19.519531 17.65625 -17.90625 C 19.226562 -16.300781 20.015625 -14.085938 20.015625 -11.265625 L 20.015625 -8.625 L 7.15625 -8.625 C 7.21875 -7.070312 7.675781 -5.859375 8.53125 -4.984375 C 9.382812 -4.117188 10.585938 -3.6875 12.140625 -3.6875 C 13.335938 -3.6875 14.472656 -3.8125 15.546875 -4.0625 C 16.617188 -4.3125 17.734375 -4.710938 18.890625 -5.265625 L 18.890625 -1.046875 C 17.941406 -0.578125 16.925781 -0.226562 15.84375 0 C 14.757812 0.238281 13.441406 0.359375 11.890625 0.359375 Z M 11.890625 0.359375 "/></g></g><g transform="translate(1206.471325, 329.630721)"><g><path d="M 0 -19.953125 L 5.953125 -19.953125 L 9.71875 -8.71875 C 10.039062 -7.75 10.265625 -6.597656 10.390625 -5.265625 L 10.5 -5.265625 C 10.625 -6.492188 10.878906 -7.644531 11.265625 -8.71875 L 14.953125 -19.953125 L 20.796875 -19.953125 L 12.34375 2.546875 C 11.570312 4.628906 10.46875 6.1875 9.03125 7.21875 C 7.601562 8.257812 5.929688 8.78125 4.015625 8.78125 C 3.078125 8.78125 2.15625 8.675781 1.25 8.46875 L 1.25 4.15625 C 1.90625 4.3125 2.617188 4.390625 3.390625 4.390625 C 4.359375 4.390625 5.203125 4.09375 5.921875 3.5 C 6.640625 2.914062 7.203125 2.03125 7.609375 0.84375 L 7.921875 -0.140625 Z M 0 -19.953125 "/></g></g><g transform="translate(1227.259186, 329.630721)"><g><path d="M 11.125 -16.453125 C 9.96875 -16.453125 9.0625 -16.085938 8.40625 -15.359375 C 7.75 -14.628906 7.375 -13.585938 7.28125 -12.234375 L 14.921875 -12.234375 C 14.898438 -13.585938 14.546875 -14.628906 13.859375 -15.359375 C 13.179688 -16.085938 12.269531 -16.453125 11.125 -16.453125 Z M 11.890625 0.359375 C 8.671875 0.359375 6.15625 -0.523438 4.34375 -2.296875 C 2.539062 -4.078125 1.640625 -6.585938 1.640625 -9.828125 C 1.640625 -13.171875 2.472656 -15.753906 4.140625 -17.578125 C 5.816406 -19.410156 8.128906 -20.328125 11.078125 -20.328125 C 13.898438 -20.328125 16.09375 -19.519531 17.65625 -17.90625 C 19.226562 -16.300781 20.015625 -14.085938 20.015625 -11.265625 L 20.015625 -8.625 L 7.15625 -8.625 C 7.21875 -7.070312 7.675781 -5.859375 8.53125 -4.984375 C 9.382812 -4.117188 10.585938 -3.6875 12.140625 -3.6875 C 13.335938 -3.6875 14.472656 -3.8125 15.546875 -4.0625 C 16.617188 -4.3125 17.734375 -4.710938 18.890625 -5.265625 L 18.890625 -1.046875 C 17.941406 -0.578125 16.925781 -0.226562 15.84375 0 C 14.757812 0.238281 13.441406 0.359375 11.890625 0.359375 Z M 11.890625 0.359375 "/></g></g><g transform="translate(1248.850011, 329.630721)"><g><path d="M 21.265625 0 L 15.828125 0 L 15.828125 -11.65625 C 15.828125 -13.09375 15.570312 -14.171875 15.0625 -14.890625 C 14.550781 -15.609375 13.734375 -15.96875 12.609375 -15.96875 C 11.085938 -15.96875 9.988281 -15.457031 9.3125 -14.4375 C 8.632812 -13.425781 8.296875 -11.742188 8.296875 -9.390625 L 8.296875 0 L 2.859375 0 L 2.859375 -19.953125 L 7.015625 -19.953125 L 7.75 -17.40625 L 8.046875 -17.40625 C 8.648438 -18.363281 9.484375 -19.085938 10.546875 -19.578125 C 11.617188 -20.078125 12.832031 -20.328125 14.1875 -20.328125 C 16.507812 -20.328125 18.269531 -19.695312 19.46875 -18.4375 C 20.664062 -17.1875 21.265625 -15.378906 21.265625 -13.015625 Z M 21.265625 0 "/></g></g><g transform="translate(1272.867574, 329.630721)"><g><path d="M 9.171875 0.359375 C 6.828125 0.359375 4.984375 -0.550781 3.640625 -2.375 C 2.304688 -4.195312 1.640625 -6.71875 1.640625 -9.9375 C 1.640625 -13.207031 2.320312 -15.753906 3.6875 -17.578125 C 5.050781 -19.410156 6.925781 -20.328125 9.3125 -20.328125 C 11.820312 -20.328125 13.738281 -19.351562 15.0625 -17.40625 L 15.234375 -17.40625 C 14.960938 -18.882812 14.828125 -20.207031 14.828125 -21.375 L 14.828125 -27.765625 L 20.296875 -27.765625 L 20.296875 0 L 16.109375 0 L 15.0625 -2.59375 L 14.828125 -2.59375 C 13.585938 -0.625 11.703125 0.359375 9.171875 0.359375 Z M 11.078125 -3.984375 C 12.472656 -3.984375 13.492188 -4.382812 14.140625 -5.1875 C 14.785156 -6 15.140625 -7.375 15.203125 -9.3125 L 15.203125 -9.90625 C 15.203125 -12.039062 14.867188 -13.570312 14.203125 -14.5 C 13.546875 -15.4375 12.476562 -15.90625 11 -15.90625 C 9.78125 -15.90625 8.832031 -15.390625 8.15625 -14.359375 C 7.488281 -13.328125 7.15625 -11.832031 7.15625 -9.875 C 7.15625 -7.90625 7.492188 -6.429688 8.171875 -5.453125 C 8.847656 -4.472656 9.816406 -3.984375 11.078125 -3.984375 Z M 11.078125 -3.984375 "/></g></g><g transform="translate(1295.992954, 329.630721)"><g><path d="M 15.53125 0 L 14.46875 -2.71875 L 14.328125 -2.71875 C 13.410156 -1.5625 12.46875 -0.757812 11.5 -0.3125 C 10.53125 0.132812 9.265625 0.359375 7.703125 0.359375 C 5.796875 0.359375 4.289062 -0.1875 3.1875 -1.28125 C 2.082031 -2.375 1.53125 -3.929688 1.53125 -5.953125 C 1.53125 -8.078125 2.269531 -9.640625 3.75 -10.640625 C 5.238281 -11.648438 7.472656 -12.207031 10.453125 -12.3125 L 13.921875 -12.421875 L 13.921875 -13.296875 C 13.921875 -15.316406 12.882812 -16.328125 10.8125 -16.328125 C 9.21875 -16.328125 7.34375 -15.847656 5.1875 -14.890625 L 3.390625 -18.5625 C 5.679688 -19.757812 8.226562 -20.359375 11.03125 -20.359375 C 13.707031 -20.359375 15.757812 -19.773438 17.1875 -18.609375 C 18.613281 -17.441406 19.328125 -15.671875 19.328125 -13.296875 L 19.328125 0 Z M 13.921875 -9.25 L 11.8125 -9.171875 C 10.226562 -9.117188 9.050781 -8.832031 8.28125 -8.3125 C 7.507812 -7.789062 7.125 -6.992188 7.125 -5.921875 C 7.125 -4.390625 8.003906 -3.625 9.765625 -3.625 C 11.023438 -3.625 12.03125 -3.984375 12.78125 -4.703125 C 13.539062 -5.429688 13.921875 -6.398438 13.921875 -7.609375 Z M 13.921875 -9.25 "/></g></g></g><g fill="#545454" fill-opacity="1"><g transform="translate(1178.617339, 416.845631)"><g><path d="M 19.96875 0 L 17.078125 0 L 5.203125 -18.25 L 5.078125 -18.25 C 5.242188 -16.101562 5.328125 -14.140625 5.328125 -12.359375 L 5.328125 0 L 2.984375 0 L 2.984375 -21.734375 L 5.84375 -21.734375 L 17.6875 -3.5625 L 17.8125 -3.5625 C 17.789062 -3.832031 17.742188 -4.691406 17.671875 -6.140625 C 17.609375 -7.597656 17.585938 -8.640625 17.609375 -9.265625 L 17.609375 -21.734375 L 19.96875 -21.734375 Z M 19.96875 0 "/></g></g></g><g fill="#545454" fill-opacity="1"><g transform="translate(1201.567209, 416.845631)"><g><path d="M 5.078125 0 L 2.609375 0 L 2.609375 -16.296875 L 5.078125 -16.296875 Z M 2.40625 -20.71875 C 2.40625 -21.28125 2.539062 -21.691406 2.8125 -21.953125 C 3.09375 -22.210938 3.441406 -22.34375 3.859375 -22.34375 C 4.253906 -22.34375 4.597656 -22.207031 4.890625 -21.9375 C 5.179688 -21.675781 5.328125 -21.269531 5.328125 -20.71875 C 5.328125 -20.15625 5.179688 -19.738281 4.890625 -19.46875 C 4.597656 -19.195312 4.253906 -19.0625 3.859375 -19.0625 C 3.441406 -19.0625 3.09375 -19.195312 2.8125 -19.46875 C 2.539062 -19.738281 2.40625 -20.15625 2.40625 -20.71875 Z M 2.40625 -20.71875 "/></g></g></g><g fill="#545454" fill-opacity="1"><g transform="translate(1209.266713, 416.845631)"><g><path d="M 9.5 0.296875 C 7.09375 0.296875 5.191406 -0.4375 3.796875 -1.90625 C 2.398438 -3.375 1.703125 -5.410156 1.703125 -8.015625 C 1.703125 -10.640625 2.347656 -12.722656 3.640625 -14.265625 C 4.941406 -15.816406 6.679688 -16.59375 8.859375 -16.59375 C 10.898438 -16.59375 12.515625 -15.921875 13.703125 -14.578125 C 14.898438 -13.234375 15.5 -11.460938 15.5 -9.265625 L 15.5 -7.703125 L 4.265625 -7.703125 C 4.316406 -5.785156 4.800781 -4.332031 5.71875 -3.34375 C 6.632812 -2.351562 7.925781 -1.859375 9.59375 -1.859375 C 11.34375 -1.859375 13.078125 -2.222656 14.796875 -2.953125 L 14.796875 -0.765625 C 13.921875 -0.378906 13.09375 -0.109375 12.3125 0.046875 C 11.539062 0.210938 10.601562 0.296875 9.5 0.296875 Z M 8.828125 -14.53125 C 7.523438 -14.53125 6.484375 -14.101562 5.703125 -13.25 C 4.921875 -12.394531 4.460938 -11.210938 4.328125 -9.703125 L 12.84375 -9.703125 C 12.84375 -11.265625 12.492188 -12.457031 11.796875 -13.28125 C 11.109375 -14.113281 10.117188 -14.53125 8.828125 -14.53125 Z M 8.828125 -14.53125 "/></g></g></g><g fill="#545454" fill-opacity="1"><g transform="translate(1226.345341, 416.845631)"><g><path d="M 6.1875 0 L 0 -16.296875 L 2.640625 -16.296875 L 6.15625 -6.625 C 6.945312 -4.363281 7.410156 -2.898438 7.546875 -2.234375 L 7.671875 -2.234375 C 7.785156 -2.753906 8.128906 -3.835938 8.703125 -5.484375 C 9.285156 -7.140625 10.585938 -10.742188 12.609375 -16.296875 L 15.25 -16.296875 L 9.078125 0 Z M 6.1875 0 "/></g></g></g><g fill="#545454" fill-opacity="1"><g transform="translate(1241.595708, 416.845631)"><g><path d="M 9.5 0.296875 C 7.09375 0.296875 5.191406 -0.4375 3.796875 -1.90625 C 2.398438 -3.375 1.703125 -5.410156 1.703125 -8.015625 C 1.703125 -10.640625 2.347656 -12.722656 3.640625 -14.265625 C 4.941406 -15.816406 6.679688 -16.59375 8.859375 -16.59375 C 10.898438 -16.59375 12.515625 -15.921875 13.703125 -14.578125 C 14.898438 -13.234375 15.5 -11.460938 15.5 -9.265625 L 15.5 -7.703125 L 4.265625 -7.703125 C 4.316406 -5.785156 4.800781 -4.332031 5.71875 -3.34375 C 6.632812 -2.351562 7.925781 -1.859375 9.59375 -1.859375 C 11.34375 -1.859375 13.078125 -2.222656 14.796875 -2.953125 L 14.796875 -0.765625 C 13.921875 -0.378906 13.09375 -0.109375 12.3125 0.046875 C 11.539062 0.210938 10.601562 0.296875 9.5 0.296875 Z M 8.828125 -14.53125 C 7.523438 -14.53125 6.484375 -14.101562 5.703125 -13.25 C 4.921875 -12.394531 4.460938 -11.210938 4.328125 -9.703125 L 12.84375 -9.703125 C 12.84375 -11.265625 12.492188 -12.457031 11.796875 -13.28125 C 11.109375 -14.113281 10.117188 -14.53125 8.828125 -14.53125 Z M 8.828125 -14.53125 "/></g></g></g><g fill="#545454" fill-opacity="1"><g transform="translate(1178.617339, 487.127047)"><g><path d="M 19.96875 0 L 17.078125 0 L 5.203125 -18.25 L 5.078125 -18.25 C 5.242188 -16.101562 5.328125 -14.140625 5.328125 -12.359375 L 5.328125 0 L 2.984375 0 L 2.984375 -21.734375 L 5.84375 -21.734375 L 17.6875 -3.5625 L 17.8125 -3.5625 C 17.789062 -3.832031 17.742188 -4.691406 17.671875 -6.140625 C 17.609375 -7.597656 17.585938 -8.640625 17.609375 -9.265625 L 17.609375 -21.734375 L 19.96875 -21.734375 Z M 19.96875 0 "/></g></g></g><g fill="#545454" fill-opacity="1"><g transform="translate(1201.567209, 487.127047)"><g><path d="M 16.6875 -8.15625 C 16.6875 -5.5 16.015625 -3.425781 14.671875 -1.9375 C 13.335938 -0.445312 11.488281 0.296875 9.125 0.296875 C 7.664062 0.296875 6.367188 -0.0390625 5.234375 -0.71875 C 4.109375 -1.40625 3.238281 -2.390625 2.625 -3.671875 C 2.007812 -4.953125 1.703125 -6.445312 1.703125 -8.15625 C 1.703125 -10.820312 2.363281 -12.894531 3.6875 -14.375 C 5.019531 -15.851562 6.867188 -16.59375 9.234375 -16.59375 C 11.515625 -16.59375 13.328125 -15.832031 14.671875 -14.3125 C 16.015625 -12.800781 16.6875 -10.75 16.6875 -8.15625 Z M 4.265625 -8.15625 C 4.265625 -6.082031 4.679688 -4.5 5.515625 -3.40625 C 6.347656 -2.3125 7.570312 -1.765625 9.1875 -1.765625 C 10.800781 -1.765625 12.023438 -2.304688 12.859375 -3.390625 C 13.703125 -4.484375 14.125 -6.070312 14.125 -8.15625 C 14.125 -10.226562 13.703125 -11.800781 12.859375 -12.875 C 12.023438 -13.957031 10.789062 -14.5 9.15625 -14.5 C 7.539062 -14.5 6.320312 -13.96875 5.5 -12.90625 C 4.675781 -11.84375 4.265625 -10.257812 4.265625 -8.15625 Z M 4.265625 -8.15625 "/></g></g></g><g fill="#545454" fill-opacity="1"><g transform="translate(1219.953861, 487.127047)"><g/></g></g><g fill="#545454" fill-opacity="1"><g transform="translate(1227.861459, 487.127047)"><g><path d="M 13.765625 0 L 13.765625 -10.546875 C 13.765625 -11.867188 13.460938 -12.859375 12.859375 -13.515625 C 12.253906 -14.171875 11.304688 -14.5 10.015625 -14.5 C 8.316406 -14.5 7.066406 -14.035156 6.265625 -13.109375 C 5.472656 -12.191406 5.078125 -10.671875 5.078125 -8.546875 L 5.078125 0 L 2.609375 0 L 2.609375 -16.296875 L 4.625 -16.296875 L 5.03125 -14.0625 L 5.140625 -14.0625 C 5.648438 -14.863281 6.359375 -15.484375 7.265625 -15.921875 C 8.179688 -16.367188 9.195312 -16.59375 10.3125 -16.59375 C 12.28125 -16.59375 13.757812 -16.117188 14.75 -15.171875 C 15.738281 -14.222656 16.234375 -12.707031 16.234375 -10.625 L 16.234375 0 Z M 13.765625 0 "/></g></g></g><g fill="#545454" fill-opacity="1"><g transform="translate(1246.545389, 487.127047)"><g><path d="M 5.078125 0 L 2.609375 0 L 2.609375 -16.296875 L 5.078125 -16.296875 Z M 2.40625 -20.71875 C 2.40625 -21.28125 2.539062 -21.691406 2.8125 -21.953125 C 3.09375 -22.210938 3.441406 -22.34375 3.859375 -22.34375 C 4.253906 -22.34375 4.597656 -22.207031 4.890625 -21.9375 C 5.179688 -21.675781 5.328125 -21.269531 5.328125 -20.71875 C 5.328125 -20.15625 5.179688 -19.738281 4.890625 -19.46875 C 4.597656 -19.195312 4.253906 -19.0625 3.859375 -19.0625 C 3.441406 -19.0625 3.09375 -19.195312 2.8125 -19.46875 C 2.539062 -19.738281 2.40625 -20.15625 2.40625 -20.71875 Z M 2.40625 -20.71875 "/></g></g></g><g fill="#545454" fill-opacity="1"><g transform="translate(1254.244893, 487.127047)"><g><path d="M 9.5 0.296875 C 7.09375 0.296875 5.191406 -0.4375 3.796875 -1.90625 C 2.398438 -3.375 1.703125 -5.410156 1.703125 -8.015625 C 1.703125 -10.640625 2.347656 -12.722656 3.640625 -14.265625 C 4.941406 -15.816406 6.679688 -16.59375 8.859375 -16.59375 C 10.898438 -16.59375 12.515625 -15.921875 13.703125 -14.578125 C 14.898438 -13.234375 15.5 -11.460938 15.5 -9.265625 L 15.5 -7.703125 L 4.265625 -7.703125 C 4.316406 -5.785156 4.800781 -4.332031 5.71875 -3.34375 C 6.632812 -2.351562 7.925781 -1.859375 9.59375 -1.859375 C 11.34375 -1.859375 13.078125 -2.222656 14.796875 -2.953125 L 14.796875 -0.765625 C 13.921875 -0.378906 13.09375 -0.109375 12.3125 0.046875 C 11.539062 0.210938 10.601562 0.296875 9.5 0.296875 Z M 8.828125 -14.53125 C 7.523438 -14.53125 6.484375 -14.101562 5.703125 -13.25 C 4.921875 -12.394531 4.460938 -11.210938 4.328125 -9.703125 L 12.84375 -9.703125 C 12.84375 -11.265625 12.492188 -12.457031 11.796875 -13.28125 C 11.109375 -14.113281 10.117188 -14.53125 8.828125 -14.53125 Z M 8.828125 -14.53125 "/></g></g></g><g fill="#545454" fill-opacity="1"><g transform="translate(1271.323521, 487.127047)"><g><path d="M 6.1875 0 L 0 -16.296875 L 2.640625 -16.296875 L 6.15625 -6.625 C 6.945312 -4.363281 7.410156 -2.898438 7.546875 -2.234375 L 7.671875 -2.234375 C 7.785156 -2.753906 8.128906 -3.835938 8.703125 -5.484375 C 9.285156 -7.140625 10.585938 -10.742188 12.609375 -16.296875 L 15.25 -16.296875 L 9.078125 0 Z M 6.1875 0 "/></g></g></g><g fill="#545454" fill-opacity="1"><g transform="translate(1286.573888, 487.127047)"><g><path d="M 9.5 0.296875 C 7.09375 0.296875 5.191406 -0.4375 3.796875 -1.90625 C 2.398438 -3.375 1.703125 -5.410156 1.703125 -8.015625 C 1.703125 -10.640625 2.347656 -12.722656 3.640625 -14.265625 C 4.941406 -15.816406 6.679688 -16.59375 8.859375 -16.59375 C 10.898438 -16.59375 12.515625 -15.921875 13.703125 -14.578125 C 14.898438 -13.234375 15.5 -11.460938 15.5 -9.265625 L 15.5 -7.703125 L 4.265625 -7.703125 C 4.316406 -5.785156 4.800781 -4.332031 5.71875 -3.34375 C 6.632812 -2.351562 7.925781 -1.859375 9.59375 -1.859375 C 11.34375 -1.859375 13.078125 -2.222656 14.796875 -2.953125 L 14.796875 -0.765625 C 13.921875 -0.378906 13.09375 -0.109375 12.3125 0.046875 C 11.539062 0.210938 10.601562 0.296875 9.5 0.296875 Z M 8.828125 -14.53125 C 7.523438 -14.53125 6.484375 -14.101562 5.703125 -13.25 C 4.921875 -12.394531 4.460938 -11.210938 4.328125 -9.703125 L 12.84375 -9.703125 C 12.84375 -11.265625 12.492188 -12.457031 11.796875 -13.28125 C 11.109375 -14.113281 10.117188 -14.53125 8.828125 -14.53125 Z M 8.828125 -14.53125 "/></g></g></g><g fill="#545454" fill-opacity="1"><g transform="translate(1178.635183, 564.651675)"><g><path d="M 15.25 -5.78125 C 15.25 -3.875 14.554688 -2.382812 13.171875 -1.3125 C 11.785156 -0.238281 9.90625 0.296875 7.53125 0.296875 C 4.945312 0.296875 2.960938 -0.0351562 1.578125 -0.703125 L 1.578125 -3.140625 C 2.472656 -2.765625 3.441406 -2.46875 4.484375 -2.25 C 5.535156 -2.03125 6.578125 -1.921875 7.609375 -1.921875 C 9.296875 -1.921875 10.566406 -2.238281 11.421875 -2.875 C 12.273438 -3.519531 12.703125 -4.410156 12.703125 -5.546875 C 12.703125 -6.296875 12.550781 -6.910156 12.25 -7.390625 C 11.945312 -7.878906 11.441406 -8.328125 10.734375 -8.734375 C 10.023438 -9.140625 8.945312 -9.597656 7.5 -10.109375 C 5.46875 -10.835938 4.019531 -11.695312 3.15625 -12.6875 C 2.289062 -13.675781 1.859375 -14.96875 1.859375 -16.5625 C 1.859375 -18.238281 2.488281 -19.570312 3.75 -20.5625 C 5.007812 -21.550781 6.675781 -22.046875 8.75 -22.046875 C 10.90625 -22.046875 12.890625 -21.648438 14.703125 -20.859375 L 13.921875 -18.65625 C 12.128906 -19.414062 10.382812 -19.796875 8.6875 -19.796875 C 7.34375 -19.796875 6.296875 -19.503906 5.546875 -18.921875 C 4.796875 -18.347656 4.421875 -17.550781 4.421875 -16.53125 C 4.421875 -15.78125 4.554688 -15.164062 4.828125 -14.6875 C 5.109375 -14.207031 5.578125 -13.765625 6.234375 -13.359375 C 6.898438 -12.960938 7.910156 -12.519531 9.265625 -12.03125 C 11.546875 -11.21875 13.113281 -10.34375 13.96875 -9.40625 C 14.820312 -8.476562 15.25 -7.269531 15.25 -5.78125 Z M 15.25 -5.78125 "/></g></g></g><g fill="#545454" fill-opacity="1"><g transform="translate(1195.342213, 564.651675)"><g><path d="M 5.078125 0 L 2.609375 0 L 2.609375 -16.296875 L 5.078125 -16.296875 Z M 2.40625 -20.71875 C 2.40625 -21.28125 2.539062 -21.691406 2.8125 -21.953125 C 3.09375 -22.210938 3.441406 -22.34375 3.859375 -22.34375 C 4.253906 -22.34375 4.597656 -22.207031 4.890625 -21.9375 C 5.179688 -21.675781 5.328125 -21.269531 5.328125 -20.71875 C 5.328125 -20.15625 5.179688 -19.738281 4.890625 -19.46875 C 4.597656 -19.195312 4.253906 -19.0625 3.859375 -19.0625 C 3.441406 -19.0625 3.09375 -19.195312 2.8125 -19.46875 C 2.539062 -19.738281 2.40625 -20.15625 2.40625 -20.71875 Z M 2.40625 -20.71875 "/></g></g></g><g fill="#545454" fill-opacity="1"><g transform="translate(1203.041716, 564.651675)"><g><path d="M 13.765625 0 L 13.765625 -10.546875 C 13.765625 -11.867188 13.460938 -12.859375 12.859375 -13.515625 C 12.253906 -14.171875 11.304688 -14.5 10.015625 -14.5 C 8.316406 -14.5 7.066406 -14.035156 6.265625 -13.109375 C 5.472656 -12.191406 5.078125 -10.671875 5.078125 -8.546875 L 5.078125 0 L 2.609375 0 L 2.609375 -16.296875 L 4.625 -16.296875 L 5.03125 -14.0625 L 5.140625 -14.0625 C 5.648438 -14.863281 6.359375 -15.484375 7.265625 -15.921875 C 8.179688 -16.367188 9.195312 -16.59375 10.3125 -16.59375 C 12.28125 -16.59375 13.757812 -16.117188 14.75 -15.171875 C 15.738281 -14.222656 16.234375 -12.707031 16.234375 -10.625 L 16.234375 0 Z M 13.765625 0 "/></g></g></g><g fill="#545454" fill-opacity="1"><g transform="translate(1221.725646, 564.651675)"><g/></g></g><g fill="#545454" fill-opacity="1"><g transform="translate(1229.633244, 564.651675)"><g><path d="M 5.078125 0 L 2.609375 0 L 2.609375 -16.296875 L 5.078125 -16.296875 Z M 2.40625 -20.71875 C 2.40625 -21.28125 2.539062 -21.691406 2.8125 -21.953125 C 3.09375 -22.210938 3.441406 -22.34375 3.859375 -22.34375 C 4.253906 -22.34375 4.597656 -22.207031 4.890625 -21.9375 C 5.179688 -21.675781 5.328125 -21.269531 5.328125 -20.71875 C 5.328125 -20.15625 5.179688 -19.738281 4.890625 -19.46875 C 4.597656 -19.195312 4.253906 -19.0625 3.859375 -19.0625 C 3.441406 -19.0625 3.09375 -19.195312 2.8125 -19.46875 C 2.539062 -19.738281 2.40625 -20.15625 2.40625 -20.71875 Z M 2.40625 -20.71875 "/></g></g></g><g fill="#545454" fill-opacity="1"><g transform="translate(1237.332748, 564.651675)"><g><path d="M 13.765625 0 L 13.765625 -10.546875 C 13.765625 -11.867188 13.460938 -12.859375 12.859375 -13.515625 C 12.253906 -14.171875 11.304688 -14.5 10.015625 -14.5 C 8.316406 -14.5 7.066406 -14.035156 6.265625 -13.109375 C 5.472656 -12.191406 5.078125 -10.671875 5.078125 -8.546875 L 5.078125 0 L 2.609375 0 L 2.609375 -16.296875 L 4.625 -16.296875 L 5.03125 -14.0625 L 5.140625 -14.0625 C 5.648438 -14.863281 6.359375 -15.484375 7.265625 -15.921875 C 8.179688 -16.367188 9.195312 -16.59375 10.3125 -16.59375 C 12.28125 -16.59375 13.757812 -16.117188 14.75 -15.171875 C 15.738281 -14.222656 16.234375 -12.707031 16.234375 -10.625 L 16.234375 0 Z M 13.765625 0 "/></g></g></g><g fill="#545454" fill-opacity="1"><g transform="translate(1256.016678, 564.651675)"><g><path d="M 9.96875 -14.375 L 5.8125 -14.375 L 5.8125 0 L 3.34375 0 L 3.34375 -14.375 L 0.4375 -14.375 L 0.4375 -15.5 L 3.34375 -16.390625 L 3.34375 -17.296875 C 3.34375 -21.296875 5.09375 -23.296875 8.59375 -23.296875 C 9.457031 -23.296875 10.46875 -23.125 11.625 -22.78125 L 10.984375 -20.796875 C 10.035156 -21.109375 9.222656 -21.265625 8.546875 -21.265625 C 7.617188 -21.265625 6.929688 -20.953125 6.484375 -20.328125 C 6.035156 -19.710938 5.8125 -18.722656 5.8125 -17.359375 L 5.8125 -16.296875 L 9.96875 -16.296875 Z M 9.96875 -14.375 "/></g></g></g><g fill="#545454" fill-opacity="1"><g transform="translate(1266.332229, 564.651675)"><g><path d="M 16.6875 -8.15625 C 16.6875 -5.5 16.015625 -3.425781 14.671875 -1.9375 C 13.335938 -0.445312 11.488281 0.296875 9.125 0.296875 C 7.664062 0.296875 6.367188 -0.0390625 5.234375 -0.71875 C 4.109375 -1.40625 3.238281 -2.390625 2.625 -3.671875 C 2.007812 -4.953125 1.703125 -6.445312 1.703125 -8.15625 C 1.703125 -10.820312 2.363281 -12.894531 3.6875 -14.375 C 5.019531 -15.851562 6.867188 -16.59375 9.234375 -16.59375 C 11.515625 -16.59375 13.328125 -15.832031 14.671875 -14.3125 C 16.015625 -12.800781 16.6875 -10.75 16.6875 -8.15625 Z M 4.265625 -8.15625 C 4.265625 -6.082031 4.679688 -4.5 5.515625 -3.40625 C 6.347656 -2.3125 7.570312 -1.765625 9.1875 -1.765625 C 10.800781 -1.765625 12.023438 -2.304688 12.859375 -3.390625 C 13.703125 -4.484375 14.125 -6.070312 14.125 -8.15625 C 14.125 -10.226562 13.703125 -11.800781 12.859375 -12.875 C 12.023438 -13.957031 10.789062 -14.5 9.15625 -14.5 C 7.539062 -14.5 6.320312 -13.96875 5.5 -12.90625 C 4.675781 -11.84375 4.265625 -10.257812 4.265625 -8.15625 Z M 4.265625 -8.15625 "/></g></g></g><g fill="#545454" fill-opacity="1"><g transform="translate(1284.71888, 564.651675)"><g><path d="M 10.046875 -16.59375 C 10.773438 -16.59375 11.425781 -16.535156 12 -16.421875 L 11.65625 -14.125 C 10.976562 -14.269531 10.382812 -14.34375 9.875 -14.34375 C 8.550781 -14.34375 7.421875 -13.804688 6.484375 -12.734375 C 5.546875 -11.671875 5.078125 -10.34375 5.078125 -8.75 L 5.078125 0 L 2.609375 0 L 2.609375 -16.296875 L 4.65625 -16.296875 L 4.9375 -13.28125 L 5.0625 -13.28125 C 5.664062 -14.34375 6.390625 -15.160156 7.234375 -15.734375 C 8.085938 -16.304688 9.023438 -16.59375 10.046875 -16.59375 Z M 10.046875 -16.59375 "/></g></g></g><g fill="#545454" fill-opacity="1"><g transform="translate(1297.145106, 564.651675)"><g><path d="M 23.390625 0 L 23.390625 -10.609375 C 23.390625 -11.898438 23.109375 -12.867188 22.546875 -13.515625 C 21.992188 -14.171875 21.132812 -14.5 19.96875 -14.5 C 18.4375 -14.5 17.300781 -14.054688 16.5625 -13.171875 C 15.832031 -12.285156 15.46875 -10.925781 15.46875 -9.09375 L 15.46875 0 L 13 0 L 13 -10.609375 C 13 -11.898438 12.71875 -12.867188 12.15625 -13.515625 C 11.601562 -14.171875 10.738281 -14.5 9.5625 -14.5 C 8.007812 -14.5 6.875 -14.035156 6.15625 -13.109375 C 5.4375 -12.179688 5.078125 -10.660156 5.078125 -8.546875 L 5.078125 0 L 2.609375 0 L 2.609375 -16.296875 L 4.625 -16.296875 L 5.03125 -14.0625 L 5.140625 -14.0625 C 5.609375 -14.851562 6.265625 -15.472656 7.109375 -15.921875 C 7.960938 -16.367188 8.914062 -16.59375 9.96875 -16.59375 C 12.507812 -16.59375 14.171875 -15.671875 14.953125 -13.828125 L 15.078125 -13.828125 C 15.566406 -14.679688 16.269531 -15.351562 17.1875 -15.84375 C 18.113281 -16.34375 19.164062 -16.59375 20.34375 -16.59375 C 22.1875 -16.59375 23.566406 -16.117188 24.484375 -15.171875 C 25.398438 -14.222656 25.859375 -12.707031 25.859375 -10.625 L 25.859375 0 Z M 23.390625 0 "/></g></g></g><g fill="#545454" fill-opacity="1"><g transform="translate(1325.460847, 564.651675)"><g><path d="M 12.640625 0 L 12.15625 -2.3125 L 12.03125 -2.3125 C 11.21875 -1.289062 10.40625 -0.597656 9.59375 -0.234375 C 8.789062 0.117188 7.785156 0.296875 6.578125 0.296875 C 4.960938 0.296875 3.691406 -0.117188 2.765625 -0.953125 C 1.847656 -1.785156 1.390625 -2.96875 1.390625 -4.5 C 1.390625 -7.789062 4.023438 -9.519531 9.296875 -9.6875 L 12.0625 -9.765625 L 12.0625 -10.78125 C 12.0625 -12.0625 11.785156 -13.003906 11.234375 -13.609375 C 10.679688 -14.222656 9.800781 -14.53125 8.59375 -14.53125 C 7.238281 -14.53125 5.703125 -14.113281 3.984375 -13.28125 L 3.234375 -15.171875 C 4.035156 -15.609375 4.910156 -15.945312 5.859375 -16.1875 C 6.816406 -16.4375 7.78125 -16.5625 8.75 -16.5625 C 10.6875 -16.5625 12.125 -16.128906 13.0625 -15.265625 C 14 -14.410156 14.46875 -13.03125 14.46875 -11.125 L 14.46875 0 Z M 7.0625 -1.734375 C 8.601562 -1.734375 9.8125 -2.15625 10.6875 -3 C 11.5625 -3.84375 12 -5.023438 12 -6.546875 L 12 -8.015625 L 9.53125 -7.90625 C 7.570312 -7.84375 6.15625 -7.539062 5.28125 -7 C 4.414062 -6.457031 3.984375 -5.613281 3.984375 -4.46875 C 3.984375 -3.582031 4.253906 -2.90625 4.796875 -2.4375 C 5.335938 -1.96875 6.09375 -1.734375 7.0625 -1.734375 Z M 7.0625 -1.734375 "/></g></g></g><g fill="#545454" fill-opacity="1"><g transform="translate(1342.390836, 564.651675)"><g><path d="M 9.125 0.296875 C 6.769531 0.296875 4.941406 -0.425781 3.640625 -1.875 C 2.347656 -3.332031 1.703125 -5.390625 1.703125 -8.046875 C 1.703125 -10.773438 2.359375 -12.878906 3.671875 -14.359375 C 4.992188 -15.847656 6.867188 -16.59375 9.296875 -16.59375 C 10.078125 -16.59375 10.859375 -16.507812 11.640625 -16.34375 C 12.421875 -16.175781 13.035156 -15.976562 13.484375 -15.75 L 12.734375 -13.65625 C 12.179688 -13.875 11.582031 -14.050781 10.9375 -14.1875 C 10.300781 -14.332031 9.734375 -14.40625 9.234375 -14.40625 C 5.921875 -14.40625 4.265625 -12.296875 4.265625 -8.078125 C 4.265625 -6.078125 4.664062 -4.539062 5.46875 -3.46875 C 6.28125 -2.394531 7.484375 -1.859375 9.078125 -1.859375 C 10.429688 -1.859375 11.820312 -2.148438 13.25 -2.734375 L 13.25 -0.546875 C 12.15625 0.015625 10.78125 0.296875 9.125 0.296875 Z M 9.125 0.296875 "/></g></g></g><g fill="#545454" fill-opacity="1"><g transform="translate(1356.883144, 564.651675)"><g><path d="M 5.078125 0 L 2.609375 0 L 2.609375 -16.296875 L 5.078125 -16.296875 Z M 2.40625 -20.71875 C 2.40625 -21.28125 2.539062 -21.691406 2.8125 -21.953125 C 3.09375 -22.210938 3.441406 -22.34375 3.859375 -22.34375 C 4.253906 -22.34375 4.597656 -22.207031 4.890625 -21.9375 C 5.179688 -21.675781 5.328125 -21.269531 5.328125 -20.71875 C 5.328125 -20.15625 5.179688 -19.738281 4.890625 -19.46875 C 4.597656 -19.195312 4.253906 -19.0625 3.859375 -19.0625 C 3.441406 -19.0625 3.09375 -19.195312 2.8125 -19.46875 C 2.539062 -19.738281 2.40625 -20.15625 2.40625 -20.71875 Z M 2.40625 -20.71875 "/></g></g></g><g fill="#545454" fill-opacity="1"><g transform="translate(1364.582648, 564.651675)"><g><path d="M 16.6875 -8.15625 C 16.6875 -5.5 16.015625 -3.425781 14.671875 -1.9375 C 13.335938 -0.445312 11.488281 0.296875 9.125 0.296875 C 7.664062 0.296875 6.367188 -0.0390625 5.234375 -0.71875 C 4.109375 -1.40625 3.238281 -2.390625 2.625 -3.671875 C 2.007812 -4.953125 1.703125 -6.445312 1.703125 -8.15625 C 1.703125 -10.820312 2.363281 -12.894531 3.6875 -14.375 C 5.019531 -15.851562 6.867188 -16.59375 9.234375 -16.59375 C 11.515625 -16.59375 13.328125 -15.832031 14.671875 -14.3125 C 16.015625 -12.800781 16.6875 -10.75 16.6875 -8.15625 Z M 4.265625 -8.15625 C 4.265625 -6.082031 4.679688 -4.5 5.515625 -3.40625 C 6.347656 -2.3125 7.570312 -1.765625 9.1875 -1.765625 C 10.800781 -1.765625 12.023438 -2.304688 12.859375 -3.390625 C 13.703125 -4.484375 14.125 -6.070312 14.125 -8.15625 C 14.125 -10.226562 13.703125 -11.800781 12.859375 -12.875 C 12.023438 -13.957031 10.789062 -14.5 9.15625 -14.5 C 7.539062 -14.5 6.320312 -13.96875 5.5 -12.90625 C 4.675781 -11.84375 4.265625 -10.257812 4.265625 -8.15625 Z M 7.125 -18.828125 C 7.601562 -19.441406 8.113281 -20.179688 8.65625 -21.046875 C 9.207031 -21.921875 9.644531 -22.679688 9.96875 -23.328125 L 12.96875 -23.328125 L 12.96875 -23.015625 C 12.53125 -22.367188 11.878906 -21.570312 11.015625 -20.625 C 10.160156 -19.6875 9.414062 -18.960938 8.78125 -18.453125 L 7.125 -18.453125 Z M 7.125 -18.828125 "/></g></g></g><g fill="#545454" fill-opacity="1"><g transform="translate(1382.969299, 564.651675)"><g><path d="M 13.765625 0 L 13.765625 -10.546875 C 13.765625 -11.867188 13.460938 -12.859375 12.859375 -13.515625 C 12.253906 -14.171875 11.304688 -14.5 10.015625 -14.5 C 8.316406 -14.5 7.066406 -14.035156 6.265625 -13.109375 C 5.472656 -12.191406 5.078125 -10.671875 5.078125 -8.546875 L 5.078125 0 L 2.609375 0 L 2.609375 -16.296875 L 4.625 -16.296875 L 5.03125 -14.0625 L 5.140625 -14.0625 C 5.648438 -14.863281 6.359375 -15.484375 7.265625 -15.921875 C 8.179688 -16.367188 9.195312 -16.59375 10.3125 -16.59375 C 12.28125 -16.59375 13.757812 -16.117188 14.75 -15.171875 C 15.738281 -14.222656 16.234375 -12.707031 16.234375 -10.625 L 16.234375 0 Z M 13.765625 0 "/></g></g></g></svg>