<svg xmlns="http://www.w3.org/2000/svg" xmlns:xlink="http://www.w3.org/1999/xlink" width="1920" zoomAndPan="magnify" viewBox="0 0 1440 809.999993" height="1080" preserveAspectRatio="xMidYMid meet" version="1.0"><defs><g/><clipPath id="4b518733b9"><path d="M 13 232.054688 L 359 232.054688 L 359 440 L 13 440 Z M 13 232.054688 " clip-rule="nonzero"/></clipPath><clipPath id="439625beb3"><path d="M 13 232.054688 L 444.921875 232.054688 L 444.921875 578 L 13 578 Z M 13 232.054688 " clip-rule="nonzero"/></clipPath><clipPath id="5624f95247"><path d="M 12.921875 232.054688 L 444.921875 232.054688 L 444.921875 578 L 12.921875 578 Z M 12.921875 232.054688 " clip-rule="nonzero"/></clipPath><clipPath id="2013bc82f5"><path d="M 553.050781 232.054688 L 899 232.054688 L 899 440 L 553.050781 440 Z M 553.050781 232.054688 " clip-rule="nonzero"/></clipPath><clipPath id="a22e74a7c3"><path d="M 553.050781 232.054688 L 985 232.054688 L 985 578 L 553.050781 578 Z M 553.050781 232.054688 " clip-rule="nonzero"/></clipPath><clipPath id="2fa782da17"><path d="M 553.050781 439 L 899 439 L 899 578 L 553.050781 578 Z M 553.050781 439 " clip-rule="nonzero"/></clipPath><clipPath id="c22ba6580e"><path d="M 553.050781 232.054688 L 985 232.054688 L 985 578 L 553.050781 578 Z M 553.050781 232.054688 " clip-rule="nonzero"/></clipPath><clipPath id="88c60520ba"><path d="M 553.050781 232.054688 L 985.050781 232.054688 L 985.050781 578 L 553.050781 578 Z M 553.050781 232.054688 " clip-rule="nonzero"/></clipPath><clipPath id="b046e171ae"><path d="M 1166.023438 349.421875 L 1214.773438 349.421875 L 1214.773438 396 L 1166.023438 396 Z M 1166.023438 349.421875 " clip-rule="nonzero"/></clipPath><clipPath id="177b11ad6c"><path d="M 1166.023438 349.421875 L 1214.773438 349.421875 L 1214.773438 396.671875 L 1166.023438 396.671875 Z M 1166.023438 349.421875 " clip-rule="nonzero"/></clipPath><clipPath id="9398f1a9ae"><path d="M 1166.023438 418.367188 L 1214.773438 418.367188 L 1214.773438 465 L 1166.023438 465 Z M 1166.023438 418.367188 " clip-rule="nonzero"/></clipPath><clipPath id="9b9b6b4e96"><path d="M 1166.023438 487.230469 L 1214.773438 487.230469 L 1214.773438 534 L 1166.023438 534 Z M 1166.023438 487.230469 " clip-rule="nonzero"/></clipPath><clipPath id="85a045c8ea"><path d="M 1109.175781 265.121094 L 1427.175781 265.121094 L 1427.175781 553 L 1109.175781 553 Z M 1109.175781 265.121094 " clip-rule="nonzero"/></clipPath><clipPath id="f5a18602e4"><path d="M 1128.675781 265.125 L 1407.570312 265.125 C 1418.339844 265.125 1427.070312 273.851562 1427.070312 284.621094 L 1427.070312 533.371094 C 1427.070312 544.140625 1418.339844 552.871094 1407.570312 552.871094 L 1128.675781 552.871094 C 1117.90625 552.871094 1109.175781 544.140625 1109.175781 533.371094 L 1109.175781 284.621094 C 1109.175781 273.851562 1117.90625 265.125 1128.675781 265.125 Z M 1128.675781 265.125 " clip-rule="nonzero"/></clipPath><clipPath id="66ab81f58b"><path d="M 463.242188 370.953125 L 534.832031 370.953125 L 534.832031 442.265625 L 463.242188 442.265625 Z M 463.242188 370.953125 " clip-rule="nonzero"/></clipPath><clipPath id="b64852b7b3"><path d="M 534.628906 406.609375 L 496.578125 370.953125 L 496.578125 389.980469 L 463.242188 389.980469 L 463.242188 423.238281 L 496.578125 423.238281 L 496.578125 442.265625 Z M 534.628906 406.609375 " clip-rule="nonzero"/></clipPath><clipPath id="0fdf7c24a9"><path d="M 639.125 303 L 729.875 303 L 729.875 373 L 639.125 373 Z M 639.125 303 " clip-rule="nonzero"/></clipPath><clipPath id="07497a1e5b"><path d="M 639.125 300.929688 L 729.875 300.929688 L 729.875 374.429688 L 639.125 374.429688 Z M 639.125 300.929688 " clip-rule="nonzero"/></clipPath><clipPath id="f244d9d348"><path d="M 126.476562 322.652344 L 156.476562 322.652344 L 156.476562 352.652344 L 126.476562 352.652344 Z M 126.476562 322.652344 " clip-rule="nonzero"/></clipPath><clipPath id="6155015511"><path d="M 141.476562 322.652344 C 133.191406 322.652344 126.476562 329.371094 126.476562 337.652344 C 126.476562 345.9375 133.191406 352.652344 141.476562 352.652344 C 149.761719 352.652344 156.476562 345.9375 156.476562 337.652344 C 156.476562 329.371094 149.761719 322.652344 141.476562 322.652344 Z M 141.476562 322.652344 " clip-rule="nonzero"/></clipPath></defs><g clip-path="url(#4b518733b9)"><path fill="#93d3d9" d="M 13.496094 232.628906 L 13.496094 301.878906 L 99.945312 301.878906 L 99.945312 232.628906 Z M 99.570312 232.628906 L 99.570312 301.878906 L 186.023438 301.878906 L 186.023438 232.628906 Z M 185.648438 232.628906 L 185.648438 301.878906 L 272.097656 301.878906 L 272.097656 232.628906 Z M 271.722656 232.628906 L 271.722656 301.878906 L 358.171875 301.878906 L 358.171875 232.628906 Z M 13.496094 301.503906 L 13.496094 370.75 L 99.945312 370.75 L 99.945312 301.503906 Z M 185.648438 301.503906 L 185.648438 370.75 L 272.097656 370.75 L 272.097656 301.503906 Z M 271.722656 301.503906 L 271.722656 370.75 L 358.171875 370.75 L 358.171875 301.503906 Z M 13.496094 370.375 L 13.496094 439.625 L 99.945312 439.625 L 99.945312 370.375 Z M 99.570312 370.375 L 99.570312 439.625 L 186.023438 439.625 L 186.023438 370.375 Z M 185.648438 370.375 L 185.648438 439.625 L 272.097656 439.625 L 272.097656 370.375 Z M 185.648438 370.375 " fill-opacity="1" fill-rule="nonzero"/></g><g clip-path="url(#439625beb3)"><path fill="#a6a6a6" d="M 357.796875 232.628906 L 357.796875 301.878906 L 444.25 301.878906 L 444.25 232.628906 Z M 99.570312 301.503906 L 99.570312 370.75 L 186.023438 370.75 L 186.023438 301.503906 Z M 357.796875 301.503906 L 357.796875 370.75 L 444.25 370.75 L 444.25 301.503906 Z M 271.722656 370.375 L 271.722656 439.625 L 358.171875 439.625 L 358.171875 370.375 Z M 357.796875 370.375 L 357.796875 439.625 L 444.25 439.625 L 444.25 370.375 Z M 13.496094 439.25 L 13.496094 508.496094 L 99.945312 508.496094 L 99.945312 439.25 Z M 99.570312 439.25 L 99.570312 508.496094 L 186.023438 508.496094 L 186.023438 439.25 Z M 357.796875 439.25 L 357.796875 508.496094 L 444.25 508.496094 L 444.25 439.25 Z M 271.722656 508.121094 L 271.722656 577.371094 L 358.171875 577.371094 L 358.171875 508.121094 Z M 357.796875 508.121094 L 357.796875 577.371094 L 444.25 577.371094 L 444.25 508.121094 Z M 357.796875 508.121094 " fill-opacity="1" fill-rule="nonzero"/></g><path fill="#8ecb4e" d="M 185.648438 439.25 L 185.648438 508.496094 L 272.097656 508.496094 L 272.097656 439.25 Z M 271.722656 439.25 L 271.722656 508.496094 L 358.171875 508.496094 L 358.171875 439.25 Z M 13.496094 508.121094 L 13.496094 577.371094 L 99.945312 577.371094 L 99.945312 508.121094 Z M 99.570312 508.121094 L 99.570312 577.371094 L 186.023438 577.371094 L 186.023438 508.121094 Z M 185.648438 508.121094 L 185.648438 577.371094 L 272.097656 577.371094 L 272.097656 508.121094 Z M 185.648438 508.121094 " fill-opacity="1" fill-rule="nonzero"/><g clip-path="url(#5624f95247)"><path stroke-linecap="butt" transform="matrix(0.75, 0, 0, 0.75, 12.920177, 232.055224)" fill-opacity="1" fill="#000000" fill-rule="nonzero" stroke-linejoin="miter" d="M 1.017889 2.035744 L 1.017889 459.15035 M 115.783519 2.035744 L 115.783519 459.15035 M 230.554358 2.035744 L 230.554358 459.15035 M 345.319989 2.035744 L 345.319989 459.15035 M 460.08562 2.035744 L 460.08562 459.15035 M 574.856459 2.035744 L 574.856459 459.15035 M 0.00226356 1.01491 L 575.872084 1.01491 M 0.00226356 92.848248 L 575.872084 92.848248 M 0.00226356 184.676378 L 575.872084 184.676378 M 0.00226356 276.509716 L 575.872084 276.509716 M 0.00226356 368.337845 L 575.872084 368.337845 M 0.00226356 460.171183 L 575.872084 460.171183 " stroke="#ffffff" stroke-width="2.034884" stroke-opacity="1" stroke-miterlimit="4"/></g><g clip-path="url(#2013bc82f5)"><path fill="#93d3d9" d="M 553.625 232.628906 L 553.625 301.878906 L 640.074219 301.878906 L 640.074219 232.628906 Z M 639.699219 232.628906 L 639.699219 301.878906 L 726.152344 301.878906 L 726.152344 232.628906 Z M 725.777344 232.628906 L 725.777344 301.878906 L 812.226562 301.878906 L 812.226562 232.628906 Z M 811.851562 232.628906 L 811.851562 301.878906 L 898.300781 301.878906 L 898.300781 232.628906 Z M 553.625 301.503906 L 553.625 370.75 L 640.074219 370.75 L 640.074219 301.503906 Z M 639.699219 301.503906 L 639.699219 370.75 L 726.152344 370.75 L 726.152344 301.503906 Z M 725.777344 301.503906 L 725.777344 370.75 L 812.226562 370.75 L 812.226562 301.503906 Z M 811.851562 301.503906 L 811.851562 370.75 L 898.300781 370.75 L 898.300781 301.503906 Z M 553.625 370.375 L 553.625 439.625 L 640.074219 439.625 L 640.074219 370.375 Z M 639.699219 370.375 L 639.699219 439.625 L 726.152344 439.625 L 726.152344 370.375 Z M 725.777344 370.375 L 725.777344 439.625 L 812.226562 439.625 L 812.226562 370.375 Z M 725.777344 370.375 " fill-opacity="1" fill-rule="nonzero"/></g><g clip-path="url(#a22e74a7c3)"><path fill="#a6a6a6" d="M 897.925781 232.628906 L 897.925781 301.878906 L 984.378906 301.878906 L 984.378906 232.628906 Z M 897.925781 301.503906 L 897.925781 370.75 L 984.378906 370.75 L 984.378906 301.503906 Z M 811.851562 370.375 L 811.851562 439.625 L 898.300781 439.625 L 898.300781 370.375 Z M 897.925781 370.375 L 897.925781 439.625 L 984.378906 439.625 L 984.378906 370.375 Z M 553.625 439.25 L 553.625 508.496094 L 640.074219 508.496094 L 640.074219 439.25 Z M 639.699219 439.25 L 639.699219 508.496094 L 726.152344 508.496094 L 726.152344 439.25 Z M 897.925781 439.25 L 897.925781 508.496094 L 984.378906 508.496094 L 984.378906 439.25 Z M 811.851562 508.121094 L 811.851562 577.371094 L 898.300781 577.371094 L 898.300781 508.121094 Z M 897.925781 508.121094 L 897.925781 577.371094 L 984.378906 577.371094 L 984.378906 508.121094 Z M 897.925781 508.121094 " fill-opacity="1" fill-rule="nonzero"/></g><g clip-path="url(#2fa782da17)"><path fill="#8ecb4e" d="M 725.777344 439.25 L 725.777344 508.496094 L 812.226562 508.496094 L 812.226562 439.25 Z M 811.851562 439.25 L 811.851562 508.496094 L 898.300781 508.496094 L 898.300781 439.25 Z M 553.625 508.121094 L 553.625 577.371094 L 640.074219 577.371094 L 640.074219 508.121094 Z M 639.699219 508.121094 L 639.699219 577.371094 L 726.152344 577.371094 L 726.152344 508.121094 Z M 725.777344 508.121094 L 725.777344 577.371094 L 812.226562 577.371094 L 812.226562 508.121094 Z M 725.777344 508.121094 " fill-opacity="1" fill-rule="nonzero"/></g><g clip-path="url(#c22ba6580e)"><path fill="#000000" d="M 553.8125 233.582031 L 553.8125 576.417969 M 639.886719 233.582031 L 639.886719 576.417969 M 725.964844 233.582031 L 725.964844 576.417969 M 812.039062 233.582031 L 812.039062 576.417969 M 898.113281 233.582031 L 898.113281 576.417969 M 984.191406 233.582031 L 984.191406 576.417969 M 553.050781 232.816406 L 984.953125 232.816406 M 553.050781 301.691406 L 984.953125 301.691406 M 553.050781 370.5625 L 984.953125 370.5625 M 553.050781 439.4375 L 984.953125 439.4375 M 553.050781 508.308594 L 984.953125 508.308594 M 553.050781 577.183594 L 984.953125 577.183594 " fill-opacity="1" fill-rule="nonzero"/></g><g clip-path="url(#88c60520ba)"><path stroke-linecap="butt" transform="matrix(0.75, 0, 0, 0.75, 553.048922, 232.055224)" fill="none" stroke-linejoin="miter" d="M 1.018104 2.035744 L 1.018104 459.15035 M 115.783734 2.035744 L 115.783734 459.15035 M 230.554573 2.035744 L 230.554573 459.15035 M 345.320204 2.035744 L 345.320204 459.15035 M 460.085835 2.035744 L 460.085835 459.15035 M 574.856674 2.035744 L 574.856674 459.15035 M 0.00247847 1.01491 L 575.872299 1.01491 M 0.00247847 92.848248 L 575.872299 92.848248 M 0.00247847 184.676378 L 575.872299 184.676378 M 0.00247847 276.509716 L 575.872299 276.509716 M 0.00247847 368.337845 L 575.872299 368.337845 M 0.00247847 460.171183 L 575.872299 460.171183 " stroke="#ffffff" stroke-width="2.034884" stroke-opacity="1" stroke-miterlimit="4"/></g><g clip-path="url(#b046e171ae)"><path fill="#a6a6a6" d="M 1166.367188 349.765625 L 1166.367188 395.695312 L 1214.089844 395.695312 L 1214.089844 349.765625 Z M 1166.367188 349.765625 " fill-opacity="1" fill-rule="nonzero"/><path fill="#000000" d="M 1166.554688 350.484375 L 1166.554688 394.976562 M 1213.902344 350.484375 L 1213.902344 394.976562 M 1166.023438 349.953125 L 1214.429688 349.953125 M 1166.023438 395.507812 L 1214.429688 395.507812 " fill-opacity="1" fill-rule="nonzero"/></g><g clip-path="url(#177b11ad6c)"><path stroke-linecap="butt" transform="matrix(0.75, 0, 0, 0.75, 1166.024588, 349.423478)" fill="none" stroke-linejoin="miter" d="M 0.7068 1.414529 L 0.7068 60.737448 M 63.837011 1.414529 L 63.837011 60.737448 M -0.00153341 0.706195 L 64.540136 0.706195 M -0.00153341 61.445782 L 64.540136 61.445782 " stroke="#ffffff" stroke-width="1.412515" stroke-opacity="1" stroke-miterlimit="4"/></g><g clip-path="url(#9398f1a9ae)"><path fill="#8ecb4e" d="M 1166.367188 418.710938 L 1166.367188 464.640625 L 1214.089844 464.640625 L 1214.089844 418.710938 Z M 1166.367188 418.710938 " fill-opacity="1" fill-rule="nonzero"/><path stroke-linecap="butt" transform="matrix(0.75, 0, 0, 0.75, 1166.024588, 418.368671)" fill-opacity="1" fill="#000000" fill-rule="nonzero" stroke-linejoin="miter" d="M 0.7068 1.414689 L 0.7068 60.737608 M 63.837011 1.414689 L 63.837011 60.737608 M -0.00153341 0.706355 L 64.540136 0.706355 M -0.00153341 61.445942 L 64.540136 61.445942 " stroke="#ffffff" stroke-width="1.412515" stroke-opacity="1" stroke-miterlimit="4"/></g><g clip-path="url(#9b9b6b4e96)"><path fill="#93d3d9" d="M 1166.367188 487.570312 L 1166.367188 533.5 L 1214.089844 533.5 L 1214.089844 487.570312 Z M 1166.367188 487.570312 " fill-opacity="1" fill-rule="nonzero"/><path stroke-linecap="butt" transform="matrix(0.75, 0, 0, 0.75, 1166.024588, 487.228771)" fill-opacity="1" fill="#000000" fill-rule="nonzero" stroke-linejoin="miter" d="M 0.7068 1.413721 L 0.7068 60.736641 M 63.837011 1.413721 L 63.837011 60.736641 M -0.00153341 0.705388 L 64.540136 0.705388 M -0.00153341 61.444974 L 64.540136 61.444974 " stroke="#ffffff" stroke-width="1.412515" stroke-opacity="1" stroke-miterlimit="4"/></g><g clip-path="url(#85a045c8ea)"><g clip-path="url(#f5a18602e4)"><path fill="#a6a6a6" d="M 1144.425781 262.875 L 1157.925781 262.875 L 1157.925781 267.375 L 1144.425781 267.375 Z M 1160.175781 262.875 L 1173.675781 262.875 L 1173.675781 267.375 L 1160.175781 267.375 Z M 1175.925781 262.875 L 1189.425781 262.875 L 1189.425781 267.375 L 1175.925781 267.375 Z M 1191.675781 262.875 L 1205.175781 262.875 L 1205.175781 267.375 L 1191.675781 267.375 Z M 1207.425781 262.875 L 1220.925781 262.875 L 1220.925781 267.375 L 1207.425781 267.375 Z M 1223.175781 262.875 L 1236.675781 262.875 L 1236.675781 267.375 L 1223.175781 267.375 Z M 1238.925781 262.875 L 1252.425781 262.875 L 1252.425781 267.375 L 1238.925781 267.375 Z M 1254.675781 262.875 L 1268.175781 262.875 L 1268.175781 267.375 L 1254.675781 267.375 Z M 1270.425781 262.875 L 1283.925781 262.875 L 1283.925781 267.375 L 1270.425781 267.375 Z M 1286.175781 262.875 L 1299.675781 262.875 L 1299.675781 267.375 L 1286.175781 267.375 Z M 1301.925781 262.875 L 1315.425781 262.875 L 1315.425781 267.375 L 1301.925781 267.375 Z M 1317.675781 262.875 L 1331.175781 262.875 L 1331.175781 267.375 L 1317.675781 267.375 Z M 1333.425781 262.875 L 1346.925781 262.875 L 1346.925781 267.375 L 1333.425781 267.375 Z M 1349.175781 262.875 L 1362.675781 262.875 L 1362.675781 267.375 L 1349.175781 267.375 Z M 1364.925781 262.875 L 1378.425781 262.875 L 1378.425781 267.375 L 1364.925781 267.375 Z M 1380.675781 262.875 L 1394.175781 262.875 L 1394.175781 267.375 L 1380.675781 267.375 Z M 1396.425781 262.875 L 1407.570312 262.875 C 1408.457031 262.875 1409.339844 262.925781 1410.210938 263.03125 L 1409.671875 267.5 C 1408.976562 267.414062 1408.277344 267.375 1407.570312 267.375 L 1396.425781 267.375 Z M 1412.671875 263.476562 C 1417.75 264.695312 1421.859375 267.410156 1425.003906 271.613281 L 1421.398438 274.308594 C 1418.90625 270.972656 1415.644531 268.820312 1411.621094 267.851562 Z M 1426.386719 273.707031 C 1428.34375 277.070312 1429.320312 280.710938 1429.320312 284.621094 L 1429.320312 287.890625 L 1424.820312 287.890625 L 1424.820312 284.621094 C 1424.820312 281.519531 1424.046875 278.632812 1422.496094 275.96875 Z M 1429.320312 290.140625 L 1429.320312 303.640625 L 1424.820312 303.640625 L 1424.820312 290.140625 Z M 1429.320312 305.890625 L 1429.320312 319.390625 L 1424.820312 319.390625 L 1424.820312 305.890625 Z M 1429.320312 321.640625 L 1429.320312 335.140625 L 1424.820312 335.140625 L 1424.820312 321.640625 Z M 1429.320312 337.390625 L 1429.320312 350.890625 L 1424.820312 350.890625 L 1424.820312 337.390625 Z M 1429.320312 353.140625 L 1429.320312 366.640625 L 1424.820312 366.640625 L 1424.820312 353.140625 Z M 1429.320312 368.890625 L 1429.320312 382.390625 L 1424.820312 382.390625 L 1424.820312 368.890625 Z M 1429.320312 384.640625 L 1429.320312 398.140625 L 1424.820312 398.140625 L 1424.820312 384.640625 Z M 1429.320312 400.390625 L 1429.320312 413.890625 L 1424.820312 413.890625 L 1424.820312 400.390625 Z M 1429.320312 416.140625 L 1429.320312 429.640625 L 1424.820312 429.640625 L 1424.820312 416.140625 Z M 1429.320312 431.890625 L 1429.320312 445.390625 L 1424.820312 445.390625 L 1424.820312 431.890625 Z M 1429.320312 447.640625 L 1429.320312 461.140625 L 1424.820312 461.140625 L 1424.820312 447.640625 Z M 1429.320312 463.390625 L 1429.320312 476.890625 L 1424.820312 476.890625 L 1424.820312 463.390625 Z M 1429.320312 479.140625 L 1429.320312 492.640625 L 1424.820312 492.640625 L 1424.820312 479.140625 Z M 1429.320312 494.890625 L 1429.320312 508.390625 L 1424.820312 508.390625 L 1424.820312 494.890625 Z M 1429.320312 510.640625 L 1429.320312 524.140625 L 1424.820312 524.140625 L 1424.820312 510.640625 Z M 1429.320312 526.390625 L 1429.320312 533.371094 C 1429.320312 535.835938 1428.917969 538.222656 1428.113281 540.53125 L 1423.863281 539.050781 C 1424.5 537.222656 1424.820312 535.328125 1424.820312 533.371094 L 1424.820312 526.390625 Z M 1427.152344 542.847656 C 1424.867188 547.558594 1421.347656 551 1416.585938 553.171875 L 1414.71875 549.074219 C 1418.496094 547.355469 1421.289062 544.625 1423.101562 540.886719 Z M 1414.25 554.074219 C 1412.085938 554.773438 1409.863281 555.121094 1407.570312 555.121094 L 1400.136719 555.121094 L 1400.136719 550.621094 L 1407.570312 550.621094 C 1409.390625 550.621094 1411.15625 550.34375 1412.867188 549.792969 Z M 1397.886719 555.121094 L 1384.386719 555.121094 L 1384.386719 550.621094 L 1397.886719 550.621094 Z M 1382.136719 555.121094 L 1368.636719 555.121094 L 1368.636719 550.621094 L 1382.136719 550.621094 Z M 1366.386719 555.121094 L 1352.886719 555.121094 L 1352.886719 550.621094 L 1366.386719 550.621094 Z M 1350.636719 555.121094 L 1337.136719 555.121094 L 1337.136719 550.621094 L 1350.636719 550.621094 Z M 1334.886719 555.121094 L 1321.386719 555.121094 L 1321.386719 550.621094 L 1334.886719 550.621094 Z M 1319.136719 555.121094 L 1305.636719 555.121094 L 1305.636719 550.621094 L 1319.136719 550.621094 Z M 1303.386719 555.121094 L 1289.886719 555.121094 L 1289.886719 550.621094 L 1303.386719 550.621094 Z M 1287.636719 555.121094 L 1274.136719 555.121094 L 1274.136719 550.621094 L 1287.636719 550.621094 Z M 1271.886719 555.121094 L 1258.386719 555.121094 L 1258.386719 550.621094 L 1271.886719 550.621094 Z M 1256.136719 555.121094 L 1242.636719 555.121094 L 1242.636719 550.621094 L 1256.136719 550.621094 Z M 1240.386719 555.121094 L 1226.886719 555.121094 L 1226.886719 550.621094 L 1240.386719 550.621094 Z M 1224.636719 555.121094 L 1211.136719 555.121094 L 1211.136719 550.621094 L 1224.636719 550.621094 Z M 1208.886719 555.121094 L 1195.386719 555.121094 L 1195.386719 550.621094 L 1208.886719 550.621094 Z M 1193.136719 555.121094 L 1179.636719 555.121094 L 1179.636719 550.621094 L 1193.136719 550.621094 Z M 1177.386719 555.121094 L 1163.886719 555.121094 L 1163.886719 550.621094 L 1177.386719 550.621094 Z M 1161.636719 555.121094 L 1148.136719 555.121094 L 1148.136719 550.621094 L 1161.636719 550.621094 Z M 1145.886719 555.121094 L 1132.386719 555.121094 L 1132.386719 550.621094 L 1145.886719 550.621094 Z M 1130.136719 555.121094 L 1128.675781 555.121094 C 1124.035156 555.121094 1119.832031 553.777344 1116.0625 551.09375 L 1118.675781 547.429688 C 1121.660156 549.558594 1124.996094 550.621094 1128.675781 550.621094 L 1130.136719 550.621094 Z M 1114.105469 549.519531 C 1110.210938 546.003906 1107.894531 541.664062 1107.148438 536.496094 L 1111.601562 535.855469 C 1112.191406 539.949219 1114.03125 543.390625 1117.121094 546.179688 Z M 1106.933594 533.988281 C 1106.929688 533.785156 1106.925781 533.578125 1106.925781 533.371094 L 1106.925781 520.414062 L 1111.425781 520.414062 L 1111.425781 533.371094 C 1111.425781 533.535156 1111.429688 533.699219 1111.433594 533.863281 Z M 1106.925781 518.164062 L 1106.925781 504.664062 L 1111.425781 504.664062 L 1111.425781 518.164062 Z M 1106.925781 502.414062 L 1106.925781 488.914062 L 1111.425781 488.914062 L 1111.425781 502.414062 Z M 1106.925781 486.664062 L 1106.925781 473.164062 L 1111.425781 473.164062 L 1111.425781 486.664062 Z M 1106.925781 470.914062 L 1106.925781 457.414062 L 1111.425781 457.414062 L 1111.425781 470.914062 Z M 1106.925781 455.164062 L 1106.925781 441.664062 L 1111.425781 441.664062 L 1111.425781 455.164062 Z M 1106.925781 439.414062 L 1106.925781 425.914062 L 1111.425781 425.914062 L 1111.425781 439.414062 Z M 1106.925781 423.664062 L 1106.925781 410.164062 L 1111.425781 410.164062 L 1111.425781 423.664062 Z M 1106.925781 407.914062 L 1106.925781 394.414062 L 1111.425781 394.414062 L 1111.425781 407.914062 Z M 1106.925781 392.164062 L 1106.925781 378.664062 L 1111.425781 378.664062 L 1111.425781 392.164062 Z M 1106.925781 376.414062 L 1106.925781 362.914062 L 1111.425781 362.914062 L 1111.425781 376.414062 Z M 1106.925781 360.664062 L 1106.925781 347.164062 L 1111.425781 347.164062 L 1111.425781 360.664062 Z M 1106.925781 344.914062 L 1106.925781 331.414062 L 1111.425781 331.414062 L 1111.425781 344.914062 Z M 1106.925781 329.164062 L 1106.925781 315.664062 L 1111.425781 315.664062 L 1111.425781 329.164062 Z M 1106.925781 313.414062 L 1106.925781 299.914062 L 1111.425781 299.914062 L 1111.425781 313.414062 Z M 1106.925781 297.664062 L 1106.925781 284.621094 C 1106.925781 284.449219 1106.929688 284.277344 1106.933594 284.105469 L 1111.429688 284.210938 C 1111.429688 284.347656 1111.425781 284.484375 1111.425781 284.621094 L 1111.425781 297.664062 Z M 1107.136719 281.59375 C 1107.855469 276.421875 1110.15625 272.070312 1114.035156 268.539062 L 1117.0625 271.867188 C 1113.988281 274.667969 1112.164062 278.117188 1111.59375 282.214844 Z M 1115.984375 266.957031 C 1119.769531 264.234375 1124 262.875 1128.675781 262.875 L 1142.175781 262.875 L 1142.175781 267.375 L 1128.675781 267.375 C 1124.964844 267.375 1121.613281 268.453125 1118.613281 270.609375 Z M 1115.984375 266.957031 " fill-opacity="1" fill-rule="nonzero"/></g></g><g clip-path="url(#66ab81f58b)"><g clip-path="url(#b64852b7b3)"><path fill="#545454" d="M 463.242188 370.953125 L 534.554688 370.953125 L 534.554688 442.265625 L 463.242188 442.265625 Z M 463.242188 370.953125 " fill-opacity="1" fill-rule="nonzero"/></g></g><g clip-path="url(#0fdf7c24a9)"><path fill="#000000" d="M 641.414062 305.507812 L 641.414062 369.800781 M 727.488281 305.507812 L 727.488281 369.800781 M 639.125 303.21875 L 729.777344 303.21875 M 639.125 372.089844 L 729.777344 372.089844 " fill-opacity="1" fill-rule="nonzero"/></g><g clip-path="url(#07497a1e5b)"><path stroke-linecap="butt" transform="matrix(0.75, 0, 0, 0.75, 639.124486, 300.927895)" fill="none" stroke-linejoin="miter" d="M 3.052769 6.106557 L 3.052769 91.830519 M 117.8184 6.106557 L 117.8184 91.830519 M 0.000685242 3.054473 L 120.870483 3.054473 M 0.000685242 94.882603 L 120.870483 94.882603 " stroke="#c41919" stroke-width="6.104653" stroke-opacity="1" stroke-miterlimit="4"/></g><g clip-path="url(#f244d9d348)"><g clip-path="url(#6155015511)"><path fill="#545454" d="M 126.476562 322.652344 L 156.476562 322.652344 L 156.476562 352.652344 L 126.476562 352.652344 Z M 126.476562 322.652344 " fill-opacity="1" fill-rule="nonzero"/></g></g><path stroke-linecap="butt" transform="matrix(-0.75, 0, 0, -0.75, 126.477129, 341.02849)" fill="none" stroke-linejoin="miter" d="M 0.000755946 4.501529 L 72.62576 4.501529 " stroke="#545454" stroke-width="9" stroke-opacity="1" stroke-miterlimit="4"/><path stroke-linecap="round" transform="matrix(-0.75, 0, 0, -0.75, 126.477129, 341.02849)" fill="none" stroke-linejoin="round" d="M 54.625759 -8.998472 L 72.62576 4.501529 L 54.625759 18.001529 " stroke="#545454" stroke-width="9" stroke-opacity="1" stroke-miterlimit="4"/><path stroke-linecap="butt" transform="matrix(0.0117525, 0.749908, -0.749908, 0.0117525, 145.08202, 352.603507)" fill="none" stroke-linejoin="miter" d="M -0.000199523 4.500534 L 70.638722 4.498072 " stroke="#545454" stroke-width="9" stroke-opacity="1" stroke-miterlimit="4"/><path stroke-linecap="round" transform="matrix(0.0117525, 0.749908, -0.749908, 0.0117525, 145.08202, 352.603507)" fill="none" stroke-linejoin="round" d="M 52.63968 -8.999173 L 70.638722 4.498072 L 52.638495 17.998916 " stroke="#545454" stroke-width="9" stroke-opacity="1" stroke-miterlimit="4"/><path stroke-linecap="butt" transform="matrix(0.75, 0, 0, 0.75, 156.477039, 334.27849)" fill="none" stroke-linejoin="miter" d="M -0.000635533 4.498471 L 72.134785 4.498471 " stroke="#545454" stroke-width="9" stroke-opacity="1" stroke-miterlimit="4"/><path stroke-linecap="round" transform="matrix(0.75, 0, 0, 0.75, 156.477039, 334.27849)" fill="none" stroke-linejoin="round" d="M 54.134784 -9.001529 L 72.134785 4.498471 L 54.134784 17.998472 " stroke="#545454" stroke-width="9" stroke-opacity="1" stroke-miterlimit="4"/><g fill="#737373" fill-opacity="1"><g transform="translate(1206.09176, 312.692756)"><g><path d="M 2.65625 0 L 2.65625 -21.046875 L 7.109375 -21.046875 L 7.109375 -3.6875 L 15.65625 -3.6875 L 15.65625 0 Z M 2.65625 0 "/></g></g></g><g fill="#737373" fill-opacity="1"><g transform="translate(1222.742859, 312.692756)"><g><path d="M 8.96875 -13.28125 C 8.039062 -13.28125 7.3125 -12.984375 6.78125 -12.390625 C 6.25 -11.796875 5.945312 -10.957031 5.875 -9.875 L 12.03125 -9.875 C 12.007812 -10.957031 11.722656 -11.796875 11.171875 -12.390625 C 10.628906 -12.984375 9.894531 -13.28125 8.96875 -13.28125 Z M 9.59375 0.28125 C 7 0.28125 4.972656 -0.429688 3.515625 -1.859375 C 2.054688 -3.285156 1.328125 -5.3125 1.328125 -7.9375 C 1.328125 -10.632812 2 -12.71875 3.34375 -14.1875 C 4.695312 -15.65625 6.5625 -16.390625 8.9375 -16.390625 C 11.21875 -16.390625 12.988281 -15.742188 14.25 -14.453125 C 15.519531 -13.160156 16.15625 -11.367188 16.15625 -9.078125 L 16.15625 -6.953125 L 5.765625 -6.953125 C 5.816406 -5.703125 6.1875 -4.726562 6.875 -4.03125 C 7.570312 -3.332031 8.546875 -2.984375 9.796875 -2.984375 C 10.765625 -2.984375 11.675781 -3.082031 12.53125 -3.28125 C 13.394531 -3.476562 14.300781 -3.800781 15.25 -4.25 L 15.25 -0.84375 C 14.476562 -0.46875 13.65625 -0.1875 12.78125 0 C 11.90625 0.1875 10.84375 0.28125 9.59375 0.28125 Z M 9.59375 0.28125 "/></g></g></g><g fill="#737373" fill-opacity="1"><g transform="translate(1240.156714, 312.692756)"><g><path d="M 0 -16.09375 L 4.8125 -16.09375 L 7.84375 -7.046875 C 8.101562 -6.253906 8.28125 -5.320312 8.375 -4.25 L 8.46875 -4.25 C 8.570312 -5.238281 8.773438 -6.171875 9.078125 -7.046875 L 12.0625 -16.09375 L 16.765625 -16.09375 L 9.96875 2.0625 C 9.34375 3.738281 8.453125 4.992188 7.296875 5.828125 C 6.140625 6.660156 4.785156 7.078125 3.234375 7.078125 C 2.484375 7.078125 1.738281 7 1 6.84375 L 1 3.359375 C 1.53125 3.484375 2.109375 3.546875 2.734375 3.546875 C 3.515625 3.546875 4.191406 3.304688 4.765625 2.828125 C 5.347656 2.347656 5.804688 1.628906 6.140625 0.671875 L 6.390625 -0.109375 Z M 0 -16.09375 "/></g></g></g><g fill="#737373" fill-opacity="1"><g transform="translate(1256.922946, 312.692756)"><g><path d="M 8.96875 -13.28125 C 8.039062 -13.28125 7.3125 -12.984375 6.78125 -12.390625 C 6.25 -11.796875 5.945312 -10.957031 5.875 -9.875 L 12.03125 -9.875 C 12.007812 -10.957031 11.722656 -11.796875 11.171875 -12.390625 C 10.628906 -12.984375 9.894531 -13.28125 8.96875 -13.28125 Z M 9.59375 0.28125 C 7 0.28125 4.972656 -0.429688 3.515625 -1.859375 C 2.054688 -3.285156 1.328125 -5.3125 1.328125 -7.9375 C 1.328125 -10.632812 2 -12.71875 3.34375 -14.1875 C 4.695312 -15.65625 6.5625 -16.390625 8.9375 -16.390625 C 11.21875 -16.390625 12.988281 -15.742188 14.25 -14.453125 C 15.519531 -13.160156 16.15625 -11.367188 16.15625 -9.078125 L 16.15625 -6.953125 L 5.765625 -6.953125 C 5.816406 -5.703125 6.1875 -4.726562 6.875 -4.03125 C 7.570312 -3.332031 8.546875 -2.984375 9.796875 -2.984375 C 10.765625 -2.984375 11.675781 -3.082031 12.53125 -3.28125 C 13.394531 -3.476562 14.300781 -3.800781 15.25 -4.25 L 15.25 -0.84375 C 14.476562 -0.46875 13.65625 -0.1875 12.78125 0 C 11.90625 0.1875 10.84375 0.28125 9.59375 0.28125 Z M 9.59375 0.28125 "/></g></g></g><g fill="#737373" fill-opacity="1"><g transform="translate(1274.3368, 312.692756)"><g><path d="M 17.15625 0 L 12.765625 0 L 12.765625 -9.40625 C 12.765625 -10.5625 12.554688 -11.429688 12.140625 -12.015625 C 11.734375 -12.597656 11.078125 -12.890625 10.171875 -12.890625 C 8.941406 -12.890625 8.050781 -12.476562 7.5 -11.65625 C 6.957031 -10.832031 6.6875 -9.472656 6.6875 -7.578125 L 6.6875 0 L 2.296875 0 L 2.296875 -16.09375 L 5.65625 -16.09375 L 6.25 -14.03125 L 6.5 -14.03125 C 6.988281 -14.8125 7.660156 -15.398438 8.515625 -15.796875 C 9.367188 -16.191406 10.347656 -16.390625 11.453125 -16.390625 C 13.316406 -16.390625 14.734375 -15.882812 15.703125 -14.875 C 16.671875 -13.863281 17.15625 -12.40625 17.15625 -10.5 Z M 17.15625 0 "/></g></g></g><g fill="#737373" fill-opacity="1"><g transform="translate(1293.707915, 312.692756)"><g><path d="M 7.40625 0.28125 C 5.507812 0.28125 4.019531 -0.453125 2.9375 -1.921875 C 1.863281 -3.390625 1.328125 -5.421875 1.328125 -8.015625 C 1.328125 -10.660156 1.875 -12.71875 2.96875 -14.1875 C 4.070312 -15.65625 5.585938 -16.390625 7.515625 -16.390625 C 9.535156 -16.390625 11.082031 -15.601562 12.15625 -14.03125 L 12.296875 -14.03125 C 12.078125 -15.238281 11.96875 -16.3125 11.96875 -17.25 L 11.96875 -22.40625 L 16.375 -22.40625 L 16.375 0 L 13 0 L 12.15625 -2.09375 L 11.96875 -2.09375 C 10.96875 -0.507812 9.445312 0.28125 7.40625 0.28125 Z M 8.9375 -3.203125 C 10.0625 -3.203125 10.882812 -3.53125 11.40625 -4.1875 C 11.925781 -4.84375 12.210938 -5.953125 12.265625 -7.515625 L 12.265625 -7.984375 C 12.265625 -9.710938 12 -10.953125 11.46875 -11.703125 C 10.9375 -12.453125 10.070312 -12.828125 8.875 -12.828125 C 7.894531 -12.828125 7.128906 -12.410156 6.578125 -11.578125 C 6.035156 -10.753906 5.765625 -9.550781 5.765625 -7.96875 C 5.765625 -6.375 6.039062 -5.179688 6.59375 -4.390625 C 7.144531 -3.597656 7.925781 -3.203125 8.9375 -3.203125 Z M 8.9375 -3.203125 "/></g></g></g><g fill="#737373" fill-opacity="1"><g transform="translate(1312.359448, 312.692756)"><g><path d="M 12.53125 0 L 11.671875 -2.1875 L 11.5625 -2.1875 C 10.820312 -1.257812 10.0625 -0.613281 9.28125 -0.25 C 8.5 0.101562 7.476562 0.28125 6.21875 0.28125 C 4.675781 0.28125 3.457031 -0.15625 2.5625 -1.03125 C 1.675781 -1.914062 1.234375 -3.175781 1.234375 -4.8125 C 1.234375 -6.519531 1.832031 -7.773438 3.03125 -8.578125 C 4.226562 -9.390625 6.03125 -9.84375 8.4375 -9.9375 L 11.234375 -10.015625 L 11.234375 -10.71875 C 11.234375 -12.351562 10.394531 -13.171875 8.71875 -13.171875 C 7.4375 -13.171875 5.925781 -12.78125 4.1875 -12 L 2.734375 -14.96875 C 4.585938 -15.9375 6.640625 -16.421875 8.890625 -16.421875 C 11.054688 -16.421875 12.710938 -15.953125 13.859375 -15.015625 C 15.015625 -14.078125 15.59375 -12.644531 15.59375 -10.71875 L 15.59375 0 Z M 11.234375 -7.453125 L 9.53125 -7.40625 C 8.25 -7.363281 7.296875 -7.128906 6.671875 -6.703125 C 6.054688 -6.285156 5.75 -5.644531 5.75 -4.78125 C 5.75 -3.539062 6.457031 -2.921875 7.875 -2.921875 C 8.894531 -2.921875 9.707031 -3.210938 10.3125 -3.796875 C 10.925781 -4.378906 11.234375 -5.160156 11.234375 -6.140625 Z M 11.234375 -7.453125 "/></g></g></g><g fill="#737373" fill-opacity="1"><g transform="translate(1240.021302, 382.345189)"><g><path d="M 16.65625 0 L 14.25 0 L 4.34375 -15.21875 L 4.25 -15.21875 C 4.375 -13.4375 4.4375 -11.800781 4.4375 -10.3125 L 4.4375 0 L 2.5 0 L 2.5 -18.140625 L 4.875 -18.140625 L 14.765625 -2.984375 L 14.859375 -2.984375 C 14.847656 -3.203125 14.8125 -3.914062 14.75 -5.125 C 14.6875 -6.34375 14.664062 -7.210938 14.6875 -7.734375 L 14.6875 -18.140625 L 16.65625 -18.140625 Z M 16.65625 0 "/></g></g></g><g fill="#737373" fill-opacity="1"><g transform="translate(1259.16774, 382.345189)"><g><path d="M 13.921875 -6.8125 C 13.921875 -4.59375 13.359375 -2.859375 12.234375 -1.609375 C 11.117188 -0.367188 9.578125 0.25 7.609375 0.25 C 6.398438 0.25 5.320312 -0.0351562 4.375 -0.609375 C 3.4375 -1.179688 2.707031 -2 2.1875 -3.0625 C 1.675781 -4.132812 1.421875 -5.382812 1.421875 -6.8125 C 1.421875 -9.03125 1.972656 -10.753906 3.078125 -11.984375 C 4.191406 -13.222656 5.734375 -13.84375 7.703125 -13.84375 C 9.609375 -13.84375 11.117188 -13.207031 12.234375 -11.9375 C 13.359375 -10.675781 13.921875 -8.96875 13.921875 -6.8125 Z M 3.5625 -6.8125 C 3.5625 -5.070312 3.90625 -3.742188 4.59375 -2.828125 C 5.289062 -1.921875 6.316406 -1.46875 7.671875 -1.46875 C 9.015625 -1.46875 10.035156 -1.921875 10.734375 -2.828125 C 11.429688 -3.734375 11.78125 -5.0625 11.78125 -6.8125 C 11.78125 -8.539062 11.429688 -9.851562 10.734375 -10.75 C 10.035156 -11.644531 9.003906 -12.09375 7.640625 -12.09375 C 6.296875 -12.09375 5.28125 -11.648438 4.59375 -10.765625 C 3.90625 -9.878906 3.5625 -8.5625 3.5625 -6.8125 Z M 3.5625 -6.8125 "/></g></g></g><g fill="#737373" fill-opacity="1"><g transform="translate(1274.507222, 382.345189)"><g/></g></g><g fill="#737373" fill-opacity="1"><g transform="translate(1281.104311, 382.345189)"><g><path d="M 11.4375 -1.828125 L 11.328125 -1.828125 C 10.378906 -0.441406 8.957031 0.25 7.0625 0.25 C 5.28125 0.25 3.894531 -0.359375 2.90625 -1.578125 C 1.914062 -2.796875 1.421875 -4.523438 1.421875 -6.765625 C 1.421875 -9.003906 1.914062 -10.742188 2.90625 -11.984375 C 3.90625 -13.222656 5.289062 -13.84375 7.0625 -13.84375 C 8.90625 -13.84375 10.316406 -13.171875 11.296875 -11.828125 L 11.46875 -11.828125 L 11.375 -12.8125 L 11.328125 -13.765625 L 11.328125 -19.296875 L 13.390625 -19.296875 L 13.390625 0 L 11.703125 0 Z M 7.3125 -1.46875 C 8.71875 -1.46875 9.738281 -1.847656 10.375 -2.609375 C 11.007812 -3.378906 11.328125 -4.617188 11.328125 -6.328125 L 11.328125 -6.765625 C 11.328125 -8.691406 11.003906 -10.066406 10.359375 -10.890625 C 9.722656 -11.710938 8.703125 -12.125 7.296875 -12.125 C 6.085938 -12.125 5.160156 -11.648438 4.515625 -10.703125 C 3.878906 -9.765625 3.5625 -8.441406 3.5625 -6.734375 C 3.5625 -4.992188 3.878906 -3.679688 4.515625 -2.796875 C 5.148438 -1.910156 6.082031 -1.46875 7.3125 -1.46875 Z M 7.3125 -1.46875 "/></g></g></g><g fill="#737373" fill-opacity="1"><g transform="translate(1296.667003, 382.345189)"><g><path d="M 10.546875 0 L 10.140625 -1.9375 L 10.03125 -1.9375 C 9.351562 -1.082031 8.675781 -0.503906 8 -0.203125 C 7.332031 0.0976562 6.492188 0.25 5.484375 0.25 C 4.140625 0.25 3.082031 -0.0976562 2.3125 -0.796875 C 1.550781 -1.492188 1.171875 -2.484375 1.171875 -3.765625 C 1.171875 -6.503906 3.363281 -7.941406 7.75 -8.078125 L 10.0625 -8.15625 L 10.0625 -9 C 10.0625 -10.0625 9.832031 -10.847656 9.375 -11.359375 C 8.914062 -11.867188 8.179688 -12.125 7.171875 -12.125 C 6.035156 -12.125 4.753906 -11.773438 3.328125 -11.078125 L 2.6875 -12.65625 C 3.363281 -13.019531 4.097656 -13.300781 4.890625 -13.5 C 5.691406 -13.707031 6.492188 -13.8125 7.296875 -13.8125 C 8.910156 -13.8125 10.109375 -13.453125 10.890625 -12.734375 C 11.679688 -12.015625 12.078125 -10.863281 12.078125 -9.28125 L 12.078125 0 Z M 5.890625 -1.453125 C 7.171875 -1.453125 8.175781 -1.800781 8.90625 -2.5 C 9.644531 -3.207031 10.015625 -4.191406 10.015625 -5.453125 L 10.015625 -6.6875 L 7.953125 -6.59375 C 6.316406 -6.539062 5.132812 -6.285156 4.40625 -5.828125 C 3.6875 -5.378906 3.328125 -4.679688 3.328125 -3.734375 C 3.328125 -2.992188 3.550781 -2.425781 4 -2.03125 C 4.445312 -1.644531 5.078125 -1.453125 5.890625 -1.453125 Z M 5.890625 -1.453125 "/></g></g></g><g fill="#737373" fill-opacity="1"><g transform="translate(1310.791233, 382.345189)"><g><path d="M 6.578125 -1.453125 C 6.941406 -1.453125 7.289062 -1.476562 7.625 -1.53125 C 7.96875 -1.582031 8.238281 -1.640625 8.4375 -1.703125 L 8.4375 -0.125 C 8.207031 -0.0195312 7.875 0.0664062 7.4375 0.140625 C 7.007812 0.210938 6.625 0.25 6.28125 0.25 C 3.644531 0.25 2.328125 -1.132812 2.328125 -3.90625 L 2.328125 -12 L 0.390625 -12 L 0.390625 -12.984375 L 2.328125 -13.84375 L 3.203125 -16.75 L 4.390625 -16.75 L 4.390625 -13.59375 L 8.34375 -13.59375 L 8.34375 -12 L 4.390625 -12 L 4.390625 -4 C 4.390625 -3.175781 4.582031 -2.546875 4.96875 -2.109375 C 5.363281 -1.671875 5.898438 -1.453125 6.578125 -1.453125 Z M 6.578125 -1.453125 "/></g></g></g><g fill="#737373" fill-opacity="1"><g transform="translate(1319.756837, 382.345189)"><g><path d="M 10.546875 0 L 10.140625 -1.9375 L 10.03125 -1.9375 C 9.351562 -1.082031 8.675781 -0.503906 8 -0.203125 C 7.332031 0.0976562 6.492188 0.25 5.484375 0.25 C 4.140625 0.25 3.082031 -0.0976562 2.3125 -0.796875 C 1.550781 -1.492188 1.171875 -2.484375 1.171875 -3.765625 C 1.171875 -6.503906 3.363281 -7.941406 7.75 -8.078125 L 10.0625 -8.15625 L 10.0625 -9 C 10.0625 -10.0625 9.832031 -10.847656 9.375 -11.359375 C 8.914062 -11.867188 8.179688 -12.125 7.171875 -12.125 C 6.035156 -12.125 4.753906 -11.773438 3.328125 -11.078125 L 2.6875 -12.65625 C 3.363281 -13.019531 4.097656 -13.300781 4.890625 -13.5 C 5.691406 -13.707031 6.492188 -13.8125 7.296875 -13.8125 C 8.910156 -13.8125 10.109375 -13.453125 10.890625 -12.734375 C 11.679688 -12.015625 12.078125 -10.863281 12.078125 -9.28125 L 12.078125 0 Z M 5.890625 -1.453125 C 7.171875 -1.453125 8.175781 -1.800781 8.90625 -2.5 C 9.644531 -3.207031 10.015625 -4.191406 10.015625 -5.453125 L 10.015625 -6.6875 L 7.953125 -6.59375 C 6.316406 -6.539062 5.132812 -6.285156 4.40625 -5.828125 C 3.6875 -5.378906 3.328125 -4.679688 3.328125 -3.734375 C 3.328125 -2.992188 3.550781 -2.425781 4 -2.03125 C 4.445312 -1.644531 5.078125 -1.453125 5.890625 -1.453125 Z M 5.890625 -1.453125 "/></g></g></g><g fill="#737373" fill-opacity="1"><g transform="translate(1240.021302, 520.455366)"><g><path d="M 16.65625 0 L 14.25 0 L 4.34375 -15.21875 L 4.25 -15.21875 C 4.375 -13.4375 4.4375 -11.800781 4.4375 -10.3125 L 4.4375 0 L 2.5 0 L 2.5 -18.140625 L 4.875 -18.140625 L 14.765625 -2.984375 L 14.859375 -2.984375 C 14.847656 -3.203125 14.8125 -3.914062 14.75 -5.125 C 14.6875 -6.34375 14.664062 -7.210938 14.6875 -7.734375 L 14.6875 -18.140625 L 16.65625 -18.140625 Z M 16.65625 0 "/></g></g></g><g fill="#737373" fill-opacity="1"><g transform="translate(1259.16774, 520.455366)"><g><path d="M 4.25 0 L 2.1875 0 L 2.1875 -13.59375 L 4.25 -13.59375 Z M 2.015625 -17.28125 C 2.015625 -17.75 2.128906 -18.09375 2.359375 -18.3125 C 2.585938 -18.53125 2.875 -18.640625 3.21875 -18.640625 C 3.550781 -18.640625 3.835938 -18.523438 4.078125 -18.296875 C 4.316406 -18.078125 4.4375 -17.738281 4.4375 -17.28125 C 4.4375 -16.820312 4.316406 -16.476562 4.078125 -16.25 C 3.835938 -16.019531 3.550781 -15.90625 3.21875 -15.90625 C 2.875 -15.90625 2.585938 -16.019531 2.359375 -16.25 C 2.128906 -16.476562 2.015625 -16.820312 2.015625 -17.28125 Z M 2.015625 -17.28125 "/></g></g></g><g fill="#737373" fill-opacity="1"><g transform="translate(1265.591221, 520.455366)"><g><path d="M 7.921875 0.25 C 5.910156 0.25 4.320312 -0.359375 3.15625 -1.578125 C 2 -2.804688 1.421875 -4.507812 1.421875 -6.6875 C 1.421875 -8.875 1.960938 -10.613281 3.046875 -11.90625 C 4.128906 -13.195312 5.578125 -13.84375 7.390625 -13.84375 C 9.097656 -13.84375 10.445312 -13.28125 11.4375 -12.15625 C 12.425781 -11.039062 12.921875 -9.566406 12.921875 -7.734375 L 12.921875 -6.421875 L 3.5625 -6.421875 C 3.601562 -4.828125 4.003906 -3.613281 4.765625 -2.78125 C 5.535156 -1.957031 6.613281 -1.546875 8 -1.546875 C 9.46875 -1.546875 10.914062 -1.851562 12.34375 -2.46875 L 12.34375 -0.625 C 11.613281 -0.3125 10.921875 -0.0859375 10.265625 0.046875 C 9.617188 0.179688 8.835938 0.25 7.921875 0.25 Z M 7.375 -12.125 C 6.28125 -12.125 5.40625 -11.765625 4.75 -11.046875 C 4.101562 -10.335938 3.722656 -9.351562 3.609375 -8.09375 L 10.71875 -8.09375 C 10.71875 -9.394531 10.425781 -10.390625 9.84375 -11.078125 C 9.269531 -11.773438 8.445312 -12.125 7.375 -12.125 Z M 7.375 -12.125 "/></g></g></g><g fill="#737373" fill-opacity="1"><g transform="translate(1279.839456, 520.455366)"><g><path d="M 5.15625 0 L 0 -13.59375 L 2.203125 -13.59375 L 5.140625 -5.53125 C 5.796875 -3.644531 6.179688 -2.421875 6.296875 -1.859375 L 6.40625 -1.859375 C 6.488281 -2.296875 6.769531 -3.203125 7.25 -4.578125 C 7.738281 -5.960938 8.828125 -8.96875 10.515625 -13.59375 L 12.734375 -13.59375 L 7.5625 0 Z M 5.15625 0 "/></g></g></g><g fill="#737373" fill-opacity="1"><g transform="translate(1292.562412, 520.455366)"><g><path d="M 7.921875 0.25 C 5.910156 0.25 4.320312 -0.359375 3.15625 -1.578125 C 2 -2.804688 1.421875 -4.507812 1.421875 -6.6875 C 1.421875 -8.875 1.960938 -10.613281 3.046875 -11.90625 C 4.128906 -13.195312 5.578125 -13.84375 7.390625 -13.84375 C 9.097656 -13.84375 10.445312 -13.28125 11.4375 -12.15625 C 12.425781 -11.039062 12.921875 -9.566406 12.921875 -7.734375 L 12.921875 -6.421875 L 3.5625 -6.421875 C 3.601562 -4.828125 4.003906 -3.613281 4.765625 -2.78125 C 5.535156 -1.957031 6.613281 -1.546875 8 -1.546875 C 9.46875 -1.546875 10.914062 -1.851562 12.34375 -2.46875 L 12.34375 -0.625 C 11.613281 -0.3125 10.921875 -0.0859375 10.265625 0.046875 C 9.617188 0.179688 8.835938 0.25 7.921875 0.25 Z M 7.375 -12.125 C 6.28125 -12.125 5.40625 -11.765625 4.75 -11.046875 C 4.101562 -10.335938 3.722656 -9.351562 3.609375 -8.09375 L 10.71875 -8.09375 C 10.71875 -9.394531 10.425781 -10.390625 9.84375 -11.078125 C 9.269531 -11.773438 8.445312 -12.125 7.375 -12.125 Z M 7.375 -12.125 "/></g></g></g><g fill="#737373" fill-opacity="1"><g transform="translate(1240.021302, 451.595266)"><g><path d="M 8.078125 0 L 5.96875 0 L 5.96875 -16.265625 L 0.21875 -16.265625 L 0.21875 -18.140625 L 13.8125 -18.140625 L 13.8125 -16.265625 L 8.078125 -16.265625 Z M 8.078125 0 "/></g></g></g><g fill="#737373" fill-opacity="1"><g transform="translate(1254.071128, 451.595266)"><g><path d="M 4.25 0 L 2.1875 0 L 2.1875 -13.59375 L 4.25 -13.59375 Z M 2.015625 -17.28125 C 2.015625 -17.75 2.128906 -18.09375 2.359375 -18.3125 C 2.585938 -18.53125 2.875 -18.640625 3.21875 -18.640625 C 3.550781 -18.640625 3.835938 -18.523438 4.078125 -18.296875 C 4.316406 -18.078125 4.4375 -17.738281 4.4375 -17.28125 C 4.4375 -16.820312 4.316406 -16.476562 4.078125 -16.25 C 3.835938 -16.019531 3.550781 -15.90625 3.21875 -15.90625 C 2.875 -15.90625 2.585938 -16.019531 2.359375 -16.25 C 2.128906 -16.476562 2.015625 -16.820312 2.015625 -17.28125 Z M 2.015625 -17.28125 "/></g></g></g><g fill="#737373" fill-opacity="1"><g transform="translate(1260.494609, 451.595266)"><g><path d="M 7.921875 0.25 C 5.910156 0.25 4.320312 -0.359375 3.15625 -1.578125 C 2 -2.804688 1.421875 -4.507812 1.421875 -6.6875 C 1.421875 -8.875 1.960938 -10.613281 3.046875 -11.90625 C 4.128906 -13.195312 5.578125 -13.84375 7.390625 -13.84375 C 9.097656 -13.84375 10.445312 -13.28125 11.4375 -12.15625 C 12.425781 -11.039062 12.921875 -9.566406 12.921875 -7.734375 L 12.921875 -6.421875 L 3.5625 -6.421875 C 3.601562 -4.828125 4.003906 -3.613281 4.765625 -2.78125 C 5.535156 -1.957031 6.613281 -1.546875 8 -1.546875 C 9.46875 -1.546875 10.914062 -1.851562 12.34375 -2.46875 L 12.34375 -0.625 C 11.613281 -0.3125 10.921875 -0.0859375 10.265625 0.046875 C 9.617188 0.179688 8.835938 0.25 7.921875 0.25 Z M 7.375 -12.125 C 6.28125 -12.125 5.40625 -11.765625 4.75 -11.046875 C 4.101562 -10.335938 3.722656 -9.351562 3.609375 -8.09375 L 10.71875 -8.09375 C 10.71875 -9.394531 10.425781 -10.390625 9.84375 -11.078125 C 9.269531 -11.773438 8.445312 -12.125 7.375 -12.125 Z M 7.375 -12.125 "/></g></g></g><g fill="#737373" fill-opacity="1"><g transform="translate(1274.742844, 451.595266)"><g><path d="M 8.390625 -13.84375 C 8.992188 -13.84375 9.535156 -13.796875 10.015625 -13.703125 L 9.71875 -11.78125 C 9.15625 -11.90625 8.660156 -11.96875 8.234375 -11.96875 C 7.140625 -11.96875 6.203125 -11.519531 5.421875 -10.625 C 4.640625 -9.738281 4.25 -8.628906 4.25 -7.296875 L 4.25 0 L 2.1875 0 L 2.1875 -13.59375 L 3.890625 -13.59375 L 4.125 -11.078125 L 4.21875 -11.078125 C 4.71875 -11.960938 5.320312 -12.644531 6.03125 -13.125 C 6.75 -13.601562 7.535156 -13.84375 8.390625 -13.84375 Z M 8.390625 -13.84375 "/></g></g></g><g fill="#737373" fill-opacity="1"><g transform="translate(1285.109698, 451.595266)"><g><path d="M 8.390625 -13.84375 C 8.992188 -13.84375 9.535156 -13.796875 10.015625 -13.703125 L 9.71875 -11.78125 C 9.15625 -11.90625 8.660156 -11.96875 8.234375 -11.96875 C 7.140625 -11.96875 6.203125 -11.519531 5.421875 -10.625 C 4.640625 -9.738281 4.25 -8.628906 4.25 -7.296875 L 4.25 0 L 2.1875 0 L 2.1875 -13.59375 L 3.890625 -13.59375 L 4.125 -11.078125 L 4.21875 -11.078125 C 4.71875 -11.960938 5.320312 -12.644531 6.03125 -13.125 C 6.75 -13.601562 7.535156 -13.84375 8.390625 -13.84375 Z M 8.390625 -13.84375 "/></g></g></g><g fill="#737373" fill-opacity="1"><g transform="translate(1295.476551, 451.595266)"><g><path d="M 10.546875 0 L 10.140625 -1.9375 L 10.03125 -1.9375 C 9.351562 -1.082031 8.675781 -0.503906 8 -0.203125 C 7.332031 0.0976562 6.492188 0.25 5.484375 0.25 C 4.140625 0.25 3.082031 -0.0976562 2.3125 -0.796875 C 1.550781 -1.492188 1.171875 -2.484375 1.171875 -3.765625 C 1.171875 -6.503906 3.363281 -7.941406 7.75 -8.078125 L 10.0625 -8.15625 L 10.0625 -9 C 10.0625 -10.0625 9.832031 -10.847656 9.375 -11.359375 C 8.914062 -11.867188 8.179688 -12.125 7.171875 -12.125 C 6.035156 -12.125 4.753906 -11.773438 3.328125 -11.078125 L 2.6875 -12.65625 C 3.363281 -13.019531 4.097656 -13.300781 4.890625 -13.5 C 5.691406 -13.707031 6.492188 -13.8125 7.296875 -13.8125 C 8.910156 -13.8125 10.109375 -13.453125 10.890625 -12.734375 C 11.679688 -12.015625 12.078125 -10.863281 12.078125 -9.28125 L 12.078125 0 Z M 5.890625 -1.453125 C 7.171875 -1.453125 8.175781 -1.800781 8.90625 -2.5 C 9.644531 -3.207031 10.015625 -4.191406 10.015625 -5.453125 L 10.015625 -6.6875 L 7.953125 -6.59375 C 6.316406 -6.539062 5.132812 -6.285156 4.40625 -5.828125 C 3.6875 -5.378906 3.328125 -4.679688 3.328125 -3.734375 C 3.328125 -2.992188 3.550781 -2.425781 4 -2.03125 C 4.445312 -1.644531 5.078125 -1.453125 5.890625 -1.453125 Z M 5.890625 -1.453125 "/></g></g></g><path stroke-linecap="butt" transform="matrix(1.526163, -0.000000000000004542, 0.000000000000004542, 1.526163, 270.231965, 369.821838)" fill="none" stroke-linejoin="miter" d="M -0.000980155 2.499654 L 114.468566 2.499654 " stroke="#c41919" stroke-width="5" stroke-opacity="1" stroke-miterlimit="4"/><path stroke-linecap="butt" transform="matrix(1.526163, 0, 0, 1.526163, 13.024387, 440.54371)" fill="none" stroke-linejoin="miter" d="M -0.00062231 2.500168 L 168.531169 2.500168 " stroke="#c41919" stroke-width="5" stroke-opacity="1" stroke-miterlimit="4"/><path stroke-linecap="butt" transform="matrix(0, -1.526163, 1.526163, 0, 270.221301, 448.041765)" fill="none" stroke-linejoin="miter" d="M -0.000788441 2.498982 L 47.795744 2.498982 " stroke="#c41919" stroke-width="5" stroke-opacity="1" stroke-miterlimit="4"/><path stroke-linecap="butt" transform="matrix(1.526163, -0.000000000000004542, 0.000000000000004542, 1.526163, 810.090133, 363.911838)" fill="none" stroke-linejoin="miter" d="M -0.000189834 2.499552 L 114.441202 2.499552 " stroke="#c41919" stroke-width="5" stroke-opacity="1" stroke-miterlimit="4"/><path stroke-linecap="butt" transform="matrix(1.526163, 0, 0, 1.526163, 552.94469, 434.633734)" fill="none" stroke-linejoin="miter" d="M 0.000407621 2.50005 L 168.491246 2.50005 " stroke="#c41919" stroke-width="5" stroke-opacity="1" stroke-miterlimit="4"/><path stroke-linecap="butt" transform="matrix(0, -1.526163, 1.526163, 0, 810.078589, 442.131766)" fill="none" stroke-linejoin="miter" d="M -0.000685866 2.50035 L 47.795846 2.50035 " stroke="#c41919" stroke-width="5" stroke-opacity="1" stroke-miterlimit="4"/><path stroke-linecap="butt" transform="matrix(0.573533, -0.48328, 0.48328, 0.573533, 150.77288, 325.405902)" fill="none" stroke-linejoin="miter" d="M 0.000339777 4.502865 L 98.316813 4.500668 " stroke="#545454" stroke-width="9" stroke-opacity="1" stroke-miterlimit="4"/><path stroke-linecap="round" transform="matrix(0.573533, -0.48328, 0.48328, 0.573533, 150.77288, 325.405902)" fill="none" stroke-linejoin="round" d="M 80.316442 -8.998432 L 98.316813 4.500668 L 80.315611 17.999078 " stroke="#545454" stroke-width="9" stroke-opacity="1" stroke-miterlimit="4"/><path stroke-linecap="butt" transform="matrix(-0.586734, -0.467166, 0.467166, -0.586734, 140.490249, 340.701564)" fill="none" stroke-linejoin="miter" d="M -0.00233689 4.499753 L 118.315883 4.498447 " stroke="#545454" stroke-width="9" stroke-opacity="1" stroke-miterlimit="4"/><path stroke-linecap="round" transform="matrix(-0.586734, -0.467166, 0.467166, -0.586734, 140.490249, 340.701564)" fill="none" stroke-linejoin="round" d="M 100.317928 -9.000185 L 118.315883 4.498447 L 100.316498 17.997612 " stroke="#545454" stroke-width="9" stroke-opacity="1" stroke-miterlimit="4"/><path stroke-linecap="butt" transform="matrix(-0.590191, 0.46279, -0.46279, -0.590191, 131.751621, 349.566799)" fill="none" stroke-linejoin="miter" d="M 0.000509328 4.501725 L 96.115396 4.502586 " stroke="#545454" stroke-width="9" stroke-opacity="1" stroke-miterlimit="4"/><path stroke-linecap="round" transform="matrix(-0.590191, 0.46279, -0.46279, -0.590191, 131.751621, 349.566799)" fill="none" stroke-linejoin="round" d="M 78.118085 -9.000824 L 96.115396 4.502586 L 78.112875 17.999049 " stroke="#545454" stroke-width="9" stroke-opacity="1" stroke-miterlimit="4"/><path stroke-linecap="butt" transform="matrix(0.582272, 0.472714, -0.472714, 0.582272, 155.249384, 344.489799)" fill="none" stroke-linejoin="miter" d="M -0.00165881 4.500232 L 93.601693 4.497556 " stroke="#545454" stroke-width="9" stroke-opacity="1" stroke-miterlimit="4"/><path stroke-linecap="round" transform="matrix(0.582272, 0.472714, -0.472714, 0.582272, 155.249384, 344.489799)" fill="none" stroke-linejoin="round" d="M 75.601281 -8.998076 L 93.601693 4.497556 L 75.604001 18.001954 " stroke="#545454" stroke-width="9" stroke-opacity="1" stroke-miterlimit="4"/><path stroke-linecap="butt" transform="matrix(0, -0.75, 0.75, 0, 138.100106, 337.651352)" fill="none" stroke-linejoin="miter" d="M -0.00132258 4.501943 L 97.582016 4.501943 " stroke="#545454" stroke-width="9" stroke-opacity="1" stroke-miterlimit="4"/><path stroke-linecap="round" transform="matrix(0, -0.75, 0.75, 0, 138.100106, 337.651352)" fill="none" stroke-linejoin="round" d="M 79.582015 -8.998058 L 97.582016 4.501943 L 79.582015 18.001943 " stroke="#545454" stroke-width="9" stroke-opacity="1" stroke-miterlimit="4"/></svg>