<svg xmlns="http://www.w3.org/2000/svg" xmlns:xlink="http://www.w3.org/1999/xlink" width="1920" zoomAndPan="magnify" viewBox="0 0 1440 809.999993" height="1080" preserveAspectRatio="xMidYMid meet" version="1.0"><defs><g/><clipPath id="26c36a88de"><path d="M 28 321.25 L 213 321.25 L 213 421 L 28 421 Z M 28 321.25 " clip-rule="nonzero"/></clipPath><clipPath id="e607b84efa"><path d="M 28 321.25 L 336 321.25 L 336 568 L 28 568 Z M 28 321.25 " clip-rule="nonzero"/></clipPath><clipPath id="48d02ddab9"><path d="M 27.839844 321.25 L 336.839844 321.25 L 336.839844 568 L 27.839844 568 Z M 27.839844 321.25 " clip-rule="nonzero"/></clipPath><clipPath id="dbd62d99d2"><path d="M 27.839844 321.25 L 336.839844 321.25 L 336.839844 568.75 L 27.839844 568.75 Z M 27.839844 321.25 " clip-rule="nonzero"/></clipPath><clipPath id="0b646a2956"><path d="M 413.582031 321.25 L 722 321.25 L 722 568 L 413.582031 568 Z M 413.582031 321.25 " clip-rule="nonzero"/></clipPath><clipPath id="139d4bd99c"><path d="M 536 321.25 L 722 321.25 L 722 421 L 536 421 Z M 536 321.25 " clip-rule="nonzero"/></clipPath><clipPath id="6e3a4b45a8"><path d="M 413.582031 370 L 661 370 L 661 519 L 413.582031 519 Z M 413.582031 370 " clip-rule="nonzero"/></clipPath><clipPath id="0bb5959a4d"><path d="M 413.582031 321.25 L 722.582031 321.25 L 722.582031 568 L 413.582031 568 Z M 413.582031 321.25 " clip-rule="nonzero"/></clipPath><clipPath id="9ab5c9357a"><path d="M 413.582031 321.25 L 722.582031 321.25 L 722.582031 568.75 L 413.582031 568.75 Z M 413.582031 321.25 " clip-rule="nonzero"/></clipPath><clipPath id="1b074ce352"><path d="M 799.421875 321.25 L 1108 321.25 L 1108 421 L 799.421875 421 Z M 799.421875 321.25 " clip-rule="nonzero"/></clipPath><clipPath id="0b9a807961"><path d="M 799.421875 370 L 1047 370 L 1047 519 L 799.421875 519 Z M 799.421875 370 " clip-rule="nonzero"/></clipPath><clipPath id="fabc84f639"><path d="M 799.421875 370 L 1108 370 L 1108 568 L 799.421875 568 Z M 799.421875 370 " clip-rule="nonzero"/></clipPath><clipPath id="f316e00847"><path d="M 799.421875 321.25 L 1108 321.25 L 1108 568 L 799.421875 568 Z M 799.421875 321.25 " clip-rule="nonzero"/></clipPath><clipPath id="d931df8a59"><path d="M 799.421875 321.25 L 1108.421875 321.25 L 1108.421875 568.75 L 799.421875 568.75 Z M 799.421875 321.25 " clip-rule="nonzero"/></clipPath><clipPath id="6ca6cdc310"><path d="M 361.417969 431.242188 L 388.417969 431.242188 L 388.417969 458.242188 L 361.417969 458.242188 Z M 361.417969 431.242188 " clip-rule="nonzero"/></clipPath><clipPath id="13ee9e54e0"><path d="M 743.386719 444.761719 L 777.886719 444.761719 L 777.886719 452 L 743.386719 452 Z M 743.386719 444.761719 " clip-rule="nonzero"/></clipPath><clipPath id="8832762872"><path d="M 743.386719 458 L 777.886719 458 L 777.886719 465.761719 L 743.386719 465.761719 Z M 743.386719 458 " clip-rule="nonzero"/></clipPath><clipPath id="1ef21730e8"><path d="M 1225.722656 415.738281 L 1260.972656 415.738281 L 1260.972656 449 L 1225.722656 449 Z M 1225.722656 415.738281 " clip-rule="nonzero"/></clipPath><clipPath id="a4f83d7609"><path d="M 1225.722656 416 L 1260.972656 416 L 1260.972656 449 L 1225.722656 449 Z M 1225.722656 416 " clip-rule="nonzero"/></clipPath><clipPath id="0fea80c170"><path d="M 1225.722656 415.738281 L 1260.972656 415.738281 L 1260.972656 449.488281 L 1225.722656 449.488281 Z M 1225.722656 415.738281 " clip-rule="nonzero"/></clipPath><clipPath id="17c476e490"><path d="M 1225.722656 465 L 1260.972656 465 L 1260.972656 498.726562 L 1225.722656 498.726562 Z M 1225.722656 465 " clip-rule="nonzero"/></clipPath><clipPath id="c67a58d21d"><path d="M 1225.722656 465 L 1260.972656 465 L 1260.972656 498 L 1225.722656 498 Z M 1225.722656 465 " clip-rule="nonzero"/></clipPath><clipPath id="44af51a483"><path d="M 1225.722656 464.976562 L 1260.972656 464.976562 L 1260.972656 498.726562 L 1225.722656 498.726562 Z M 1225.722656 464.976562 " clip-rule="nonzero"/></clipPath><clipPath id="cd6a6f2a14"><path d="M 1225.722656 514.152344 L 1260.972656 514.152344 L 1260.972656 547.902344 L 1225.722656 547.902344 Z M 1225.722656 514.152344 " clip-rule="nonzero"/></clipPath><clipPath id="bcce471788"><path d="M 1185.125 355.53125 L 1412.375 355.53125 L 1412.375 561.03125 L 1185.125 561.03125 Z M 1185.125 355.53125 " clip-rule="nonzero"/></clipPath><clipPath id="3cdce59271"><path d="M 1204.625 355.53125 L 1392.652344 355.53125 C 1397.824219 355.53125 1402.785156 357.585938 1406.441406 361.242188 C 1410.097656 364.898438 1412.152344 369.859375 1412.152344 375.03125 L 1412.152344 541.53125 C 1412.152344 546.703125 1410.097656 551.660156 1406.441406 555.316406 C 1402.785156 558.976562 1397.824219 561.027344 1392.652344 561.027344 L 1204.625 561.027344 C 1199.453125 561.027344 1194.492188 558.976562 1190.835938 555.316406 C 1187.179688 551.660156 1185.125 546.703125 1185.125 541.53125 L 1185.125 375.03125 C 1185.125 369.859375 1187.179688 364.898438 1190.835938 361.242188 C 1194.492188 357.585938 1199.453125 355.53125 1204.625 355.53125 Z M 1204.625 355.53125 " clip-rule="nonzero"/></clipPath></defs><g clip-path="url(#26c36a88de)"><path fill="#93d3d9" d="M 28.195312 321.609375 L 28.195312 371.171875 L 90.042969 371.171875 L 90.042969 321.609375 Z M 89.667969 321.609375 L 89.667969 371.171875 L 151.515625 371.171875 L 151.515625 321.609375 Z M 151.140625 321.609375 L 151.140625 371.171875 L 212.988281 371.171875 L 212.988281 321.609375 Z M 28.195312 370.796875 L 28.195312 420.355469 L 90.042969 420.355469 L 90.042969 370.796875 Z M 89.667969 370.796875 L 89.667969 420.355469 L 151.515625 420.355469 L 151.515625 370.796875 Z M 151.140625 370.796875 L 151.140625 420.355469 L 212.988281 420.355469 L 212.988281 370.796875 Z M 151.140625 370.796875 " fill-opacity="1" fill-rule="nonzero"/></g><g clip-path="url(#e607b84efa)"><path fill="#a6a6a6" d="M 212.613281 321.609375 L 212.613281 371.171875 L 274.460938 371.171875 L 274.460938 321.609375 Z M 274.085938 321.609375 L 274.085938 371.171875 L 335.933594 371.171875 L 335.933594 321.609375 Z M 274.085938 370.796875 L 274.085938 420.355469 L 335.933594 420.355469 L 335.933594 370.796875 Z M 212.613281 419.980469 L 212.613281 469.542969 L 274.460938 469.542969 L 274.460938 419.980469 Z M 274.085938 419.980469 L 274.085938 469.542969 L 335.933594 469.542969 L 335.933594 419.980469 Z M 28.195312 469.167969 L 28.195312 518.730469 L 90.042969 518.730469 L 90.042969 469.167969 Z M 89.667969 469.167969 L 89.667969 518.730469 L 151.515625 518.730469 L 151.515625 469.167969 Z M 274.085938 469.167969 L 274.085938 518.730469 L 335.933594 518.730469 L 335.933594 469.167969 Z M 28.195312 518.355469 L 28.195312 567.917969 L 90.042969 567.917969 L 90.042969 518.355469 Z M 89.667969 518.355469 L 89.667969 567.917969 L 151.515625 567.917969 L 151.515625 518.355469 Z M 151.140625 518.355469 L 151.140625 567.917969 L 212.988281 567.917969 L 212.988281 518.355469 Z M 212.613281 518.355469 L 212.613281 567.917969 L 274.460938 567.917969 L 274.460938 518.355469 Z M 274.085938 518.355469 L 274.085938 567.917969 L 335.933594 567.917969 L 335.933594 518.355469 Z M 274.085938 518.355469 " fill-opacity="1" fill-rule="nonzero"/></g><path fill="#8ecb4e" d="M 212.613281 370.796875 L 212.613281 420.355469 L 274.460938 420.355469 L 274.460938 370.796875 Z M 28.195312 419.980469 L 28.195312 469.542969 L 90.042969 469.542969 L 90.042969 419.980469 Z M 89.667969 419.980469 L 89.667969 469.542969 L 151.515625 469.542969 L 151.515625 419.980469 Z M 151.140625 419.980469 L 151.140625 469.542969 L 212.988281 469.542969 L 212.988281 419.980469 Z M 151.140625 469.167969 L 151.140625 518.730469 L 212.988281 518.730469 L 212.988281 469.167969 Z M 212.613281 469.167969 L 212.613281 518.730469 L 274.460938 518.730469 L 274.460938 469.167969 Z M 212.613281 469.167969 " fill-opacity="1" fill-rule="nonzero"/><g clip-path="url(#48d02ddab9)"><path fill="#000000" d="M 28.382812 322.339844 L 28.382812 567.183594 M 89.855469 322.339844 L 89.855469 567.183594 M 151.328125 322.339844 L 151.328125 567.183594 M 212.800781 322.339844 L 212.800781 567.183594 M 274.273438 322.339844 L 274.273438 567.183594 M 335.746094 322.339844 L 335.746094 567.183594 M 27.839844 321.796875 L 336.292969 321.796875 M 27.839844 370.984375 L 336.292969 370.984375 M 27.839844 420.167969 L 336.292969 420.167969 M 27.839844 469.355469 L 336.292969 469.355469 M 27.839844 518.542969 L 336.292969 518.542969 M 27.839844 567.730469 L 336.292969 567.730469 " fill-opacity="1" fill-rule="nonzero"/></g><g clip-path="url(#dbd62d99d2)"><path stroke-linecap="butt" transform="matrix(0.75, 0, 0, 0.75, 27.838456, 321.250845)" fill="none" stroke-linejoin="miter" d="M 0.725809 1.451999 L 0.725809 327.910349 M 82.689355 1.451999 L 82.689355 327.910349 M 164.6529 1.451999 L 164.6529 327.910349 M 246.616446 1.451999 L 246.616446 327.910349 M 328.579992 1.451999 L 328.579992 327.910349 M 410.543538 1.451999 L 410.543538 327.910349 M 0.00185052 0.728041 L 411.272705 0.728041 M 0.00185052 66.311377 L 411.272705 66.311377 M 0.00185052 131.889505 L 411.272705 131.889505 M 0.00185052 197.472842 L 411.272705 197.472842 M 0.00185052 263.056179 L 411.272705 263.056179 M 0.00185052 328.639515 L 411.272705 328.639515 " stroke="#ffffff" stroke-width="1.453254" stroke-opacity="1" stroke-miterlimit="4"/></g><g clip-path="url(#0b646a2956)"><path fill="#a6a6a6" d="M 413.941406 321.609375 L 413.941406 371.171875 L 475.789062 371.171875 L 475.789062 321.609375 Z M 475.414062 321.609375 L 475.414062 371.171875 L 537.261719 371.171875 L 537.261719 321.609375 Z M 413.941406 370.796875 L 413.941406 420.355469 L 475.789062 420.355469 L 475.789062 370.796875 Z M 475.414062 370.796875 L 475.414062 420.355469 L 537.261719 420.355469 L 537.261719 370.796875 Z M 659.832031 370.796875 L 659.832031 420.355469 L 721.679688 420.355469 L 721.679688 370.796875 Z M 659.832031 419.980469 L 659.832031 469.542969 L 721.679688 469.542969 L 721.679688 419.980469 Z M 659.832031 469.167969 L 659.832031 518.730469 L 721.679688 518.730469 L 721.679688 469.167969 Z M 413.941406 518.355469 L 413.941406 567.917969 L 475.789062 567.917969 L 475.789062 518.355469 Z M 475.414062 518.355469 L 475.414062 567.917969 L 537.261719 567.917969 L 537.261719 518.355469 Z M 536.886719 518.355469 L 536.886719 567.917969 L 598.734375 567.917969 L 598.734375 518.355469 Z M 598.359375 518.355469 L 598.359375 567.917969 L 660.207031 567.917969 L 660.207031 518.355469 Z M 659.832031 518.355469 L 659.832031 567.917969 L 721.679688 567.917969 L 721.679688 518.355469 Z M 659.832031 518.355469 " fill-opacity="1" fill-rule="nonzero"/></g><g clip-path="url(#139d4bd99c)"><path fill="#93d3d9" d="M 536.886719 321.609375 L 536.886719 371.171875 L 598.734375 371.171875 L 598.734375 321.609375 Z M 598.359375 321.609375 L 598.359375 371.171875 L 660.207031 371.171875 L 660.207031 321.609375 Z M 659.832031 321.609375 L 659.832031 371.171875 L 721.679688 371.171875 L 721.679688 321.609375 Z M 536.886719 370.796875 L 536.886719 420.355469 L 598.734375 420.355469 L 598.734375 370.796875 Z M 536.886719 370.796875 " fill-opacity="1" fill-rule="nonzero"/></g><g clip-path="url(#6e3a4b45a8)"><path fill="#8ecb4e" d="M 598.359375 370.796875 L 598.359375 420.355469 L 660.207031 420.355469 L 660.207031 370.796875 Z M 413.941406 419.980469 L 413.941406 469.542969 L 475.789062 469.542969 L 475.789062 419.980469 Z M 475.414062 419.980469 L 475.414062 469.542969 L 537.261719 469.542969 L 537.261719 419.980469 Z M 536.886719 419.980469 L 536.886719 469.542969 L 598.734375 469.542969 L 598.734375 419.980469 Z M 598.359375 419.980469 L 598.359375 469.542969 L 660.207031 469.542969 L 660.207031 419.980469 Z M 413.941406 469.167969 L 413.941406 518.730469 L 475.789062 518.730469 L 475.789062 469.167969 Z M 475.414062 469.167969 L 475.414062 518.730469 L 537.261719 518.730469 L 537.261719 469.167969 Z M 536.886719 469.167969 L 536.886719 518.730469 L 598.734375 518.730469 L 598.734375 469.167969 Z M 598.359375 469.167969 L 598.359375 518.730469 L 660.207031 518.730469 L 660.207031 469.167969 Z M 598.359375 469.167969 " fill-opacity="1" fill-rule="nonzero"/></g><g clip-path="url(#0bb5959a4d)"><path fill="#000000" d="M 414.128906 322.339844 L 414.128906 567.183594 M 475.601562 322.339844 L 475.601562 567.183594 M 537.074219 322.339844 L 537.074219 567.183594 M 598.546875 322.339844 L 598.546875 567.183594 M 660.019531 322.339844 L 660.019531 567.183594 M 721.492188 322.339844 L 721.492188 567.183594 M 413.582031 321.796875 L 722.035156 321.796875 M 413.582031 370.984375 L 722.035156 370.984375 M 413.582031 420.167969 L 722.035156 420.167969 M 413.582031 469.355469 L 722.035156 469.355469 M 413.582031 518.542969 L 722.035156 518.542969 M 413.582031 567.730469 L 722.035156 567.730469 " fill-opacity="1" fill-rule="nonzero"/></g><g clip-path="url(#9ab5c9357a)"><path stroke-linecap="butt" transform="matrix(0.75, 0, 0, 0.75, 413.582241, 321.250845)" fill="none" stroke-linejoin="miter" d="M 0.728886 1.451999 L 0.728886 327.910349 M 82.692432 1.451999 L 82.692432 327.910349 M 164.655978 1.451999 L 164.655978 327.910349 M 246.619524 1.451999 L 246.619524 327.910349 M 328.58307 1.451999 L 328.58307 327.910349 M 410.546615 1.451999 L 410.546615 327.910349 M -0.000280221 0.728041 L 411.270574 0.728041 M -0.000280221 66.311377 L 411.270574 66.311377 M -0.000280221 131.889505 L 411.270574 131.889505 M -0.000280221 197.472842 L 411.270574 197.472842 M -0.000280221 263.056179 L 411.270574 263.056179 M -0.000280221 328.639515 L 411.270574 328.639515 " stroke="#ffffff" stroke-width="1.453254" stroke-opacity="1" stroke-miterlimit="4"/></g><g clip-path="url(#1b074ce352)"><path fill="#93d3d9" d="M 799.777344 321.609375 L 799.777344 371.171875 L 861.625 371.171875 L 861.625 321.609375 Z M 861.25 321.609375 L 861.25 371.171875 L 923.097656 371.171875 L 923.097656 321.609375 Z M 922.722656 321.609375 L 922.722656 371.171875 L 984.570312 371.171875 L 984.570312 321.609375 Z M 984.195312 321.609375 L 984.195312 371.171875 L 1046.042969 371.171875 L 1046.042969 321.609375 Z M 1045.667969 321.609375 L 1045.667969 371.171875 L 1107.515625 371.171875 L 1107.515625 321.609375 Z M 799.777344 370.796875 L 799.777344 420.355469 L 861.625 420.355469 L 861.625 370.796875 Z M 861.25 370.796875 L 861.25 420.355469 L 923.097656 420.355469 L 923.097656 370.796875 Z M 922.722656 370.796875 L 922.722656 420.355469 L 984.570312 420.355469 L 984.570312 370.796875 Z M 922.722656 370.796875 " fill-opacity="1" fill-rule="nonzero"/></g><g clip-path="url(#0b9a807961)"><path fill="#8ecb4e" d="M 984.195312 370.796875 L 984.195312 420.355469 L 1046.042969 420.355469 L 1046.042969 370.796875 Z M 799.777344 419.980469 L 799.777344 469.542969 L 861.625 469.542969 L 861.625 419.980469 Z M 861.25 419.980469 L 861.25 469.542969 L 923.097656 469.542969 L 923.097656 419.980469 Z M 922.722656 419.980469 L 922.722656 469.542969 L 984.570312 469.542969 L 984.570312 419.980469 Z M 984.195312 419.980469 L 984.195312 469.542969 L 1046.042969 469.542969 L 1046.042969 419.980469 Z M 799.777344 469.167969 L 799.777344 518.730469 L 861.625 518.730469 L 861.625 469.167969 Z M 861.25 469.167969 L 861.25 518.730469 L 923.097656 518.730469 L 923.097656 469.167969 Z M 922.722656 469.167969 L 922.722656 518.730469 L 984.570312 518.730469 L 984.570312 469.167969 Z M 984.195312 469.167969 L 984.195312 518.730469 L 1046.042969 518.730469 L 1046.042969 469.167969 Z M 984.195312 469.167969 " fill-opacity="1" fill-rule="nonzero"/></g><g clip-path="url(#fabc84f639)"><path fill="#a6a6a6" d="M 1045.667969 370.796875 L 1045.667969 420.355469 L 1107.515625 420.355469 L 1107.515625 370.796875 Z M 1045.667969 419.980469 L 1045.667969 469.542969 L 1107.515625 469.542969 L 1107.515625 419.980469 Z M 1045.667969 469.167969 L 1045.667969 518.730469 L 1107.515625 518.730469 L 1107.515625 469.167969 Z M 799.777344 518.355469 L 799.777344 567.917969 L 861.625 567.917969 L 861.625 518.355469 Z M 861.25 518.355469 L 861.25 567.917969 L 923.097656 567.917969 L 923.097656 518.355469 Z M 922.722656 518.355469 L 922.722656 567.917969 L 984.570312 567.917969 L 984.570312 518.355469 Z M 984.195312 518.355469 L 984.195312 567.917969 L 1046.042969 567.917969 L 1046.042969 518.355469 Z M 1045.667969 518.355469 L 1045.667969 567.917969 L 1107.515625 567.917969 L 1107.515625 518.355469 Z M 1045.667969 518.355469 " fill-opacity="1" fill-rule="nonzero"/></g><g clip-path="url(#f316e00847)"><path fill="#000000" d="M 799.964844 322.339844 L 799.964844 567.183594 M 861.4375 322.339844 L 861.4375 567.183594 M 922.910156 322.339844 L 922.910156 567.183594 M 984.382812 322.339844 L 984.382812 567.183594 M 1045.855469 322.339844 L 1045.855469 567.183594 M 1107.328125 322.339844 L 1107.328125 567.183594 M 799.421875 321.796875 L 1107.875 321.796875 M 799.421875 370.984375 L 1107.875 370.984375 M 799.421875 420.167969 L 1107.875 420.167969 M 799.421875 469.355469 L 1107.875 469.355469 M 799.421875 518.542969 L 1107.875 518.542969 M 799.421875 567.730469 L 1107.875 567.730469 " fill-opacity="1" fill-rule="nonzero"/></g><g clip-path="url(#d931df8a59)"><path stroke-linecap="butt" transform="matrix(0.75, 0, 0, 0.75, 799.42103, 321.250845)" fill="none" stroke-linejoin="miter" d="M 0.725085 1.451999 L 0.725085 327.910349 M 82.688631 1.451999 L 82.688631 327.910349 M 164.652177 1.451999 L 164.652177 327.910349 M 246.615722 1.451999 L 246.615722 327.910349 M 328.579268 1.451999 L 328.579268 327.910349 M 410.542814 1.451999 L 410.542814 327.910349 M 0.00112666 0.728041 L 411.271981 0.728041 M 0.00112666 66.311377 L 411.271981 66.311377 M 0.00112666 131.889505 L 411.271981 131.889505 M 0.00112666 197.472842 L 411.271981 197.472842 M 0.00112666 263.056179 L 411.271981 263.056179 M 0.00112666 328.639515 L 411.271981 328.639515 " stroke="#ffffff" stroke-width="1.453254" stroke-opacity="1" stroke-miterlimit="4"/></g><g clip-path="url(#6ca6cdc310)"><path fill="#545454" d="M 379.128906 441.03125 C 378.871094 441.03125 378.664062 440.820312 378.664062 440.566406 C 378.664062 440.566406 378.664062 432.652344 378.664062 432.652344 C 378.664062 431.878906 378.035156 431.253906 377.265625 431.253906 L 372.601562 431.253906 C 371.832031 431.253906 371.203125 431.878906 371.203125 432.652344 L 371.203125 440.566406 C 371.203125 440.820312 370.996094 441.03125 370.738281 441.03125 C 370.738281 441.03125 362.824219 441.03125 362.824219 441.03125 C 362.054688 441.03125 361.425781 441.65625 361.425781 442.429688 L 361.425781 447.089844 C 361.425781 447.863281 362.054688 448.488281 362.824219 448.488281 L 370.738281 448.488281 C 370.996094 448.488281 371.203125 448.699219 371.203125 448.953125 C 371.203125 448.953125 371.203125 456.867188 371.203125 456.867188 C 371.203125 457.640625 371.832031 458.265625 372.601562 458.265625 L 377.265625 458.265625 C 378.035156 458.265625 378.664062 457.640625 378.664062 456.867188 L 378.664062 448.953125 C 378.664062 448.699219 378.871094 448.488281 379.128906 448.488281 C 379.128906 448.488281 387.042969 448.488281 387.042969 448.488281 C 387.8125 448.488281 388.441406 447.863281 388.441406 447.089844 L 388.441406 442.429688 C 388.441406 441.65625 387.8125 441.03125 387.042969 441.03125 Z M 379.128906 441.03125 " fill-opacity="1" fill-rule="evenodd"/></g><g clip-path="url(#13ee9e54e0)"><path fill="#545454" d="M 776.324219 451.695312 L 745.121094 451.695312 C 744.082031 451.695312 743.390625 451.003906 743.390625 449.964844 L 743.390625 446.496094 C 743.390625 445.457031 744.082031 444.761719 745.121094 444.761719 L 776.324219 444.761719 C 777.363281 444.761719 778.058594 445.457031 778.058594 446.496094 L 778.058594 449.964844 C 778.058594 451.003906 777.363281 451.695312 776.324219 451.695312 Z M 776.324219 451.695312 " fill-opacity="1" fill-rule="nonzero"/></g><g clip-path="url(#8832762872)"><path fill="#545454" d="M 776.324219 465.5625 L 745.121094 465.5625 C 744.082031 465.5625 743.390625 464.871094 743.390625 463.832031 L 743.390625 460.363281 C 743.390625 459.324219 744.082031 458.628906 745.121094 458.628906 L 776.324219 458.628906 C 777.363281 458.628906 778.058594 459.324219 778.058594 460.363281 L 778.058594 463.832031 C 778.058594 464.871094 777.363281 465.5625 776.324219 465.5625 Z M 776.324219 465.5625 " fill-opacity="1" fill-rule="nonzero"/></g><g clip-path="url(#1ef21730e8)"><path fill="#a6a6a6" d="M 1225.914062 415.929688 L 1225.914062 448.835938 L 1260.101562 448.835938 L 1260.101562 415.929688 Z M 1225.914062 415.929688 " fill-opacity="1" fill-rule="nonzero"/></g><g clip-path="url(#a4f83d7609)"><path fill="#000000" d="M 1226.101562 416.492188 L 1226.101562 448.269531 M 1259.914062 416.492188 L 1259.914062 448.269531 M 1225.722656 416.117188 L 1260.292969 416.117188 M 1225.722656 448.648438 L 1260.292969 448.648438 " fill-opacity="1" fill-rule="nonzero"/></g><g clip-path="url(#0fea80c170)"><path stroke-linecap="butt" transform="matrix(0.75, 0, 0, 0.75, 1225.723649, 415.737215)" fill="none" stroke-linejoin="miter" d="M 0.503885 1.00663 L 0.503885 43.376424 M 45.587221 1.00663 L 45.587221 43.376424 M -0.00132308 0.50663 L 46.092429 0.50663 M -0.00132308 43.881632 L 46.092429 43.881632 " stroke="#ffffff" stroke-width="1.008776" stroke-opacity="1" stroke-miterlimit="4"/></g><g clip-path="url(#17c476e490)"><path fill="#8ecb4e" d="M 1225.914062 465.167969 L 1225.914062 498.074219 L 1260.101562 498.074219 L 1260.101562 465.167969 Z M 1225.914062 465.167969 " fill-opacity="1" fill-rule="nonzero"/></g><g clip-path="url(#c67a58d21d)"><path fill="#000000" d="M 1226.101562 465.730469 L 1226.101562 497.507812 M 1259.914062 465.730469 L 1259.914062 497.507812 M 1225.722656 465.355469 L 1260.292969 465.355469 M 1225.722656 497.886719 L 1260.292969 497.886719 " fill-opacity="1" fill-rule="nonzero"/></g><g clip-path="url(#44af51a483)"><path stroke-linecap="butt" transform="matrix(0.75, 0, 0, 0.75, 1225.723649, 464.975829)" fill="none" stroke-linejoin="miter" d="M 0.503885 1.006187 L 0.503885 43.375981 M 45.587221 1.006187 L 45.587221 43.375981 M -0.00132308 0.506187 L 46.092429 0.506187 M -0.00132308 43.881189 L 46.092429 43.881189 " stroke="#ffffff" stroke-width="1.008776" stroke-opacity="1" stroke-miterlimit="4"/></g><g clip-path="url(#cd6a6f2a14)"><path fill="#93d3d9" d="M 1225.914062 514.34375 L 1225.914062 547.253906 L 1260.101562 547.253906 L 1260.101562 514.34375 Z M 1225.914062 514.34375 " fill-opacity="1" fill-rule="nonzero"/><path stroke-linecap="butt" transform="matrix(0.75, 0, 0, 0.75, 1225.723649, 514.15365)" fill-opacity="1" fill="#000000" fill-rule="nonzero" stroke-linejoin="miter" d="M 0.503885 1.008675 L 0.503885 43.378469 M 45.587221 1.008675 L 45.587221 43.378469 M -0.00132308 0.503467 L 46.092429 0.503467 M -0.00132308 43.883677 L 46.092429 43.883677 " stroke="#ffffff" stroke-width="1.008776" stroke-opacity="1" stroke-miterlimit="4"/></g><g clip-path="url(#bcce471788)"><g clip-path="url(#3cdce59271)"><path fill="#a6a6a6" d="M 1220.375 353.28125 L 1233.875 353.28125 L 1233.875 357.78125 L 1220.375 357.78125 Z M 1236.125 353.28125 L 1249.625 353.28125 L 1249.625 357.78125 L 1236.125 357.78125 Z M 1251.875 353.28125 L 1265.375 353.28125 L 1265.375 357.78125 L 1251.875 357.78125 Z M 1267.625 353.28125 L 1281.125 353.28125 L 1281.125 357.78125 L 1267.625 357.78125 Z M 1283.375 353.28125 L 1296.875 353.28125 L 1296.875 357.78125 L 1283.375 357.78125 Z M 1299.125 353.28125 L 1312.625 353.28125 L 1312.625 357.78125 L 1299.125 357.78125 Z M 1314.875 353.28125 L 1328.375 353.28125 L 1328.375 357.78125 L 1314.875 357.78125 Z M 1330.625 353.28125 L 1344.125 353.28125 L 1344.125 357.78125 L 1330.625 357.78125 Z M 1346.375 353.28125 L 1359.875 353.28125 L 1359.875 357.78125 L 1346.375 357.78125 Z M 1362.125 353.28125 L 1375.625 353.28125 L 1375.625 357.78125 L 1362.125 357.78125 Z M 1377.875 353.28125 L 1391.375 353.28125 L 1391.375 357.78125 L 1377.875 357.78125 Z M 1393.742188 353.308594 C 1398.972656 353.570312 1403.511719 355.472656 1407.367188 359.015625 L 1404.320312 362.328125 C 1401.265625 359.519531 1397.664062 358.011719 1393.515625 357.804688 Z M 1409.125 360.828125 C 1412.542969 364.792969 1414.300781 369.390625 1414.398438 374.625 L 1409.898438 374.710938 C 1409.820312 370.558594 1408.425781 366.910156 1405.714844 363.765625 Z M 1414.402344 376.921875 L 1414.402344 390.421875 L 1409.902344 390.421875 L 1409.902344 376.921875 Z M 1414.402344 392.671875 L 1414.402344 406.171875 L 1409.902344 406.171875 L 1409.902344 392.671875 Z M 1414.402344 408.421875 L 1414.402344 421.921875 L 1409.902344 421.921875 L 1409.902344 408.421875 Z M 1414.402344 424.171875 L 1414.402344 437.671875 L 1409.902344 437.671875 L 1409.902344 424.171875 Z M 1414.402344 439.921875 L 1414.402344 453.421875 L 1409.902344 453.421875 L 1409.902344 439.921875 Z M 1414.402344 455.671875 L 1414.402344 469.171875 L 1409.902344 469.171875 L 1409.902344 455.671875 Z M 1414.402344 471.421875 L 1414.402344 484.921875 L 1409.902344 484.921875 L 1409.902344 471.421875 Z M 1414.402344 487.171875 L 1414.402344 500.671875 L 1409.902344 500.671875 L 1409.902344 487.171875 Z M 1414.402344 502.921875 L 1414.402344 516.421875 L 1409.902344 516.421875 L 1409.902344 502.921875 Z M 1414.402344 518.671875 L 1414.402344 532.171875 L 1409.902344 532.171875 L 1409.902344 518.671875 Z M 1414.402344 534.421875 L 1414.402344 541.53125 C 1414.402344 543.933594 1414.015625 546.269531 1413.238281 548.542969 L 1408.980469 547.09375 C 1409.59375 545.289062 1409.902344 543.433594 1409.902344 541.53125 L 1409.902344 534.421875 Z M 1412.292969 550.867188 C 1411.222656 553.128906 1409.800781 555.140625 1408.03125 556.910156 C 1406.207031 558.730469 1404.125 560.183594 1401.785156 561.269531 L 1399.898438 557.183594 C 1401.753906 556.324219 1403.402344 555.171875 1404.847656 553.726562 C 1406.253906 552.324219 1407.378906 550.726562 1408.230469 548.9375 Z M 1399.453125 562.1875 C 1397.246094 562.914062 1394.976562 563.277344 1392.652344 563.277344 L 1385.339844 563.277344 L 1385.339844 558.777344 L 1392.652344 558.777344 C 1394.496094 558.777344 1396.292969 558.492188 1398.046875 557.914062 Z M 1383.089844 563.277344 L 1369.589844 563.277344 L 1369.589844 558.777344 L 1383.089844 558.777344 Z M 1367.339844 563.277344 L 1353.839844 563.277344 L 1353.839844 558.777344 L 1367.339844 558.777344 Z M 1351.589844 563.277344 L 1338.089844 563.277344 L 1338.089844 558.777344 L 1351.589844 558.777344 Z M 1335.839844 563.277344 L 1322.339844 563.277344 L 1322.339844 558.777344 L 1335.839844 558.777344 Z M 1320.089844 563.277344 L 1306.589844 563.277344 L 1306.589844 558.777344 L 1320.089844 558.777344 Z M 1304.339844 563.277344 L 1290.839844 563.277344 L 1290.839844 558.777344 L 1304.339844 558.777344 Z M 1288.589844 563.277344 L 1275.089844 563.277344 L 1275.089844 558.777344 L 1288.589844 558.777344 Z M 1272.839844 563.277344 L 1259.339844 563.277344 L 1259.339844 558.777344 L 1272.839844 558.777344 Z M 1257.089844 563.277344 L 1243.589844 563.277344 L 1243.589844 558.777344 L 1257.089844 558.777344 Z M 1241.339844 563.277344 L 1227.839844 563.277344 L 1227.839844 558.777344 L 1241.339844 558.777344 Z M 1225.589844 563.277344 L 1212.089844 563.277344 L 1212.089844 558.777344 L 1225.589844 558.777344 Z M 1209.839844 563.277344 L 1204.625 563.277344 C 1201.492188 563.277344 1198.5 562.632812 1195.648438 561.339844 L 1197.503906 557.242188 C 1199.765625 558.265625 1202.140625 558.777344 1204.625 558.777344 L 1209.839844 558.777344 Z M 1193.425781 560.175781 C 1191.898438 559.257812 1190.503906 558.167969 1189.246094 556.910156 C 1186.902344 554.566406 1185.1875 551.835938 1184.09375 548.710938 L 1188.339844 547.222656 C 1189.207031 549.703125 1190.570312 551.871094 1192.425781 553.726562 C 1193.425781 554.726562 1194.53125 555.589844 1195.742188 556.316406 Z M 1183.402344 546.292969 C 1183.050781 544.726562 1182.875 543.136719 1182.875 541.53125 L 1182.875 532.328125 L 1187.375 532.328125 L 1187.375 541.53125 C 1187.375 542.804688 1187.515625 544.066406 1187.792969 545.308594 Z M 1182.875 530.078125 L 1182.875 516.578125 L 1187.375 516.578125 L 1187.375 530.078125 Z M 1182.875 514.328125 L 1182.875 500.828125 L 1187.375 500.828125 L 1187.375 514.328125 Z M 1182.875 498.578125 L 1182.875 485.078125 L 1187.375 485.078125 L 1187.375 498.578125 Z M 1182.875 482.828125 L 1182.875 469.328125 L 1187.375 469.328125 L 1187.375 482.828125 Z M 1182.875 467.078125 L 1182.875 453.578125 L 1187.375 453.578125 L 1187.375 467.078125 Z M 1182.875 451.328125 L 1182.875 437.828125 L 1187.375 437.828125 L 1187.375 451.328125 Z M 1182.875 435.578125 L 1182.875 422.078125 L 1187.375 422.078125 L 1187.375 435.578125 Z M 1182.875 419.828125 L 1182.875 406.328125 L 1187.375 406.328125 L 1187.375 419.828125 Z M 1182.875 404.078125 L 1182.875 390.578125 L 1187.375 390.578125 L 1187.375 404.078125 Z M 1182.875 388.328125 L 1182.875 374.8125 L 1187.375 374.835938 L 1187.375 388.328125 Z M 1183.046875 372.289062 C 1183.671875 367.371094 1185.738281 363.160156 1189.246094 359.652344 C 1189.421875 359.476562 1189.597656 359.304688 1189.78125 359.132812 L 1192.851562 362.421875 C 1192.707031 362.558594 1192.566406 362.695312 1192.425781 362.832031 C 1189.644531 365.613281 1188.007812 368.957031 1187.511719 372.859375 Z M 1191.710938 357.527344 C 1195.550781 354.695312 1199.855469 353.28125 1204.625 353.28125 L 1218.125 353.28125 L 1218.125 357.78125 L 1204.625 357.78125 C 1200.839844 357.78125 1197.429688 358.902344 1194.382812 361.148438 Z M 1191.710938 357.527344 " fill-opacity="1" fill-rule="nonzero"/></g></g><g fill="#737373" fill-opacity="1"><g transform="translate(1251.281574, 389.359899)"><g><path d="M 2.015625 0 L 2.015625 -16.0625 L 5.421875 -16.0625 L 5.421875 -2.8125 L 11.9375 -2.8125 L 11.9375 0 Z M 2.015625 0 "/></g></g></g><g fill="#737373" fill-opacity="1"><g transform="translate(1263.991096, 389.359899)"><g><path d="M 6.84375 -10.125 C 6.132812 -10.125 5.578125 -9.898438 5.171875 -9.453125 C 4.773438 -9.003906 4.546875 -8.363281 4.484375 -7.53125 L 9.1875 -7.53125 C 9.164062 -8.363281 8.945312 -9.003906 8.53125 -9.453125 C 8.113281 -9.898438 7.550781 -10.125 6.84375 -10.125 Z M 7.3125 0.21875 C 5.332031 0.21875 3.785156 -0.320312 2.671875 -1.40625 C 1.566406 -2.5 1.015625 -4.046875 1.015625 -6.046875 C 1.015625 -8.109375 1.523438 -9.703125 2.546875 -10.828125 C 3.578125 -11.953125 5.003906 -12.515625 6.828125 -12.515625 C 8.554688 -12.515625 9.90625 -12.019531 10.875 -11.03125 C 11.84375 -10.039062 12.328125 -8.675781 12.328125 -6.9375 L 12.328125 -5.3125 L 4.40625 -5.3125 C 4.4375 -4.351562 4.71875 -3.609375 5.25 -3.078125 C 5.78125 -2.546875 6.519531 -2.28125 7.46875 -2.28125 C 8.207031 -2.28125 8.90625 -2.351562 9.5625 -2.5 C 10.226562 -2.65625 10.921875 -2.898438 11.640625 -3.234375 L 11.640625 -0.640625 C 11.046875 -0.347656 10.414062 -0.132812 9.75 0 C 9.082031 0.144531 8.269531 0.21875 7.3125 0.21875 Z M 7.3125 0.21875 "/></g></g></g><g fill="#737373" fill-opacity="1"><g transform="translate(1277.28281, 389.359899)"><g><path d="M 0 -12.28125 L 3.671875 -12.28125 L 5.984375 -5.375 C 6.179688 -4.769531 6.316406 -4.054688 6.390625 -3.234375 L 6.453125 -3.234375 C 6.535156 -3.992188 6.695312 -4.707031 6.9375 -5.375 L 9.203125 -12.28125 L 12.796875 -12.28125 L 7.609375 1.578125 C 7.128906 2.859375 6.445312 3.816406 5.5625 4.453125 C 4.675781 5.085938 3.644531 5.40625 2.46875 5.40625 C 1.894531 5.40625 1.328125 5.34375 0.765625 5.21875 L 0.765625 2.5625 C 1.171875 2.65625 1.613281 2.703125 2.09375 2.703125 C 2.6875 2.703125 3.203125 2.519531 3.640625 2.15625 C 4.085938 1.789062 4.4375 1.242188 4.6875 0.515625 L 4.875 -0.09375 Z M 0 -12.28125 "/></g></g></g><g fill="#737373" fill-opacity="1"><g transform="translate(1290.080211, 389.359899)"><g><path d="M 6.84375 -10.125 C 6.132812 -10.125 5.578125 -9.898438 5.171875 -9.453125 C 4.773438 -9.003906 4.546875 -8.363281 4.484375 -7.53125 L 9.1875 -7.53125 C 9.164062 -8.363281 8.945312 -9.003906 8.53125 -9.453125 C 8.113281 -9.898438 7.550781 -10.125 6.84375 -10.125 Z M 7.3125 0.21875 C 5.332031 0.21875 3.785156 -0.320312 2.671875 -1.40625 C 1.566406 -2.5 1.015625 -4.046875 1.015625 -6.046875 C 1.015625 -8.109375 1.523438 -9.703125 2.546875 -10.828125 C 3.578125 -11.953125 5.003906 -12.515625 6.828125 -12.515625 C 8.554688 -12.515625 9.90625 -12.019531 10.875 -11.03125 C 11.84375 -10.039062 12.328125 -8.675781 12.328125 -6.9375 L 12.328125 -5.3125 L 4.40625 -5.3125 C 4.4375 -4.351562 4.71875 -3.609375 5.25 -3.078125 C 5.78125 -2.546875 6.519531 -2.28125 7.46875 -2.28125 C 8.207031 -2.28125 8.90625 -2.351562 9.5625 -2.5 C 10.226562 -2.65625 10.921875 -2.898438 11.640625 -3.234375 L 11.640625 -0.640625 C 11.046875 -0.347656 10.414062 -0.132812 9.75 0 C 9.082031 0.144531 8.269531 0.21875 7.3125 0.21875 Z M 7.3125 0.21875 "/></g></g></g><g fill="#737373" fill-opacity="1"><g transform="translate(1303.371925, 389.359899)"><g><path d="M 13.09375 0 L 9.75 0 L 9.75 -7.171875 C 9.75 -8.054688 9.585938 -8.71875 9.265625 -9.15625 C 8.953125 -9.601562 8.453125 -9.828125 7.765625 -9.828125 C 6.828125 -9.828125 6.148438 -9.515625 5.734375 -8.890625 C 5.316406 -8.265625 5.109375 -7.226562 5.109375 -5.78125 L 5.109375 0 L 1.765625 0 L 1.765625 -12.28125 L 4.3125 -12.28125 L 4.765625 -10.71875 L 4.953125 -10.71875 C 5.328125 -11.3125 5.84375 -11.757812 6.5 -12.0625 C 7.15625 -12.363281 7.898438 -12.515625 8.734375 -12.515625 C 10.160156 -12.515625 11.242188 -12.128906 11.984375 -11.359375 C 12.722656 -10.585938 13.09375 -9.472656 13.09375 -8.015625 Z M 13.09375 0 "/></g></g></g><g fill="#737373" fill-opacity="1"><g transform="translate(1318.157583, 389.359899)"><g><path d="M 5.640625 0.21875 C 4.203125 0.21875 3.070312 -0.335938 2.25 -1.453125 C 1.425781 -2.578125 1.015625 -4.132812 1.015625 -6.125 C 1.015625 -8.132812 1.429688 -9.703125 2.265625 -10.828125 C 3.109375 -11.953125 4.265625 -12.515625 5.734375 -12.515625 C 7.273438 -12.515625 8.453125 -11.914062 9.265625 -10.71875 L 9.375 -10.71875 C 9.207031 -11.625 9.125 -12.4375 9.125 -13.15625 L 9.125 -17.09375 L 12.484375 -17.09375 L 12.484375 0 L 9.921875 0 L 9.265625 -1.59375 L 9.125 -1.59375 C 8.363281 -0.382812 7.203125 0.21875 5.640625 0.21875 Z M 6.828125 -2.453125 C 7.679688 -2.453125 8.304688 -2.695312 8.703125 -3.1875 C 9.109375 -3.6875 9.328125 -4.535156 9.359375 -5.734375 L 9.359375 -6.09375 C 9.359375 -7.414062 9.15625 -8.359375 8.75 -8.921875 C 8.34375 -9.492188 7.679688 -9.78125 6.765625 -9.78125 C 6.015625 -9.78125 5.429688 -9.460938 5.015625 -8.828125 C 4.609375 -8.203125 4.40625 -7.285156 4.40625 -6.078125 C 4.40625 -4.867188 4.613281 -3.960938 5.03125 -3.359375 C 5.445312 -2.753906 6.046875 -2.453125 6.828125 -2.453125 Z M 6.828125 -2.453125 "/></g></g></g><g fill="#737373" fill-opacity="1"><g transform="translate(1332.393996, 389.359899)"><g><path d="M 9.5625 0 L 8.90625 -1.671875 L 8.828125 -1.671875 C 8.253906 -0.960938 7.671875 -0.46875 7.078125 -0.1875 C 6.484375 0.0820312 5.707031 0.21875 4.75 0.21875 C 3.570312 0.21875 2.640625 -0.113281 1.953125 -0.78125 C 1.273438 -1.457031 0.9375 -2.421875 0.9375 -3.671875 C 0.9375 -4.972656 1.394531 -5.929688 2.3125 -6.546875 C 3.226562 -7.171875 4.601562 -7.515625 6.4375 -7.578125 L 8.5625 -7.640625 L 8.5625 -8.1875 C 8.5625 -9.425781 7.925781 -10.046875 6.65625 -10.046875 C 5.675781 -10.046875 4.523438 -9.75 3.203125 -9.15625 L 2.09375 -11.421875 C 3.5 -12.160156 5.066406 -12.53125 6.796875 -12.53125 C 8.441406 -12.53125 9.703125 -12.171875 10.578125 -11.453125 C 11.453125 -10.734375 11.890625 -9.644531 11.890625 -8.1875 L 11.890625 0 Z M 8.5625 -5.6875 L 7.265625 -5.640625 C 6.296875 -5.617188 5.570312 -5.445312 5.09375 -5.125 C 4.625 -4.800781 4.390625 -4.304688 4.390625 -3.640625 C 4.390625 -2.703125 4.929688 -2.234375 6.015625 -2.234375 C 6.785156 -2.234375 7.398438 -2.457031 7.859375 -2.90625 C 8.328125 -3.351562 8.5625 -3.945312 8.5625 -4.6875 Z M 8.5625 -5.6875 "/></g></g></g><g fill="#737373" fill-opacity="1"><g transform="translate(1275.870556, 439.10362)"><g><path d="M 12.859375 0 L 11 0 L 3.34375 -11.75 L 3.28125 -11.75 C 3.375 -10.375 3.421875 -9.109375 3.421875 -7.953125 L 3.421875 0 L 1.921875 0 L 1.921875 -14 L 3.765625 -14 L 11.390625 -2.296875 L 11.46875 -2.296875 C 11.457031 -2.472656 11.425781 -3.023438 11.375 -3.953125 C 11.332031 -4.890625 11.320312 -5.5625 11.34375 -5.96875 L 11.34375 -14 L 12.859375 -14 Z M 12.859375 0 "/></g></g></g><g fill="#737373" fill-opacity="1"><g transform="translate(1290.648547, 439.10362)"><g><path d="M 10.75 -5.25 C 10.75 -3.539062 10.316406 -2.207031 9.453125 -1.25 C 8.585938 -0.289062 7.394531 0.1875 5.875 0.1875 C 4.9375 0.1875 4.101562 -0.03125 3.375 -0.46875 C 2.644531 -0.90625 2.082031 -1.535156 1.6875 -2.359375 C 1.289062 -3.179688 1.09375 -4.144531 1.09375 -5.25 C 1.09375 -6.96875 1.519531 -8.300781 2.375 -9.25 C 3.238281 -10.207031 4.429688 -10.6875 5.953125 -10.6875 C 7.410156 -10.6875 8.570312 -10.195312 9.4375 -9.21875 C 10.3125 -8.238281 10.75 -6.914062 10.75 -5.25 Z M 2.75 -5.25 C 2.75 -3.914062 3.015625 -2.894531 3.546875 -2.1875 C 4.085938 -1.488281 4.878906 -1.140625 5.921875 -1.140625 C 6.960938 -1.140625 7.75 -1.488281 8.28125 -2.1875 C 8.820312 -2.882812 9.09375 -3.90625 9.09375 -5.25 C 9.09375 -6.582031 8.820312 -7.59375 8.28125 -8.28125 C 7.75 -8.976562 6.953125 -9.328125 5.890625 -9.328125 C 4.859375 -9.328125 4.078125 -8.984375 3.546875 -8.296875 C 3.015625 -7.617188 2.75 -6.601562 2.75 -5.25 Z M 2.75 -5.25 "/></g></g></g><g fill="#737373" fill-opacity="1"><g transform="translate(1302.488177, 439.10362)"><g/></g></g><g fill="#737373" fill-opacity="1"><g transform="translate(1307.580075, 439.10362)"><g><path d="M 8.828125 -1.40625 L 8.734375 -1.40625 C 8.003906 -0.34375 6.910156 0.1875 5.453125 0.1875 C 4.078125 0.1875 3.003906 -0.28125 2.234375 -1.21875 C 1.472656 -2.15625 1.09375 -3.488281 1.09375 -5.21875 C 1.09375 -6.945312 1.476562 -8.289062 2.25 -9.25 C 3.019531 -10.207031 4.085938 -10.6875 5.453125 -10.6875 C 6.867188 -10.6875 7.957031 -10.171875 8.71875 -9.140625 L 8.84375 -9.140625 L 8.78125 -9.890625 L 8.734375 -10.625 L 8.734375 -14.90625 L 10.328125 -14.90625 L 10.328125 0 L 9.03125 0 Z M 5.65625 -1.140625 C 6.738281 -1.140625 7.519531 -1.429688 8 -2.015625 C 8.488281 -2.609375 8.734375 -3.566406 8.734375 -4.890625 L 8.734375 -5.21875 C 8.734375 -6.707031 8.484375 -7.769531 7.984375 -8.40625 C 7.492188 -9.039062 6.707031 -9.359375 5.625 -9.359375 C 4.695312 -9.359375 3.984375 -8.992188 3.484375 -8.265625 C 2.992188 -7.546875 2.75 -6.523438 2.75 -5.203125 C 2.75 -3.859375 2.992188 -2.84375 3.484375 -2.15625 C 3.972656 -1.476562 4.695312 -1.140625 5.65625 -1.140625 Z M 5.65625 -1.140625 "/></g></g></g><g fill="#737373" fill-opacity="1"><g transform="translate(1319.591987, 439.10362)"><g><path d="M 8.140625 0 L 7.828125 -1.5 L 7.75 -1.5 C 7.226562 -0.832031 6.707031 -0.382812 6.1875 -0.15625 C 5.664062 0.0703125 5.015625 0.1875 4.234375 0.1875 C 3.191406 0.1875 2.375 -0.078125 1.78125 -0.609375 C 1.195312 -1.148438 0.90625 -1.914062 0.90625 -2.90625 C 0.90625 -5.019531 2.597656 -6.128906 5.984375 -6.234375 L 7.765625 -6.296875 L 7.765625 -6.9375 C 7.765625 -7.757812 7.585938 -8.367188 7.234375 -8.765625 C 6.878906 -9.160156 6.3125 -9.359375 5.53125 -9.359375 C 4.65625 -9.359375 3.664062 -9.085938 2.5625 -8.546875 L 2.078125 -9.765625 C 2.597656 -10.046875 3.164062 -10.265625 3.78125 -10.421875 C 4.394531 -10.585938 5.007812 -10.671875 5.625 -10.671875 C 6.875 -10.671875 7.800781 -10.390625 8.40625 -9.828125 C 9.007812 -9.273438 9.3125 -8.382812 9.3125 -7.15625 L 9.3125 0 Z M 4.546875 -1.125 C 5.535156 -1.125 6.3125 -1.394531 6.875 -1.9375 C 7.445312 -2.476562 7.734375 -3.238281 7.734375 -4.21875 L 7.734375 -5.15625 L 6.140625 -5.09375 C 4.867188 -5.050781 3.953125 -4.851562 3.390625 -4.5 C 2.835938 -4.15625 2.5625 -3.613281 2.5625 -2.875 C 2.5625 -2.300781 2.734375 -1.863281 3.078125 -1.5625 C 3.429688 -1.269531 3.921875 -1.125 4.546875 -1.125 Z M 4.546875 -1.125 "/></g></g></g><g fill="#737373" fill-opacity="1"><g transform="translate(1330.493635, 439.10362)"><g><path d="M 5.078125 -1.125 C 5.359375 -1.125 5.628906 -1.144531 5.890625 -1.1875 C 6.148438 -1.226562 6.359375 -1.269531 6.515625 -1.3125 L 6.515625 -0.09375 C 6.335938 -0.0078125 6.082031 0.0546875 5.75 0.109375 C 5.414062 0.160156 5.113281 0.1875 4.84375 0.1875 C 2.8125 0.1875 1.796875 -0.878906 1.796875 -3.015625 L 1.796875 -9.265625 L 0.296875 -9.265625 L 0.296875 -10.03125 L 1.796875 -10.6875 L 2.46875 -12.921875 L 3.390625 -12.921875 L 3.390625 -10.5 L 6.4375 -10.5 L 6.4375 -9.265625 L 3.390625 -9.265625 L 3.390625 -3.078125 C 3.390625 -2.453125 3.539062 -1.96875 3.84375 -1.625 C 4.144531 -1.289062 4.554688 -1.125 5.078125 -1.125 Z M 5.078125 -1.125 "/></g></g></g><g fill="#737373" fill-opacity="1"><g transform="translate(1337.413648, 439.10362)"><g><path d="M 8.140625 0 L 7.828125 -1.5 L 7.75 -1.5 C 7.226562 -0.832031 6.707031 -0.382812 6.1875 -0.15625 C 5.664062 0.0703125 5.015625 0.1875 4.234375 0.1875 C 3.191406 0.1875 2.375 -0.078125 1.78125 -0.609375 C 1.195312 -1.148438 0.90625 -1.914062 0.90625 -2.90625 C 0.90625 -5.019531 2.597656 -6.128906 5.984375 -6.234375 L 7.765625 -6.296875 L 7.765625 -6.9375 C 7.765625 -7.757812 7.585938 -8.367188 7.234375 -8.765625 C 6.878906 -9.160156 6.3125 -9.359375 5.53125 -9.359375 C 4.65625 -9.359375 3.664062 -9.085938 2.5625 -8.546875 L 2.078125 -9.765625 C 2.597656 -10.046875 3.164062 -10.265625 3.78125 -10.421875 C 4.394531 -10.585938 5.007812 -10.671875 5.625 -10.671875 C 6.875 -10.671875 7.800781 -10.390625 8.40625 -9.828125 C 9.007812 -9.273438 9.3125 -8.382812 9.3125 -7.15625 L 9.3125 0 Z M 4.546875 -1.125 C 5.535156 -1.125 6.3125 -1.394531 6.875 -1.9375 C 7.445312 -2.476562 7.734375 -3.238281 7.734375 -4.21875 L 7.734375 -5.15625 L 6.140625 -5.09375 C 4.867188 -5.050781 3.953125 -4.851562 3.390625 -4.5 C 2.835938 -4.15625 2.5625 -3.613281 2.5625 -2.875 C 2.5625 -2.300781 2.734375 -1.863281 3.078125 -1.5625 C 3.429688 -1.269531 3.921875 -1.125 4.546875 -1.125 Z M 4.546875 -1.125 "/></g></g></g><g fill="#737373" fill-opacity="1"><g transform="translate(1276.637054, 537.737735)"><g><path d="M 12.859375 0 L 11 0 L 3.34375 -11.75 L 3.28125 -11.75 C 3.375 -10.375 3.421875 -9.109375 3.421875 -7.953125 L 3.421875 0 L 1.921875 0 L 1.921875 -14 L 3.765625 -14 L 11.390625 -2.296875 L 11.46875 -2.296875 C 11.457031 -2.472656 11.425781 -3.023438 11.375 -3.953125 C 11.332031 -4.890625 11.320312 -5.5625 11.34375 -5.96875 L 11.34375 -14 L 12.859375 -14 Z M 12.859375 0 "/></g></g></g><g fill="#737373" fill-opacity="1"><g transform="translate(1291.415045, 537.737735)"><g><path d="M 3.28125 0 L 1.6875 0 L 1.6875 -10.5 L 3.28125 -10.5 Z M 1.546875 -13.34375 C 1.546875 -13.707031 1.632812 -13.972656 1.8125 -14.140625 C 2 -14.304688 2.222656 -14.390625 2.484375 -14.390625 C 2.742188 -14.390625 2.960938 -14.300781 3.140625 -14.125 C 3.328125 -13.957031 3.421875 -13.695312 3.421875 -13.34375 C 3.421875 -12.976562 3.328125 -12.707031 3.140625 -12.53125 C 2.960938 -12.363281 2.742188 -12.28125 2.484375 -12.28125 C 2.222656 -12.28125 2 -12.363281 1.8125 -12.53125 C 1.632812 -12.707031 1.546875 -12.976562 1.546875 -13.34375 Z M 1.546875 -13.34375 "/></g></g></g><g fill="#737373" fill-opacity="1"><g transform="translate(1296.372946, 537.737735)"><g><path d="M 6.125 0.1875 C 4.570312 0.1875 3.34375 -0.28125 2.4375 -1.21875 C 1.539062 -2.164062 1.09375 -3.476562 1.09375 -5.15625 C 1.09375 -6.851562 1.507812 -8.195312 2.34375 -9.1875 C 3.175781 -10.1875 4.296875 -10.6875 5.703125 -10.6875 C 7.015625 -10.6875 8.054688 -10.253906 8.828125 -9.390625 C 9.597656 -8.523438 9.984375 -7.382812 9.984375 -5.96875 L 9.984375 -4.953125 L 2.75 -4.953125 C 2.78125 -3.722656 3.085938 -2.789062 3.671875 -2.15625 C 4.265625 -1.519531 5.097656 -1.203125 6.171875 -1.203125 C 7.304688 -1.203125 8.425781 -1.4375 9.53125 -1.90625 L 9.53125 -0.484375 C 8.96875 -0.242188 8.4375 -0.0703125 7.9375 0.03125 C 7.4375 0.132812 6.832031 0.1875 6.125 0.1875 Z M 5.6875 -9.359375 C 4.84375 -9.359375 4.171875 -9.082031 3.671875 -8.53125 C 3.171875 -7.976562 2.875 -7.21875 2.78125 -6.25 L 8.265625 -6.25 C 8.265625 -7.25 8.039062 -8.015625 7.59375 -8.546875 C 7.15625 -9.085938 6.519531 -9.359375 5.6875 -9.359375 Z M 5.6875 -9.359375 "/></g></g></g><g fill="#737373" fill-opacity="1"><g transform="translate(1307.370307, 537.737735)"><g><path d="M 3.984375 0 L 0 -10.5 L 1.703125 -10.5 L 3.96875 -4.265625 C 4.476562 -2.816406 4.773438 -1.875 4.859375 -1.4375 L 4.9375 -1.4375 C 5.007812 -1.769531 5.234375 -2.46875 5.609375 -3.53125 C 5.984375 -4.59375 6.820312 -6.914062 8.125 -10.5 L 9.828125 -10.5 L 5.84375 0 Z M 3.984375 0 "/></g></g></g><g fill="#737373" fill-opacity="1"><g transform="translate(1317.190397, 537.737735)"><g><path d="M 6.125 0.1875 C 4.570312 0.1875 3.34375 -0.28125 2.4375 -1.21875 C 1.539062 -2.164062 1.09375 -3.476562 1.09375 -5.15625 C 1.09375 -6.851562 1.507812 -8.195312 2.34375 -9.1875 C 3.175781 -10.1875 4.296875 -10.6875 5.703125 -10.6875 C 7.015625 -10.6875 8.054688 -10.253906 8.828125 -9.390625 C 9.597656 -8.523438 9.984375 -7.382812 9.984375 -5.96875 L 9.984375 -4.953125 L 2.75 -4.953125 C 2.78125 -3.722656 3.085938 -2.789062 3.671875 -2.15625 C 4.265625 -1.519531 5.097656 -1.203125 6.171875 -1.203125 C 7.304688 -1.203125 8.425781 -1.4375 9.53125 -1.90625 L 9.53125 -0.484375 C 8.96875 -0.242188 8.4375 -0.0703125 7.9375 0.03125 C 7.4375 0.132812 6.832031 0.1875 6.125 0.1875 Z M 5.6875 -9.359375 C 4.84375 -9.359375 4.171875 -9.082031 3.671875 -8.53125 C 3.171875 -7.976562 2.875 -7.21875 2.78125 -6.25 L 8.265625 -6.25 C 8.265625 -7.25 8.039062 -8.015625 7.59375 -8.546875 C 7.15625 -9.085938 6.519531 -9.359375 5.6875 -9.359375 Z M 5.6875 -9.359375 "/></g></g></g><g fill="#737373" fill-opacity="1"><g transform="translate(1276.551854, 488.559914)"><g><path d="M 6.234375 0 L 4.609375 0 L 4.609375 -12.546875 L 0.171875 -12.546875 L 0.171875 -14 L 10.671875 -14 L 10.671875 -12.546875 L 6.234375 -12.546875 Z M 6.234375 0 "/></g></g></g><g fill="#737373" fill-opacity="1"><g transform="translate(1287.396075, 488.559914)"><g><path d="M 3.28125 0 L 1.6875 0 L 1.6875 -10.5 L 3.28125 -10.5 Z M 1.546875 -13.34375 C 1.546875 -13.707031 1.632812 -13.972656 1.8125 -14.140625 C 2 -14.304688 2.222656 -14.390625 2.484375 -14.390625 C 2.742188 -14.390625 2.960938 -14.300781 3.140625 -14.125 C 3.328125 -13.957031 3.421875 -13.695312 3.421875 -13.34375 C 3.421875 -12.976562 3.328125 -12.707031 3.140625 -12.53125 C 2.960938 -12.363281 2.742188 -12.28125 2.484375 -12.28125 C 2.222656 -12.28125 2 -12.363281 1.8125 -12.53125 C 1.632812 -12.707031 1.546875 -12.976562 1.546875 -13.34375 Z M 1.546875 -13.34375 "/></g></g></g><g fill="#737373" fill-opacity="1"><g transform="translate(1292.353976, 488.559914)"><g><path d="M 6.125 0.1875 C 4.570312 0.1875 3.34375 -0.28125 2.4375 -1.21875 C 1.539062 -2.164062 1.09375 -3.476562 1.09375 -5.15625 C 1.09375 -6.851562 1.507812 -8.195312 2.34375 -9.1875 C 3.175781 -10.1875 4.296875 -10.6875 5.703125 -10.6875 C 7.015625 -10.6875 8.054688 -10.253906 8.828125 -9.390625 C 9.597656 -8.523438 9.984375 -7.382812 9.984375 -5.96875 L 9.984375 -4.953125 L 2.75 -4.953125 C 2.78125 -3.722656 3.085938 -2.789062 3.671875 -2.15625 C 4.265625 -1.519531 5.097656 -1.203125 6.171875 -1.203125 C 7.304688 -1.203125 8.425781 -1.4375 9.53125 -1.90625 L 9.53125 -0.484375 C 8.96875 -0.242188 8.4375 -0.0703125 7.9375 0.03125 C 7.4375 0.132812 6.832031 0.1875 6.125 0.1875 Z M 5.6875 -9.359375 C 4.84375 -9.359375 4.171875 -9.082031 3.671875 -8.53125 C 3.171875 -7.976562 2.875 -7.21875 2.78125 -6.25 L 8.265625 -6.25 C 8.265625 -7.25 8.039062 -8.015625 7.59375 -8.546875 C 7.15625 -9.085938 6.519531 -9.359375 5.6875 -9.359375 Z M 5.6875 -9.359375 "/></g></g></g><g fill="#737373" fill-opacity="1"><g transform="translate(1303.351336, 488.559914)"><g><path d="M 6.46875 -10.6875 C 6.9375 -10.6875 7.359375 -10.648438 7.734375 -10.578125 L 7.5 -9.09375 C 7.070312 -9.1875 6.691406 -9.234375 6.359375 -9.234375 C 5.503906 -9.234375 4.773438 -8.890625 4.171875 -8.203125 C 3.578125 -7.515625 3.28125 -6.65625 3.28125 -5.625 L 3.28125 0 L 1.6875 0 L 1.6875 -10.5 L 3 -10.5 L 3.171875 -8.546875 L 3.25 -8.546875 C 3.644531 -9.234375 4.113281 -9.757812 4.65625 -10.125 C 5.207031 -10.5 5.8125 -10.6875 6.46875 -10.6875 Z M 6.46875 -10.6875 "/></g></g></g><g fill="#737373" fill-opacity="1"><g transform="translate(1311.352891, 488.559914)"><g><path d="M 6.46875 -10.6875 C 6.9375 -10.6875 7.359375 -10.648438 7.734375 -10.578125 L 7.5 -9.09375 C 7.070312 -9.1875 6.691406 -9.234375 6.359375 -9.234375 C 5.503906 -9.234375 4.773438 -8.890625 4.171875 -8.203125 C 3.578125 -7.515625 3.28125 -6.65625 3.28125 -5.625 L 3.28125 0 L 1.6875 0 L 1.6875 -10.5 L 3 -10.5 L 3.171875 -8.546875 L 3.25 -8.546875 C 3.644531 -9.234375 4.113281 -9.757812 4.65625 -10.125 C 5.207031 -10.5 5.8125 -10.6875 6.46875 -10.6875 Z M 6.46875 -10.6875 "/></g></g></g><g fill="#737373" fill-opacity="1"><g transform="translate(1319.354446, 488.559914)"><g><path d="M 8.140625 0 L 7.828125 -1.5 L 7.75 -1.5 C 7.226562 -0.832031 6.707031 -0.382812 6.1875 -0.15625 C 5.664062 0.0703125 5.015625 0.1875 4.234375 0.1875 C 3.191406 0.1875 2.375 -0.078125 1.78125 -0.609375 C 1.195312 -1.148438 0.90625 -1.914062 0.90625 -2.90625 C 0.90625 -5.019531 2.597656 -6.128906 5.984375 -6.234375 L 7.765625 -6.296875 L 7.765625 -6.9375 C 7.765625 -7.757812 7.585938 -8.367188 7.234375 -8.765625 C 6.878906 -9.160156 6.3125 -9.359375 5.53125 -9.359375 C 4.65625 -9.359375 3.664062 -9.085938 2.5625 -8.546875 L 2.078125 -9.765625 C 2.597656 -10.046875 3.164062 -10.265625 3.78125 -10.421875 C 4.394531 -10.585938 5.007812 -10.671875 5.625 -10.671875 C 6.875 -10.671875 7.800781 -10.390625 8.40625 -9.828125 C 9.007812 -9.273438 9.3125 -8.382812 9.3125 -7.15625 L 9.3125 0 Z M 4.546875 -1.125 C 5.535156 -1.125 6.3125 -1.394531 6.875 -1.9375 C 7.445312 -2.476562 7.734375 -3.238281 7.734375 -4.21875 L 7.734375 -5.15625 L 6.140625 -5.09375 C 4.867188 -5.050781 3.953125 -4.851562 3.390625 -4.5 C 2.835938 -4.15625 2.5625 -3.613281 2.5625 -2.875 C 2.5625 -2.300781 2.734375 -1.863281 3.078125 -1.5625 C 3.429688 -1.269531 3.921875 -1.125 4.546875 -1.125 Z M 4.546875 -1.125 "/></g></g></g><g fill="#737373" fill-opacity="1"><g transform="translate(150.150188, 289.351504)"><g><path d="M 13.015625 0 L 11.734375 -4.203125 L 5.3125 -4.203125 L 4.03125 0 L 0 0 L 6.21875 -17.703125 L 10.796875 -17.703125 L 17.046875 0 Z M 10.84375 -7.328125 C 9.664062 -11.140625 9 -13.289062 8.84375 -13.78125 C 8.695312 -14.28125 8.59375 -14.675781 8.53125 -14.96875 C 8.257812 -13.9375 7.5 -11.390625 6.25 -7.328125 Z M 10.84375 -7.328125 "/></g></g></g><g fill="#737373" fill-opacity="1"><g transform="translate(167.187574, 289.351504)"><g><path d="M 7.515625 -2.640625 C 8.441406 -2.640625 9.125 -2.90625 9.5625 -3.4375 C 10 -3.976562 10.238281 -4.914062 10.28125 -6.25 L 10.28125 -6.6875 C 10.28125 -8.132812 10.054688 -9.171875 9.609375 -9.796875 C 9.160156 -10.429688 8.441406 -10.75 7.453125 -10.75 C 5.722656 -10.75 4.859375 -9.390625 4.859375 -6.671875 C 4.859375 -5.316406 5.070312 -4.304688 5.5 -3.640625 C 5.9375 -2.972656 6.609375 -2.640625 7.515625 -2.640625 Z M 6.203125 0.234375 C 4.609375 0.234375 3.359375 -0.375 2.453125 -1.59375 C 1.554688 -2.820312 1.109375 -4.53125 1.109375 -6.71875 C 1.109375 -8.925781 1.566406 -10.644531 2.484375 -11.875 C 3.410156 -13.113281 4.671875 -13.734375 6.265625 -13.734375 C 7.117188 -13.734375 7.863281 -13.570312 8.5 -13.25 C 9.132812 -12.9375 9.695312 -12.441406 10.1875 -11.765625 L 10.28125 -11.765625 L 10.609375 -13.484375 L 13.71875 -13.484375 L 13.71875 5.9375 L 10.03125 5.9375 L 10.03125 0.28125 C 10.03125 -0.207031 10.082031 -0.882812 10.1875 -1.75 L 10.03125 -1.75 C 9.632812 -1.09375 9.109375 -0.597656 8.453125 -0.265625 C 7.804688 0.0664062 7.054688 0.234375 6.203125 0.234375 Z M 6.203125 0.234375 "/></g></g></g><g fill="#737373" fill-opacity="1"><g transform="translate(182.81422, 289.351504)"><g><path d="M 11.484375 0 L 10.984375 -1.71875 L 10.796875 -1.71875 C 10.398438 -1.09375 9.835938 -0.609375 9.109375 -0.265625 C 8.390625 0.0664062 7.566406 0.234375 6.640625 0.234375 C 5.054688 0.234375 3.863281 -0.1875 3.0625 -1.03125 C 2.257812 -1.875 1.859375 -3.09375 1.859375 -4.6875 L 1.859375 -13.484375 L 5.53125 -13.484375 L 5.53125 -5.609375 C 5.53125 -4.640625 5.703125 -3.910156 6.046875 -3.421875 C 6.398438 -2.929688 6.953125 -2.6875 7.703125 -2.6875 C 8.734375 -2.6875 9.476562 -3.03125 9.9375 -3.71875 C 10.394531 -4.40625 10.625 -5.546875 10.625 -7.140625 L 10.625 -13.484375 L 14.3125 -13.484375 L 14.3125 0 Z M 11.484375 0 "/></g></g></g><g fill="#737373" fill-opacity="1"><g transform="translate(199.043746, 289.351504)"><g><path d="M 10.5 0 L 9.78125 -1.828125 L 9.6875 -1.828125 C 9.0625 -1.046875 8.421875 -0.503906 7.765625 -0.203125 C 7.117188 0.0859375 6.265625 0.234375 5.203125 0.234375 C 3.910156 0.234375 2.890625 -0.132812 2.140625 -0.875 C 1.398438 -1.613281 1.03125 -2.664062 1.03125 -4.03125 C 1.03125 -5.457031 1.53125 -6.507812 2.53125 -7.1875 C 3.539062 -7.875 5.050781 -8.253906 7.0625 -8.328125 L 9.40625 -8.390625 L 9.40625 -8.984375 C 9.40625 -10.347656 8.707031 -11.03125 7.3125 -11.03125 C 6.226562 -11.03125 4.960938 -10.707031 3.515625 -10.0625 L 2.296875 -12.546875 C 3.847656 -13.359375 5.566406 -13.765625 7.453125 -13.765625 C 9.265625 -13.765625 10.648438 -13.367188 11.609375 -12.578125 C 12.578125 -11.796875 13.0625 -10.597656 13.0625 -8.984375 L 13.0625 0 Z M 9.40625 -6.25 L 7.984375 -6.203125 C 6.910156 -6.171875 6.113281 -5.976562 5.59375 -5.625 C 5.070312 -5.269531 4.8125 -4.726562 4.8125 -4 C 4.8125 -2.96875 5.40625 -2.453125 6.59375 -2.453125 C 7.445312 -2.453125 8.128906 -2.695312 8.640625 -3.1875 C 9.148438 -3.675781 9.40625 -4.328125 9.40625 -5.140625 Z M 9.40625 -6.25 "/></g></g></g><g fill="#737373" fill-opacity="1"><g transform="translate(534.684819, 289.351504)"><g><path d="M 9.015625 0 L 5.28125 0 L 5.28125 -14.515625 L 0.5 -14.515625 L 0.5 -17.640625 L 13.8125 -17.640625 L 13.8125 -14.515625 L 9.015625 -14.515625 Z M 9.015625 0 "/></g></g></g><g fill="#737373" fill-opacity="1"><g transform="translate(548.98513, 289.351504)"><g><path d="M 7.515625 -11.125 C 6.734375 -11.125 6.117188 -10.875 5.671875 -10.375 C 5.234375 -9.882812 4.984375 -9.1875 4.921875 -8.28125 L 10.078125 -8.28125 C 10.066406 -9.1875 9.832031 -9.882812 9.375 -10.375 C 8.914062 -10.875 8.296875 -11.125 7.515625 -11.125 Z M 8.03125 0.234375 C 5.863281 0.234375 4.164062 -0.363281 2.9375 -1.5625 C 1.71875 -2.757812 1.109375 -4.453125 1.109375 -6.640625 C 1.109375 -8.898438 1.671875 -10.644531 2.796875 -11.875 C 3.929688 -13.113281 5.492188 -13.734375 7.484375 -13.734375 C 9.390625 -13.734375 10.875 -13.191406 11.9375 -12.109375 C 13 -11.023438 13.53125 -9.523438 13.53125 -7.609375 L 13.53125 -5.828125 L 4.84375 -5.828125 C 4.875 -4.785156 5.179688 -3.96875 5.765625 -3.375 C 6.347656 -2.789062 7.160156 -2.5 8.203125 -2.5 C 9.015625 -2.5 9.78125 -2.582031 10.5 -2.75 C 11.226562 -2.914062 11.988281 -3.1875 12.78125 -3.5625 L 12.78125 -0.71875 C 12.132812 -0.394531 11.441406 -0.15625 10.703125 0 C 9.972656 0.15625 9.082031 0.234375 8.03125 0.234375 Z M 8.03125 0.234375 "/></g></g></g><g fill="#737373" fill-opacity="1"><g transform="translate(563.574823, 289.351504)"><g><path d="M 9.453125 -13.734375 C 9.953125 -13.734375 10.367188 -13.695312 10.703125 -13.625 L 10.421875 -10.1875 C 10.117188 -10.257812 9.757812 -10.296875 9.34375 -10.296875 C 8.164062 -10.296875 7.25 -9.992188 6.59375 -9.390625 C 5.9375 -8.785156 5.609375 -7.941406 5.609375 -6.859375 L 5.609375 0 L 1.9375 0 L 1.9375 -13.484375 L 4.71875 -13.484375 L 5.265625 -11.21875 L 5.4375 -11.21875 C 5.851562 -11.976562 6.414062 -12.585938 7.125 -13.046875 C 7.84375 -13.503906 8.617188 -13.734375 9.453125 -13.734375 Z M 9.453125 -13.734375 "/></g></g></g><g fill="#737373" fill-opacity="1"><g transform="translate(574.788389, 289.351504)"><g><path d="M 9.453125 -13.734375 C 9.953125 -13.734375 10.367188 -13.695312 10.703125 -13.625 L 10.421875 -10.1875 C 10.117188 -10.257812 9.757812 -10.296875 9.34375 -10.296875 C 8.164062 -10.296875 7.25 -9.992188 6.59375 -9.390625 C 5.9375 -8.785156 5.609375 -7.941406 5.609375 -6.859375 L 5.609375 0 L 1.9375 0 L 1.9375 -13.484375 L 4.71875 -13.484375 L 5.265625 -11.21875 L 5.4375 -11.21875 C 5.851562 -11.976562 6.414062 -12.585938 7.125 -13.046875 C 7.84375 -13.503906 8.617188 -13.734375 9.453125 -13.734375 Z M 9.453125 -13.734375 "/></g></g></g><g fill="#737373" fill-opacity="1"><g transform="translate(586.001954, 289.351504)"><g><path d="M 10.5 0 L 9.78125 -1.828125 L 9.6875 -1.828125 C 9.0625 -1.046875 8.421875 -0.503906 7.765625 -0.203125 C 7.117188 0.0859375 6.265625 0.234375 5.203125 0.234375 C 3.910156 0.234375 2.890625 -0.132812 2.140625 -0.875 C 1.398438 -1.613281 1.03125 -2.664062 1.03125 -4.03125 C 1.03125 -5.457031 1.53125 -6.507812 2.53125 -7.1875 C 3.539062 -7.875 5.050781 -8.253906 7.0625 -8.328125 L 9.40625 -8.390625 L 9.40625 -8.984375 C 9.40625 -10.347656 8.707031 -11.03125 7.3125 -11.03125 C 6.226562 -11.03125 4.960938 -10.707031 3.515625 -10.0625 L 2.296875 -12.546875 C 3.847656 -13.359375 5.566406 -13.765625 7.453125 -13.765625 C 9.265625 -13.765625 10.648438 -13.367188 11.609375 -12.578125 C 12.578125 -11.796875 13.0625 -10.597656 13.0625 -8.984375 L 13.0625 0 Z M 9.40625 -6.25 L 7.984375 -6.203125 C 6.910156 -6.171875 6.113281 -5.976562 5.59375 -5.625 C 5.070312 -5.269531 4.8125 -4.726562 4.8125 -4 C 4.8125 -2.96875 5.40625 -2.453125 6.59375 -2.453125 C 7.445312 -2.453125 8.128906 -2.695312 8.640625 -3.1875 C 9.148438 -3.675781 9.40625 -4.328125 9.40625 -5.140625 Z M 9.40625 -6.25 "/></g></g></g><g fill="#737373" fill-opacity="1"><g transform="translate(930.103207, 289.351504)"><g><path d="M 9.015625 0 L 5.28125 0 L 5.28125 -14.515625 L 0.5 -14.515625 L 0.5 -17.640625 L 13.8125 -17.640625 L 13.8125 -14.515625 L 9.015625 -14.515625 Z M 9.015625 0 "/></g></g></g><g fill="#737373" fill-opacity="1"><g transform="translate(944.403518, 289.351504)"><g><path d="M 13.015625 0 L 11.734375 -4.203125 L 5.3125 -4.203125 L 4.03125 0 L 0 0 L 6.21875 -17.703125 L 10.796875 -17.703125 L 17.046875 0 Z M 10.84375 -7.328125 C 9.664062 -11.140625 9 -13.289062 8.84375 -13.78125 C 8.695312 -14.28125 8.59375 -14.675781 8.53125 -14.96875 C 8.257812 -13.9375 7.5 -11.390625 6.25 -7.328125 Z M 10.84375 -7.328125 "/></g></g></g><g fill="#737373" fill-opacity="1"><g transform="translate(961.440903, 289.351504)"><g><path d="M 9.703125 -14.78125 C 8.296875 -14.78125 7.207031 -14.25 6.4375 -13.1875 C 5.664062 -12.132812 5.28125 -10.660156 5.28125 -8.765625 C 5.28125 -4.835938 6.753906 -2.875 9.703125 -2.875 C 10.941406 -2.875 12.441406 -3.179688 14.203125 -3.796875 L 14.203125 -0.65625 C 12.753906 -0.0625 11.140625 0.234375 9.359375 0.234375 C 6.796875 0.234375 4.832031 -0.539062 3.46875 -2.09375 C 2.113281 -3.644531 1.4375 -5.878906 1.4375 -8.796875 C 1.4375 -10.628906 1.769531 -12.234375 2.4375 -13.609375 C 3.101562 -14.992188 4.0625 -16.050781 5.3125 -16.78125 C 6.5625 -17.519531 8.023438 -17.890625 9.703125 -17.890625 C 11.421875 -17.890625 13.144531 -17.472656 14.875 -16.640625 L 13.671875 -13.609375 C 13.003906 -13.921875 12.335938 -14.191406 11.671875 -14.421875 C 11.003906 -14.660156 10.347656 -14.78125 9.703125 -14.78125 Z M 9.703125 -14.78125 "/></g></g></g></svg>