<svg xmlns="http://www.w3.org/2000/svg" xmlns:xlink="http://www.w3.org/1999/xlink" width="1920" zoomAndPan="magnify" viewBox="0 0 1440 809.999993" height="1080" preserveAspectRatio="xMidYMid meet" version="1.0"><defs><g/><clipPath id="1b94f0d17a"><path d="M 10.09375 196 L 357 196 L 357 404 L 10.09375 404 Z M 10.09375 196 " clip-rule="nonzero"/></clipPath><clipPath id="22c09d7aac"><path d="M 10.09375 196 L 444 196 L 444 543 L 10.09375 543 Z M 10.09375 196 " clip-rule="nonzero"/></clipPath><clipPath id="4f5ea88723"><path d="M 10.09375 334 L 357 334 L 357 474 L 10.09375 474 Z M 10.09375 334 " clip-rule="nonzero"/></clipPath><clipPath id="06d76c872c"><path d="M 10.09375 196 L 444 196 L 444 543 L 10.09375 543 Z M 10.09375 196 " clip-rule="nonzero"/></clipPath><clipPath id="4b1d1a7868"><path d="M 10.09375 195.496094 L 444.34375 195.496094 L 444.34375 543 L 10.09375 543 Z M 10.09375 195.496094 " clip-rule="nonzero"/></clipPath><clipPath id="ac35be878c"><path d="M 552.382812 196 L 900 196 L 900 404 L 552.382812 404 Z M 552.382812 196 " clip-rule="nonzero"/></clipPath><clipPath id="33375347ab"><path d="M 552.382812 196 L 986 196 L 986 543 L 552.382812 543 Z M 552.382812 196 " clip-rule="nonzero"/></clipPath><clipPath id="f569c7b6b0"><path d="M 552.382812 334 L 900 334 L 900 474 L 552.382812 474 Z M 552.382812 334 " clip-rule="nonzero"/></clipPath><clipPath id="f08f84ded5"><path d="M 552.382812 196 L 986.632812 196 L 986.632812 543 L 552.382812 543 Z M 552.382812 196 " clip-rule="nonzero"/></clipPath><clipPath id="d9c878ff37"><path d="M 552.382812 195.496094 L 986.632812 195.496094 L 986.632812 543 L 552.382812 543 Z M 552.382812 195.496094 " clip-rule="nonzero"/></clipPath><clipPath id="fc40c3bd69"><path d="M 1168 313.335938 L 1216.558594 313.335938 L 1216.558594 360 L 1168 360 Z M 1168 313.335938 " clip-rule="nonzero"/></clipPath><clipPath id="348e28756d"><path d="M 1167.808594 313.335938 L 1216.558594 313.335938 L 1216.558594 360 L 1167.808594 360 Z M 1167.808594 313.335938 " clip-rule="nonzero"/></clipPath><clipPath id="896098d6da"><path d="M 1167.808594 313.335938 L 1216.558594 313.335938 L 1216.558594 360.585938 L 1167.808594 360.585938 Z M 1167.808594 313.335938 " clip-rule="nonzero"/></clipPath><clipPath id="3ca400eada"><path d="M 1168 382.554688 L 1216.558594 382.554688 L 1216.558594 429.804688 L 1168 429.804688 Z M 1168 382.554688 " clip-rule="nonzero"/></clipPath><clipPath id="1552a403f7"><path d="M 1167.808594 383 L 1216.558594 383 L 1216.558594 429 L 1167.808594 429 Z M 1167.808594 383 " clip-rule="nonzero"/></clipPath><clipPath id="cffa7c3bbf"><path d="M 1167.808594 382.554688 L 1216.558594 382.554688 L 1216.558594 429.804688 L 1167.808594 429.804688 Z M 1167.808594 382.554688 " clip-rule="nonzero"/></clipPath><clipPath id="9816f53e7c"><path d="M 1168 452 L 1216.558594 452 L 1216.558594 498.941406 L 1168 498.941406 Z M 1168 452 " clip-rule="nonzero"/></clipPath><clipPath id="cb0e89dacc"><path d="M 1167.808594 452 L 1216.558594 452 L 1216.558594 498 L 1167.808594 498 Z M 1167.808594 452 " clip-rule="nonzero"/></clipPath><clipPath id="b66238e8a9"><path d="M 1167.808594 451.691406 L 1216.558594 451.691406 L 1216.558594 498.941406 L 1167.808594 498.941406 Z M 1167.808594 451.691406 " clip-rule="nonzero"/></clipPath><clipPath id="0f70354d96"><path d="M 1094.761719 228.695312 L 1414 228.695312 L 1414 517.445312 L 1094.761719 517.445312 Z M 1094.761719 228.695312 " clip-rule="nonzero"/></clipPath><clipPath id="5e934e3daa"><path d="M 1114.261719 228.695312 L 1394.433594 228.695312 C 1399.605469 228.695312 1404.566406 230.75 1408.222656 234.40625 C 1411.878906 238.0625 1413.933594 243.023438 1413.933594 248.195312 L 1413.933594 498.097656 C 1413.933594 503.269531 1411.878906 508.226562 1408.222656 511.886719 C 1404.566406 515.542969 1399.605469 517.597656 1394.433594 517.597656 L 1114.261719 517.597656 C 1109.089844 517.597656 1104.132812 515.542969 1100.476562 511.886719 C 1096.816406 508.226562 1094.761719 503.269531 1094.761719 498.097656 L 1094.761719 248.195312 C 1094.761719 243.023438 1096.816406 238.0625 1100.476562 234.40625 C 1104.132812 230.75 1109.089844 228.695312 1114.261719 228.695312 Z M 1114.261719 228.695312 " clip-rule="nonzero"/></clipPath><clipPath id="dd741cfd2c"><path d="M 462.214844 334.949219 L 534 334.949219 L 534 406.546875 L 462.214844 406.546875 Z M 462.214844 334.949219 " clip-rule="nonzero"/></clipPath><clipPath id="ab70157fd6"><path d="M 533.890625 370.75 L 495.683594 334.949219 L 495.683594 354.054688 L 462.214844 354.054688 L 462.214844 387.445312 L 495.683594 387.445312 L 495.683594 406.546875 Z M 533.890625 370.75 " clip-rule="nonzero"/></clipPath><clipPath id="06256f4ed1"><path d="M 638.800781 266 L 730 266 L 730 337 L 638.800781 337 Z M 638.800781 266 " clip-rule="nonzero"/></clipPath><clipPath id="8c6cfd07e5"><path d="M 638.800781 264.644531 L 730.300781 264.644531 L 730.300781 338.894531 L 638.800781 338.894531 Z M 638.800781 264.644531 " clip-rule="nonzero"/></clipPath><clipPath id="24fcaaf605"><path d="M 124.105469 286.457031 L 154.222656 286.457031 L 154.222656 316.578125 L 124.105469 316.578125 Z M 124.105469 286.457031 " clip-rule="nonzero"/></clipPath><clipPath id="5963e6e3fb"><path d="M 139.164062 286.457031 C 130.847656 286.457031 124.105469 293.199219 124.105469 301.519531 C 124.105469 309.835938 130.847656 316.578125 139.164062 316.578125 C 147.480469 316.578125 154.222656 309.835938 154.222656 301.519531 C 154.222656 293.199219 147.480469 286.457031 139.164062 286.457031 Z M 139.164062 286.457031 " clip-rule="nonzero"/></clipPath></defs><g clip-path="url(#1b94f0d17a)"><path fill="#93d3d9" d="M 10.671875 196.074219 L 10.671875 265.597656 L 97.464844 265.597656 L 97.464844 196.074219 Z M 97.089844 196.074219 L 97.089844 265.597656 L 183.886719 265.597656 L 183.886719 196.074219 Z M 183.511719 196.074219 L 183.511719 265.597656 L 270.304688 265.597656 L 270.304688 196.074219 Z M 269.929688 196.074219 L 269.929688 265.597656 L 356.726562 265.597656 L 356.726562 196.074219 Z M 10.671875 265.222656 L 10.671875 334.746094 L 97.464844 334.746094 L 97.464844 265.222656 Z M 183.511719 265.222656 L 183.511719 334.746094 L 270.304688 334.746094 L 270.304688 265.222656 Z M 269.929688 265.222656 L 269.929688 334.746094 L 356.726562 334.746094 L 356.726562 265.222656 Z M 97.089844 334.371094 L 97.089844 403.894531 L 183.886719 403.894531 L 183.886719 334.371094 Z M 183.511719 334.371094 L 183.511719 403.894531 L 270.304688 403.894531 L 270.304688 334.371094 Z M 183.511719 334.371094 " fill-opacity="1" fill-rule="nonzero"/></g><g clip-path="url(#22c09d7aac)"><path fill="#a6a6a6" d="M 356.351562 196.074219 L 356.351562 265.597656 L 443.144531 265.597656 L 443.144531 196.074219 Z M 97.089844 265.222656 L 97.089844 334.746094 L 183.886719 334.746094 L 183.886719 265.222656 Z M 356.351562 265.222656 L 356.351562 334.746094 L 443.144531 334.746094 L 443.144531 265.222656 Z M 269.929688 334.371094 L 269.929688 403.894531 L 356.726562 403.894531 L 356.726562 334.371094 Z M 356.351562 334.371094 L 356.351562 403.894531 L 443.144531 403.894531 L 443.144531 334.371094 Z M 10.671875 403.519531 L 10.671875 473.042969 L 97.464844 473.042969 L 97.464844 403.519531 Z M 97.089844 403.519531 L 97.089844 473.042969 L 183.886719 473.042969 L 183.886719 403.519531 Z M 356.351562 403.519531 L 356.351562 473.042969 L 443.144531 473.042969 L 443.144531 403.519531 Z M 10.671875 472.667969 L 10.671875 542.191406 L 97.464844 542.191406 L 97.464844 472.667969 Z M 97.089844 472.667969 L 97.089844 542.191406 L 183.886719 542.191406 L 183.886719 472.667969 Z M 183.511719 472.667969 L 183.511719 542.191406 L 270.304688 542.191406 L 270.304688 472.667969 Z M 269.929688 472.667969 L 269.929688 542.191406 L 356.726562 542.191406 L 356.726562 472.667969 Z M 356.351562 472.667969 L 356.351562 542.191406 L 443.144531 542.191406 L 443.144531 472.667969 Z M 356.351562 472.667969 " fill-opacity="1" fill-rule="nonzero"/></g><g clip-path="url(#4f5ea88723)"><path fill="#8ecb4e" d="M 10.671875 334.371094 L 10.671875 403.894531 L 97.464844 403.894531 L 97.464844 334.371094 Z M 183.511719 403.519531 L 183.511719 473.042969 L 270.304688 473.042969 L 270.304688 403.519531 Z M 269.929688 403.519531 L 269.929688 473.042969 L 356.726562 473.042969 L 356.726562 403.519531 Z M 269.929688 403.519531 " fill-opacity="1" fill-rule="nonzero"/></g><g clip-path="url(#06d76c872c)"><path fill="#000000" d="M 10.859375 197.03125 L 10.859375 541.238281 M 97.277344 197.03125 L 97.277344 541.238281 M 183.699219 197.03125 L 183.699219 541.238281 M 270.117188 197.03125 L 270.117188 541.238281 M 356.539062 197.03125 L 356.539062 541.238281 M 442.957031 197.03125 L 442.957031 541.238281 M 10.09375 196.261719 L 443.722656 196.261719 M 10.09375 265.410156 L 443.722656 265.410156 M 10.09375 334.558594 L 443.722656 334.558594 M 10.09375 403.707031 L 443.722656 403.707031 M 10.09375 472.855469 L 443.722656 472.855469 M 10.09375 542.003906 L 443.722656 542.003906 " fill-opacity="1" fill-rule="nonzero"/></g><g clip-path="url(#4b1d1a7868)"><path stroke-linecap="butt" transform="matrix(0.75, 0, 0, 0.75, 10.092569, 195.497163)" fill="none" stroke-linejoin="miter" d="M 1.022409 2.045449 L 1.022409 460.988181 M 116.246373 2.045449 L 116.246373 460.988181 M 231.475545 2.045449 L 231.475545 460.988181 M 346.699509 2.045449 L 346.699509 460.988181 M 461.928682 2.045449 L 461.928682 460.988181 M 577.152646 2.045449 L 577.152646 460.988181 M 0.00157531 1.019408 L 578.173479 1.019408 M 0.00157531 93.217329 L 578.173479 93.217329 M 0.00157531 185.41525 L 578.173479 185.41525 M 0.00157531 277.613172 L 578.173479 277.613172 M 0.00157531 369.811093 L 578.173479 369.811093 M 0.00157531 462.009014 L 578.173479 462.009014 " stroke="#ffffff" stroke-width="2.043022" stroke-opacity="1" stroke-miterlimit="4"/></g><g clip-path="url(#ac35be878c)"><path fill="#93d3d9" d="M 552.960938 196.074219 L 552.960938 265.597656 L 639.753906 265.597656 L 639.753906 196.074219 Z M 639.378906 196.074219 L 639.378906 265.597656 L 726.175781 265.597656 L 726.175781 196.074219 Z M 725.800781 196.074219 L 725.800781 265.597656 L 812.59375 265.597656 L 812.59375 196.074219 Z M 812.21875 196.074219 L 812.21875 265.597656 L 899.015625 265.597656 L 899.015625 196.074219 Z M 552.960938 265.222656 L 552.960938 334.746094 L 639.753906 334.746094 L 639.753906 265.222656 Z M 639.378906 265.222656 L 639.378906 334.746094 L 726.175781 334.746094 L 726.175781 265.222656 Z M 725.800781 265.222656 L 725.800781 334.746094 L 812.59375 334.746094 L 812.59375 265.222656 Z M 812.21875 265.222656 L 812.21875 334.746094 L 899.015625 334.746094 L 899.015625 265.222656 Z M 639.378906 334.371094 L 639.378906 403.894531 L 726.175781 403.894531 L 726.175781 334.371094 Z M 725.800781 334.371094 L 725.800781 403.894531 L 812.59375 403.894531 L 812.59375 334.371094 Z M 725.800781 334.371094 " fill-opacity="1" fill-rule="nonzero"/></g><g clip-path="url(#33375347ab)"><path fill="#a6a6a6" d="M 898.640625 196.074219 L 898.640625 265.597656 L 985.433594 265.597656 L 985.433594 196.074219 Z M 898.640625 265.222656 L 898.640625 334.746094 L 985.433594 334.746094 L 985.433594 265.222656 Z M 812.21875 334.371094 L 812.21875 403.894531 L 899.015625 403.894531 L 899.015625 334.371094 Z M 898.640625 334.371094 L 898.640625 403.894531 L 985.433594 403.894531 L 985.433594 334.371094 Z M 552.960938 403.519531 L 552.960938 473.042969 L 639.753906 473.042969 L 639.753906 403.519531 Z M 639.378906 403.519531 L 639.378906 473.042969 L 726.175781 473.042969 L 726.175781 403.519531 Z M 898.640625 403.519531 L 898.640625 473.042969 L 985.433594 473.042969 L 985.433594 403.519531 Z M 552.960938 472.667969 L 552.960938 542.191406 L 639.753906 542.191406 L 639.753906 472.667969 Z M 639.378906 472.667969 L 639.378906 542.191406 L 726.175781 542.191406 L 726.175781 472.667969 Z M 725.800781 472.667969 L 725.800781 542.191406 L 812.59375 542.191406 L 812.59375 472.667969 Z M 812.21875 472.667969 L 812.21875 542.191406 L 899.015625 542.191406 L 899.015625 472.667969 Z M 898.640625 472.667969 L 898.640625 542.191406 L 985.433594 542.191406 L 985.433594 472.667969 Z M 898.640625 472.667969 " fill-opacity="1" fill-rule="nonzero"/></g><g clip-path="url(#f569c7b6b0)"><path fill="#8ecb4e" d="M 552.960938 334.371094 L 552.960938 403.894531 L 639.753906 403.894531 L 639.753906 334.371094 Z M 725.800781 403.519531 L 725.800781 473.042969 L 812.59375 473.042969 L 812.59375 403.519531 Z M 812.21875 403.519531 L 812.21875 473.042969 L 899.015625 473.042969 L 899.015625 403.519531 Z M 812.21875 403.519531 " fill-opacity="1" fill-rule="nonzero"/></g><g clip-path="url(#f08f84ded5)"><path fill="#000000" d="M 553.148438 197.03125 L 553.148438 541.238281 M 639.566406 197.03125 L 639.566406 541.238281 M 725.988281 197.03125 L 725.988281 541.238281 M 812.40625 197.03125 L 812.40625 541.238281 M 898.828125 197.03125 L 898.828125 541.238281 M 985.246094 197.03125 L 985.246094 541.238281 M 552.382812 196.261719 L 986.011719 196.261719 M 552.382812 265.410156 L 986.011719 265.410156 M 552.382812 334.558594 L 986.011719 334.558594 M 552.382812 403.707031 L 986.011719 403.707031 M 552.382812 472.855469 L 986.011719 472.855469 M 552.382812 542.003906 L 986.011719 542.003906 " fill-opacity="1" fill-rule="nonzero"/></g><g clip-path="url(#d9c878ff37)"><path stroke-linecap="butt" transform="matrix(0.75, 0, 0, 0.75, 552.381242, 195.497163)" fill="none" stroke-linejoin="miter" d="M 1.022927 2.045449 L 1.022927 460.988181 M 116.246891 2.045449 L 116.246891 460.988181 M 231.476063 2.045449 L 231.476063 460.988181 M 346.700028 2.045449 L 346.700028 460.988181 M 461.9292 2.045449 L 461.9292 460.988181 M 577.153164 2.045449 L 577.153164 460.988181 M 0.00209342 1.019408 L 578.173998 1.019408 M 0.00209342 93.217329 L 578.173998 93.217329 M 0.00209342 185.41525 L 578.173998 185.41525 M 0.00209342 277.613172 L 578.173998 277.613172 M 0.00209342 369.811093 L 578.173998 369.811093 M 0.00209342 462.009014 L 578.173998 462.009014 " stroke="#ffffff" stroke-width="2.043022" stroke-opacity="1" stroke-miterlimit="4"/></g><g clip-path="url(#fc40c3bd69)"><path fill="#a6a6a6" d="M 1168.152344 313.679688 L 1168.152344 359.789062 L 1216.0625 359.789062 L 1216.0625 313.679688 Z M 1168.152344 313.679688 " fill-opacity="1" fill-rule="nonzero"/></g><g clip-path="url(#348e28756d)"><path fill="#000000" d="M 1168.339844 314.398438 L 1168.339844 359.070312 M 1215.875 314.398438 L 1215.875 359.070312 M 1167.808594 313.867188 L 1216.40625 313.867188 M 1167.808594 359.601562 L 1216.40625 359.601562 " fill-opacity="1" fill-rule="nonzero"/></g><g clip-path="url(#896098d6da)"><path stroke-linecap="butt" transform="matrix(0.75, 0, 0, 0.75, 1167.808315, 313.33474)" fill="none" stroke-linejoin="miter" d="M 0.708704 1.418263 L 0.708704 60.980766 M 64.088916 1.418263 L 64.088916 60.980766 M 0.000371038 0.70993 L 64.797249 0.70993 M 0.000371038 61.689099 L 64.797249 61.689099 " stroke="#ffffff" stroke-width="1.418164" stroke-opacity="1" stroke-miterlimit="4"/></g><g clip-path="url(#3ca400eada)"><path fill="#8ecb4e" d="M 1168.152344 382.898438 L 1168.152344 429.011719 L 1216.0625 429.011719 L 1216.0625 382.898438 Z M 1168.152344 382.898438 " fill-opacity="1" fill-rule="nonzero"/></g><g clip-path="url(#1552a403f7)"><path fill="#000000" d="M 1168.339844 383.621094 L 1168.339844 428.292969 M 1215.875 383.621094 L 1215.875 428.292969 M 1167.808594 383.085938 L 1216.40625 383.085938 M 1167.808594 428.824219 L 1216.40625 428.824219 " fill-opacity="1" fill-rule="nonzero"/></g><g clip-path="url(#cffa7c3bbf)"><path stroke-linecap="butt" transform="matrix(0.75, 0, 0, 0.75, 1167.808315, 382.555695)" fill="none" stroke-linejoin="miter" d="M 0.708704 1.420532 L 0.708704 60.983035 M 64.088916 1.420532 L 64.088916 60.983035 M 0.000371038 0.70699 L 64.797249 0.70699 M 0.000371038 61.691368 L 64.797249 61.691368 " stroke="#ffffff" stroke-width="1.418164" stroke-opacity="1" stroke-miterlimit="4"/></g><g clip-path="url(#9816f53e7c)"><path fill="#93d3d9" d="M 1168.152344 452.035156 L 1168.152344 498.144531 L 1216.0625 498.144531 L 1216.0625 452.035156 Z M 1168.152344 452.035156 " fill-opacity="1" fill-rule="nonzero"/></g><g clip-path="url(#cb0e89dacc)"><path fill="#000000" d="M 1168.339844 452.753906 L 1168.339844 497.425781 M 1215.875 452.753906 L 1215.875 497.425781 M 1167.808594 452.222656 L 1216.40625 452.222656 M 1167.808594 497.957031 L 1216.40625 497.957031 " fill-opacity="1" fill-rule="nonzero"/></g><g clip-path="url(#b66238e8a9)"><path stroke-linecap="butt" transform="matrix(0.75, 0, 0, 0.75, 1167.808315, 451.691157)" fill="none" stroke-linejoin="miter" d="M 0.708704 1.416999 L 0.708704 60.979502 M 64.088916 1.416999 L 64.088916 60.979502 M 0.000371038 0.708665 L 64.797249 0.708665 M 0.000371038 61.687835 L 64.797249 61.687835 " stroke="#ffffff" stroke-width="1.418164" stroke-opacity="1" stroke-miterlimit="4"/></g><g clip-path="url(#0f70354d96)"><g clip-path="url(#5e934e3daa)"><path fill="#a6a6a6" d="M 1130.011719 226.445312 L 1143.511719 226.445312 L 1143.511719 230.945312 L 1130.011719 230.945312 Z M 1145.761719 226.445312 L 1159.261719 226.445312 L 1159.261719 230.945312 L 1145.761719 230.945312 Z M 1161.511719 226.445312 L 1175.011719 226.445312 L 1175.011719 230.945312 L 1161.511719 230.945312 Z M 1177.261719 226.445312 L 1190.761719 226.445312 L 1190.761719 230.945312 L 1177.261719 230.945312 Z M 1193.011719 226.445312 L 1206.511719 226.445312 L 1206.511719 230.945312 L 1193.011719 230.945312 Z M 1208.761719 226.445312 L 1222.261719 226.445312 L 1222.261719 230.945312 L 1208.761719 230.945312 Z M 1224.511719 226.445312 L 1238.011719 226.445312 L 1238.011719 230.945312 L 1224.511719 230.945312 Z M 1240.261719 226.445312 L 1253.761719 226.445312 L 1253.761719 230.945312 L 1240.261719 230.945312 Z M 1256.011719 226.445312 L 1269.511719 226.445312 L 1269.511719 230.945312 L 1256.011719 230.945312 Z M 1271.761719 226.445312 L 1285.261719 226.445312 L 1285.261719 230.945312 L 1271.761719 230.945312 Z M 1287.511719 226.445312 L 1301.011719 226.445312 L 1301.011719 230.945312 L 1287.511719 230.945312 Z M 1303.261719 226.445312 L 1316.761719 226.445312 L 1316.761719 230.945312 L 1303.261719 230.945312 Z M 1319.011719 226.445312 L 1332.511719 226.445312 L 1332.511719 230.945312 L 1319.011719 230.945312 Z M 1334.761719 226.445312 L 1348.261719 226.445312 L 1348.261719 230.945312 L 1334.761719 230.945312 Z M 1350.511719 226.445312 L 1364.011719 226.445312 L 1364.011719 230.945312 L 1350.511719 230.945312 Z M 1366.261719 226.445312 L 1379.761719 226.445312 L 1379.761719 230.945312 L 1366.261719 230.945312 Z M 1382.011719 226.445312 L 1394.433594 226.445312 C 1394.839844 226.445312 1395.242188 226.457031 1395.644531 226.476562 L 1395.394531 230.972656 C 1395.074219 230.953125 1394.753906 230.945312 1394.433594 230.945312 L 1382.011719 230.945312 Z M 1398.136719 226.761719 C 1402.667969 227.546875 1406.5625 229.5625 1409.8125 232.816406 C 1410.21875 233.222656 1410.609375 233.644531 1410.984375 234.082031 L 1407.558594 237.003906 C 1407.265625 236.65625 1406.953125 236.320312 1406.632812 235.996094 C 1404.050781 233.417969 1400.964844 231.816406 1397.371094 231.195312 Z M 1412.496094 236.078125 C 1414.953125 239.742188 1416.183594 243.78125 1416.183594 248.195312 L 1416.183594 250.191406 L 1411.683594 250.191406 L 1411.683594 248.195312 C 1411.683594 244.695312 1410.710938 241.492188 1408.761719 238.585938 Z M 1416.183594 252.441406 L 1416.183594 265.941406 L 1411.683594 265.941406 L 1411.683594 252.441406 Z M 1416.183594 268.191406 L 1416.183594 281.691406 L 1411.683594 281.691406 L 1411.683594 268.191406 Z M 1416.183594 283.941406 L 1416.183594 297.441406 L 1411.683594 297.441406 L 1411.683594 283.941406 Z M 1416.183594 299.691406 L 1416.183594 313.191406 L 1411.683594 313.191406 L 1411.683594 299.691406 Z M 1416.183594 315.441406 L 1416.183594 328.941406 L 1411.683594 328.941406 L 1411.683594 315.441406 Z M 1416.183594 331.191406 L 1416.183594 344.691406 L 1411.683594 344.691406 L 1411.683594 331.191406 Z M 1416.183594 346.941406 L 1416.183594 360.441406 L 1411.683594 360.441406 L 1411.683594 346.941406 Z M 1416.183594 362.691406 L 1416.183594 376.191406 L 1411.683594 376.191406 L 1411.683594 362.691406 Z M 1416.183594 378.441406 L 1416.183594 391.941406 L 1411.683594 391.941406 L 1411.683594 378.441406 Z M 1416.183594 394.191406 L 1416.183594 407.691406 L 1411.683594 407.691406 L 1411.683594 394.191406 Z M 1416.183594 409.941406 L 1416.183594 423.441406 L 1411.683594 423.441406 L 1411.683594 409.941406 Z M 1416.183594 425.691406 L 1416.183594 439.191406 L 1411.683594 439.191406 L 1411.683594 425.691406 Z M 1416.183594 441.441406 L 1416.183594 454.941406 L 1411.683594 454.941406 L 1411.683594 441.441406 Z M 1416.183594 457.191406 L 1416.183594 470.691406 L 1411.683594 470.691406 L 1411.683594 457.191406 Z M 1416.183594 472.941406 L 1416.183594 486.441406 L 1411.683594 486.441406 L 1411.683594 472.941406 Z M 1416.183594 488.691406 L 1416.183594 498.097656 C 1416.183594 499.628906 1416.023438 501.144531 1415.703125 502.640625 L 1411.304688 501.699219 C 1411.558594 500.511719 1411.683594 499.3125 1411.683594 498.097656 L 1411.683594 488.691406 Z M 1415.039062 505.0625 C 1413.953125 508.273438 1412.210938 511.078125 1409.8125 513.476562 C 1408.609375 514.683594 1407.277344 515.730469 1405.828125 516.625 L 1403.46875 512.789062 C 1404.621094 512.082031 1405.675781 511.25 1406.632812 510.292969 C 1408.53125 508.394531 1409.914062 506.167969 1410.773438 503.621094 Z M 1403.617188 517.8125 C 1400.703125 519.167969 1397.644531 519.847656 1394.433594 519.847656 L 1389.417969 519.847656 L 1389.417969 515.347656 L 1394.433594 515.347656 C 1396.980469 515.347656 1399.40625 514.808594 1401.714844 513.734375 Z M 1387.167969 519.847656 L 1373.667969 519.847656 L 1373.667969 515.347656 L 1387.167969 515.347656 Z M 1371.417969 519.847656 L 1357.917969 519.847656 L 1357.917969 515.347656 L 1371.417969 515.347656 Z M 1355.667969 519.847656 L 1342.167969 519.847656 L 1342.167969 515.347656 L 1355.667969 515.347656 Z M 1339.917969 519.847656 L 1326.417969 519.847656 L 1326.417969 515.347656 L 1339.917969 515.347656 Z M 1324.167969 519.847656 L 1310.667969 519.847656 L 1310.667969 515.347656 L 1324.167969 515.347656 Z M 1308.417969 519.847656 L 1294.917969 519.847656 L 1294.917969 515.347656 L 1308.417969 515.347656 Z M 1292.667969 519.847656 L 1279.167969 519.847656 L 1279.167969 515.347656 L 1292.667969 515.347656 Z M 1276.917969 519.847656 L 1263.417969 519.847656 L 1263.417969 515.347656 L 1276.917969 515.347656 Z M 1261.167969 519.847656 L 1247.667969 519.847656 L 1247.667969 515.347656 L 1261.167969 515.347656 Z M 1245.417969 519.847656 L 1231.917969 519.847656 L 1231.917969 515.347656 L 1245.417969 515.347656 Z M 1229.667969 519.847656 L 1216.167969 519.847656 L 1216.167969 515.347656 L 1229.667969 515.347656 Z M 1213.917969 519.847656 L 1200.417969 519.847656 L 1200.417969 515.347656 L 1213.917969 515.347656 Z M 1198.167969 519.847656 L 1184.667969 519.847656 L 1184.667969 515.347656 L 1198.167969 515.347656 Z M 1182.417969 519.847656 L 1168.917969 519.847656 L 1168.917969 515.347656 L 1182.417969 515.347656 Z M 1166.667969 519.847656 L 1153.167969 519.847656 L 1153.167969 515.347656 L 1166.667969 515.347656 Z M 1150.917969 519.847656 L 1137.417969 519.847656 L 1137.417969 515.347656 L 1150.917969 515.347656 Z M 1135.167969 519.847656 L 1121.667969 519.847656 L 1121.667969 515.347656 L 1135.167969 515.347656 Z M 1119.417969 519.847656 L 1114.261719 519.847656 C 1111.109375 519.847656 1108.09375 519.191406 1105.226562 517.878906 L 1107.09375 513.785156 C 1109.371094 514.828125 1111.761719 515.347656 1114.261719 515.347656 L 1119.417969 515.347656 Z M 1103.003906 516.707031 C 1101.5 515.796875 1100.128906 514.71875 1098.882812 513.476562 C 1096.527344 511.117188 1094.800781 508.363281 1093.710938 505.210938 L 1097.960938 503.742188 C 1098.828125 506.238281 1100.195312 508.425781 1102.066406 510.292969 C 1103.050781 511.28125 1104.140625 512.132812 1105.335938 512.855469 Z M 1093.027344 502.792969 C 1092.683594 501.246094 1092.511719 499.683594 1092.511719 498.097656 L 1092.511719 488.835938 L 1097.011719 488.835938 L 1097.011719 498.097656 C 1097.011719 499.355469 1097.148438 500.597656 1097.421875 501.824219 Z M 1092.511719 486.585938 L 1092.511719 473.085938 L 1097.011719 473.085938 L 1097.011719 486.585938 Z M 1092.511719 470.835938 L 1092.511719 457.335938 L 1097.011719 457.335938 L 1097.011719 470.835938 Z M 1092.511719 455.085938 L 1092.511719 441.585938 L 1097.011719 441.585938 L 1097.011719 455.085938 Z M 1092.511719 439.335938 L 1092.511719 425.835938 L 1097.011719 425.835938 L 1097.011719 439.335938 Z M 1092.511719 423.585938 L 1092.511719 410.085938 L 1097.011719 410.085938 L 1097.011719 423.585938 Z M 1092.511719 407.835938 L 1092.511719 394.335938 L 1097.011719 394.335938 L 1097.011719 407.835938 Z M 1092.511719 392.085938 L 1092.511719 378.585938 L 1097.011719 378.585938 L 1097.011719 392.085938 Z M 1092.511719 376.335938 L 1092.511719 362.835938 L 1097.011719 362.835938 L 1097.011719 376.335938 Z M 1092.511719 360.585938 L 1092.511719 347.085938 L 1097.011719 347.085938 L 1097.011719 360.585938 Z M 1092.511719 344.835938 L 1092.511719 331.335938 L 1097.011719 331.335938 L 1097.011719 344.835938 Z M 1092.511719 329.085938 L 1092.511719 315.585938 L 1097.011719 315.585938 L 1097.011719 329.085938 Z M 1092.511719 313.335938 L 1092.511719 299.835938 L 1097.011719 299.835938 L 1097.011719 313.335938 Z M 1092.511719 297.585938 L 1092.511719 284.085938 L 1097.011719 284.085938 L 1097.011719 297.585938 Z M 1092.511719 281.835938 L 1092.511719 268.335938 L 1097.011719 268.335938 L 1097.011719 281.835938 Z M 1092.511719 266.085938 L 1092.511719 252.585938 L 1097.011719 252.585938 L 1097.011719 266.085938 Z M 1092.511719 250.335938 L 1092.511719 248.195312 C 1092.511719 243.839844 1093.714844 239.84375 1096.113281 236.210938 L 1099.867188 238.691406 C 1097.964844 241.574219 1097.011719 244.742188 1097.011719 248.195312 L 1097.011719 250.335938 Z M 1097.609375 234.203125 C 1098.015625 233.722656 1098.4375 233.257812 1098.882812 232.816406 C 1102.09375 229.605469 1105.933594 227.59375 1110.402344 226.789062 L 1111.203125 231.21875 C 1107.65625 231.855469 1104.613281 233.449219 1102.066406 235.996094 C 1101.714844 236.347656 1101.375 236.71875 1101.054688 237.097656 Z M 1112.894531 226.488281 C 1113.347656 226.457031 1113.804688 226.445312 1114.261719 226.445312 L 1127.761719 226.445312 L 1127.761719 230.945312 L 1114.261719 230.945312 C 1113.898438 230.945312 1113.539062 230.957031 1113.175781 230.980469 Z M 1112.894531 226.488281 " fill-opacity="1" fill-rule="nonzero"/></g></g><g clip-path="url(#dd741cfd2c)"><g clip-path="url(#ab70157fd6)"><path fill="#545454" d="M 462.214844 334.949219 L 533.8125 334.949219 L 533.8125 406.546875 L 462.214844 406.546875 Z M 462.214844 334.949219 " fill-opacity="1" fill-rule="nonzero"/></g></g><g clip-path="url(#06256f4ed1)"><path fill="#000000" d="M 641.097656 269.242188 L 641.097656 333.792969 M 727.519531 269.242188 L 727.519531 333.792969 M 638.800781 266.945312 L 729.816406 266.945312 M 638.800781 336.089844 L 729.816406 336.089844 " fill-opacity="1" fill-rule="nonzero"/></g><g clip-path="url(#8c6cfd07e5)"><path stroke-linecap="butt" transform="matrix(0.75, 0, 0, 0.75, 638.801038, 264.645271)" fill="none" stroke-linejoin="miter" d="M 3.062158 6.129223 L 3.062158 92.196935 M 118.29133 6.129223 L 118.29133 92.196935 M -0.000342447 3.066723 L 121.35383 3.066723 M -0.000342447 95.259436 L 121.35383 95.259436 " stroke="#c41919" stroke-width="6.129066" stroke-opacity="1" stroke-miterlimit="4"/></g><g clip-path="url(#24fcaaf605)"><g clip-path="url(#5963e6e3fb)"><path fill="#545454" d="M 124.105469 286.457031 L 154.222656 286.457031 L 154.222656 316.578125 L 124.105469 316.578125 Z M 124.105469 286.457031 " fill-opacity="1" fill-rule="nonzero"/></g></g><g fill="#737373" fill-opacity="1"><g transform="translate(1208.035639, 276.457184)"><g><path d="M 2.65625 0 L 2.65625 -21.140625 L 7.140625 -21.140625 L 7.140625 -3.703125 L 15.71875 -3.703125 L 15.71875 0 Z M 2.65625 0 "/></g></g></g><g fill="#737373" fill-opacity="1"><g transform="translate(1224.753325, 276.457184)"><g><path d="M 9 -13.328125 C 8.070312 -13.328125 7.34375 -13.03125 6.8125 -12.4375 C 6.28125 -11.84375 5.976562 -11.003906 5.90625 -9.921875 L 12.09375 -9.921875 C 12.070312 -11.003906 11.785156 -11.84375 11.234375 -12.4375 C 10.679688 -13.03125 9.9375 -13.328125 9 -13.328125 Z M 9.625 0.296875 C 7.019531 0.296875 4.984375 -0.421875 3.515625 -1.859375 C 2.054688 -3.296875 1.328125 -5.332031 1.328125 -7.96875 C 1.328125 -10.675781 2.003906 -12.769531 3.359375 -14.25 C 4.710938 -15.726562 6.585938 -16.46875 8.984375 -16.46875 C 11.265625 -16.46875 13.039062 -15.816406 14.3125 -14.515625 C 15.582031 -13.210938 16.21875 -11.414062 16.21875 -9.125 L 16.21875 -6.984375 L 5.796875 -6.984375 C 5.847656 -5.734375 6.21875 -4.753906 6.90625 -4.046875 C 7.601562 -3.347656 8.578125 -3 9.828125 -3 C 10.804688 -3 11.726562 -3.097656 12.59375 -3.296875 C 13.457031 -3.492188 14.363281 -3.816406 15.3125 -4.265625 L 15.3125 -0.859375 C 14.539062 -0.472656 13.710938 -0.1875 12.828125 0 C 11.953125 0.195312 10.882812 0.296875 9.625 0.296875 Z M 9.625 0.296875 "/></g></g></g><g fill="#737373" fill-opacity="1"><g transform="translate(1242.236816, 276.457184)"><g><path d="M 0 -16.15625 L 4.828125 -16.15625 L 7.875 -7.0625 C 8.132812 -6.28125 8.316406 -5.347656 8.421875 -4.265625 L 8.5 -4.265625 C 8.601562 -5.253906 8.8125 -6.1875 9.125 -7.0625 L 12.109375 -16.15625 L 16.84375 -16.15625 L 10 2.0625 C 9.375 3.75 8.476562 5.007812 7.3125 5.84375 C 6.15625 6.6875 4.800781 7.109375 3.25 7.109375 C 2.488281 7.109375 1.742188 7.03125 1.015625 6.875 L 1.015625 3.375 C 1.546875 3.5 2.125 3.5625 2.75 3.5625 C 3.53125 3.5625 4.210938 3.320312 4.796875 2.84375 C 5.378906 2.363281 5.832031 1.640625 6.15625 0.671875 L 6.421875 -0.109375 Z M 0 -16.15625 "/></g></g></g><g fill="#737373" fill-opacity="1"><g transform="translate(1259.070096, 276.457184)"><g><path d="M 9 -13.328125 C 8.070312 -13.328125 7.34375 -13.03125 6.8125 -12.4375 C 6.28125 -11.84375 5.976562 -11.003906 5.90625 -9.921875 L 12.09375 -9.921875 C 12.070312 -11.003906 11.785156 -11.84375 11.234375 -12.4375 C 10.679688 -13.03125 9.9375 -13.328125 9 -13.328125 Z M 9.625 0.296875 C 7.019531 0.296875 4.984375 -0.421875 3.515625 -1.859375 C 2.054688 -3.296875 1.328125 -5.332031 1.328125 -7.96875 C 1.328125 -10.675781 2.003906 -12.769531 3.359375 -14.25 C 4.710938 -15.726562 6.585938 -16.46875 8.984375 -16.46875 C 11.265625 -16.46875 13.039062 -15.816406 14.3125 -14.515625 C 15.582031 -13.210938 16.21875 -11.414062 16.21875 -9.125 L 16.21875 -6.984375 L 5.796875 -6.984375 C 5.847656 -5.734375 6.21875 -4.753906 6.90625 -4.046875 C 7.601562 -3.347656 8.578125 -3 9.828125 -3 C 10.804688 -3 11.726562 -3.097656 12.59375 -3.296875 C 13.457031 -3.492188 14.363281 -3.816406 15.3125 -4.265625 L 15.3125 -0.859375 C 14.539062 -0.472656 13.710938 -0.1875 12.828125 0 C 11.953125 0.195312 10.882812 0.296875 9.625 0.296875 Z M 9.625 0.296875 "/></g></g></g><g fill="#737373" fill-opacity="1"><g transform="translate(1276.553587, 276.457184)"><g><path d="M 17.234375 0 L 12.828125 0 L 12.828125 -9.4375 C 12.828125 -10.601562 12.617188 -11.476562 12.203125 -12.0625 C 11.785156 -12.644531 11.125 -12.9375 10.21875 -12.9375 C 8.988281 -12.9375 8.097656 -12.523438 7.546875 -11.703125 C 6.992188 -10.878906 6.71875 -9.515625 6.71875 -7.609375 L 6.71875 0 L 2.3125 0 L 2.3125 -16.15625 L 5.6875 -16.15625 L 6.28125 -14.09375 L 6.515625 -14.09375 C 7.003906 -14.875 7.679688 -15.460938 8.546875 -15.859375 C 9.410156 -16.265625 10.394531 -16.46875 11.5 -16.46875 C 13.375 -16.46875 14.796875 -15.957031 15.765625 -14.9375 C 16.742188 -13.925781 17.234375 -12.460938 17.234375 -10.546875 Z M 17.234375 0 "/></g></g></g><g fill="#737373" fill-opacity="1"><g transform="translate(1296.002166, 276.457184)"><g><path d="M 7.4375 0.296875 C 5.53125 0.296875 4.035156 -0.441406 2.953125 -1.921875 C 1.867188 -3.398438 1.328125 -5.441406 1.328125 -8.046875 C 1.328125 -10.703125 1.878906 -12.769531 2.984375 -14.25 C 4.085938 -15.726562 5.609375 -16.46875 7.546875 -16.46875 C 9.578125 -16.46875 11.128906 -15.675781 12.203125 -14.09375 L 12.34375 -14.09375 C 12.125 -15.300781 12.015625 -16.378906 12.015625 -17.328125 L 12.015625 -22.5 L 16.4375 -22.5 L 16.4375 0 L 13.0625 0 L 12.203125 -2.09375 L 12.015625 -2.09375 C 11.015625 -0.5 9.488281 0.296875 7.4375 0.296875 Z M 8.984375 -3.21875 C 10.109375 -3.21875 10.929688 -3.546875 11.453125 -4.203125 C 11.984375 -4.859375 12.269531 -5.972656 12.3125 -7.546875 L 12.3125 -8.03125 C 12.3125 -9.757812 12.046875 -11 11.515625 -11.75 C 10.984375 -12.5 10.113281 -12.875 8.90625 -12.875 C 7.925781 -12.875 7.160156 -12.457031 6.609375 -11.625 C 6.066406 -10.789062 5.796875 -9.582031 5.796875 -8 C 5.796875 -6.40625 6.070312 -5.207031 6.625 -4.40625 C 7.175781 -3.613281 7.960938 -3.21875 8.984375 -3.21875 Z M 8.984375 -3.21875 "/></g></g></g><g fill="#737373" fill-opacity="1"><g transform="translate(1314.728285, 276.457184)"><g><path d="M 12.578125 0 L 11.71875 -2.203125 L 11.609375 -2.203125 C 10.867188 -1.265625 10.101562 -0.613281 9.3125 -0.25 C 8.53125 0.113281 7.507812 0.296875 6.25 0.296875 C 4.695312 0.296875 3.472656 -0.144531 2.578125 -1.03125 C 1.691406 -1.925781 1.25 -3.191406 1.25 -4.828125 C 1.25 -6.546875 1.847656 -7.8125 3.046875 -8.625 C 4.242188 -9.4375 6.050781 -9.882812 8.46875 -9.96875 L 11.28125 -10.0625 L 11.28125 -10.765625 C 11.28125 -12.410156 10.441406 -13.234375 8.765625 -13.234375 C 7.472656 -13.234375 5.953125 -12.84375 4.203125 -12.0625 L 2.75 -15.03125 C 4.601562 -16.007812 6.664062 -16.5 8.9375 -16.5 C 11.101562 -16.5 12.765625 -16.023438 13.921875 -15.078125 C 15.078125 -14.128906 15.65625 -12.691406 15.65625 -10.765625 L 15.65625 0 Z M 11.28125 -7.484375 L 9.578125 -7.4375 C 8.285156 -7.394531 7.328125 -7.160156 6.703125 -6.734375 C 6.078125 -6.304688 5.765625 -5.660156 5.765625 -4.796875 C 5.765625 -3.554688 6.476562 -2.9375 7.90625 -2.9375 C 8.925781 -2.9375 9.742188 -3.226562 10.359375 -3.8125 C 10.972656 -4.40625 11.28125 -5.1875 11.28125 -6.15625 Z M 11.28125 -7.484375 "/></g></g></g><g fill="#737373" fill-opacity="1"><g transform="translate(1242.100877, 346.38816)"><g><path d="M 16.734375 0 L 14.3125 0 L 4.359375 -15.28125 L 4.265625 -15.28125 C 4.390625 -13.488281 4.453125 -11.847656 4.453125 -10.359375 L 4.453125 0 L 2.5 0 L 2.5 -18.21875 L 4.890625 -18.21875 L 14.828125 -2.984375 L 14.921875 -2.984375 C 14.910156 -3.210938 14.875 -3.9375 14.8125 -5.15625 C 14.75 -6.375 14.726562 -7.242188 14.75 -7.765625 L 14.75 -18.21875 L 16.734375 -18.21875 Z M 16.734375 0 "/></g></g></g><g fill="#737373" fill-opacity="1"><g transform="translate(1261.32388, 346.38816)"><g><path d="M 13.984375 -6.84375 C 13.984375 -4.613281 13.421875 -2.875 12.296875 -1.625 C 11.171875 -0.375 9.625 0.25 7.65625 0.25 C 6.425781 0.25 5.335938 -0.0351562 4.390625 -0.609375 C 3.453125 -1.179688 2.722656 -2.003906 2.203125 -3.078125 C 1.691406 -4.148438 1.4375 -5.40625 1.4375 -6.84375 C 1.4375 -9.0625 1.988281 -10.789062 3.09375 -12.03125 C 4.207031 -13.28125 5.753906 -13.90625 7.734375 -13.90625 C 9.648438 -13.90625 11.171875 -13.269531 12.296875 -12 C 13.421875 -10.726562 13.984375 -9.007812 13.984375 -6.84375 Z M 3.578125 -6.84375 C 3.578125 -5.09375 3.925781 -3.757812 4.625 -2.84375 C 5.320312 -1.9375 6.347656 -1.484375 7.703125 -1.484375 C 9.054688 -1.484375 10.082031 -1.9375 10.78125 -2.84375 C 11.476562 -3.757812 11.828125 -5.09375 11.828125 -6.84375 C 11.828125 -8.570312 11.476562 -9.882812 10.78125 -10.78125 C 10.082031 -11.6875 9.046875 -12.140625 7.671875 -12.140625 C 6.316406 -12.140625 5.296875 -11.695312 4.609375 -10.8125 C 3.921875 -9.925781 3.578125 -8.601562 3.578125 -6.84375 Z M 3.578125 -6.84375 "/></g></g></g><g fill="#737373" fill-opacity="1"><g transform="translate(1276.724705, 346.38816)"><g/></g></g><g fill="#737373" fill-opacity="1"><g transform="translate(1283.348175, 346.38816)"><g><path d="M 11.484375 -1.828125 L 11.375 -1.828125 C 10.414062 -0.441406 8.988281 0.25 7.09375 0.25 C 5.300781 0.25 3.910156 -0.359375 2.921875 -1.578125 C 1.929688 -2.796875 1.4375 -4.535156 1.4375 -6.796875 C 1.4375 -9.046875 1.929688 -10.789062 2.921875 -12.03125 C 3.921875 -13.28125 5.3125 -13.90625 7.09375 -13.90625 C 8.945312 -13.90625 10.363281 -13.234375 11.34375 -11.890625 L 11.515625 -11.890625 L 11.421875 -12.875 L 11.375 -13.828125 L 11.375 -19.390625 L 13.4375 -19.390625 L 13.4375 0 L 11.765625 0 Z M 7.34375 -1.484375 C 8.757812 -1.484375 9.785156 -1.863281 10.421875 -2.625 C 11.054688 -3.394531 11.375 -4.640625 11.375 -6.359375 L 11.375 -6.796875 C 11.375 -8.722656 11.050781 -10.097656 10.40625 -10.921875 C 9.757812 -11.753906 8.734375 -12.171875 7.328125 -12.171875 C 6.109375 -12.171875 5.175781 -11.695312 4.53125 -10.75 C 3.894531 -9.8125 3.578125 -8.484375 3.578125 -6.765625 C 3.578125 -5.023438 3.894531 -3.707031 4.53125 -2.8125 C 5.175781 -1.925781 6.113281 -1.484375 7.34375 -1.484375 Z M 7.34375 -1.484375 "/></g></g></g><g fill="#737373" fill-opacity="1"><g transform="translate(1298.973101, 346.38816)"><g><path d="M 10.59375 0 L 10.171875 -1.9375 L 10.078125 -1.9375 C 9.398438 -1.082031 8.722656 -0.503906 8.046875 -0.203125 C 7.367188 0.0976562 6.519531 0.25 5.5 0.25 C 4.144531 0.25 3.082031 -0.0976562 2.3125 -0.796875 C 1.550781 -1.492188 1.171875 -2.488281 1.171875 -3.78125 C 1.171875 -6.53125 3.375 -7.972656 7.78125 -8.109375 L 10.109375 -8.1875 L 10.109375 -9.03125 C 10.109375 -10.101562 9.875 -10.894531 9.40625 -11.40625 C 8.945312 -11.914062 8.210938 -12.171875 7.203125 -12.171875 C 6.066406 -12.171875 4.78125 -11.820312 3.34375 -11.125 L 2.703125 -12.703125 C 3.378906 -13.066406 4.117188 -13.351562 4.921875 -13.5625 C 5.722656 -13.769531 6.523438 -13.875 7.328125 -13.875 C 8.953125 -13.875 10.15625 -13.515625 10.9375 -12.796875 C 11.726562 -12.078125 12.125 -10.914062 12.125 -9.3125 L 12.125 0 Z M 5.921875 -1.453125 C 7.203125 -1.453125 8.207031 -1.804688 8.9375 -2.515625 C 9.675781 -3.222656 10.046875 -4.210938 10.046875 -5.484375 L 10.046875 -6.71875 L 7.984375 -6.625 C 6.335938 -6.570312 5.148438 -6.316406 4.421875 -5.859375 C 3.703125 -5.410156 3.34375 -4.707031 3.34375 -3.75 C 3.34375 -3 3.566406 -2.425781 4.015625 -2.03125 C 4.472656 -1.644531 5.109375 -1.453125 5.921875 -1.453125 Z M 5.921875 -1.453125 "/></g></g></g><g fill="#737373" fill-opacity="1"><g transform="translate(1313.153812, 346.38816)"><g><path d="M 6.609375 -1.453125 C 6.972656 -1.453125 7.320312 -1.476562 7.65625 -1.53125 C 8 -1.59375 8.269531 -1.648438 8.46875 -1.703125 L 8.46875 -0.125 C 8.25 -0.0195312 7.921875 0.0664062 7.484375 0.140625 C 7.046875 0.210938 6.648438 0.25 6.296875 0.25 C 3.660156 0.25 2.34375 -1.140625 2.34375 -3.921875 L 2.34375 -12.046875 L 0.390625 -12.046875 L 0.390625 -13.046875 L 2.34375 -13.90625 L 3.21875 -16.8125 L 4.40625 -16.8125 L 4.40625 -13.65625 L 8.375 -13.65625 L 8.375 -12.046875 L 4.40625 -12.046875 L 4.40625 -4.015625 C 4.40625 -3.191406 4.597656 -2.554688 4.984375 -2.109375 C 5.378906 -1.671875 5.921875 -1.453125 6.609375 -1.453125 Z M 6.609375 -1.453125 "/></g></g></g><g fill="#737373" fill-opacity="1"><g transform="translate(1322.155269, 346.38816)"><g><path d="M 10.59375 0 L 10.171875 -1.9375 L 10.078125 -1.9375 C 9.398438 -1.082031 8.722656 -0.503906 8.046875 -0.203125 C 7.367188 0.0976562 6.519531 0.25 5.5 0.25 C 4.144531 0.25 3.082031 -0.0976562 2.3125 -0.796875 C 1.550781 -1.492188 1.171875 -2.488281 1.171875 -3.78125 C 1.171875 -6.53125 3.375 -7.972656 7.78125 -8.109375 L 10.109375 -8.1875 L 10.109375 -9.03125 C 10.109375 -10.101562 9.875 -10.894531 9.40625 -11.40625 C 8.945312 -11.914062 8.210938 -12.171875 7.203125 -12.171875 C 6.066406 -12.171875 4.78125 -11.820312 3.34375 -11.125 L 2.703125 -12.703125 C 3.378906 -13.066406 4.117188 -13.351562 4.921875 -13.5625 C 5.722656 -13.769531 6.523438 -13.875 7.328125 -13.875 C 8.953125 -13.875 10.15625 -13.515625 10.9375 -12.796875 C 11.726562 -12.078125 12.125 -10.914062 12.125 -9.3125 L 12.125 0 Z M 5.921875 -1.453125 C 7.203125 -1.453125 8.207031 -1.804688 8.9375 -2.515625 C 9.675781 -3.222656 10.046875 -4.210938 10.046875 -5.484375 L 10.046875 -6.71875 L 7.984375 -6.625 C 6.335938 -6.570312 5.148438 -6.316406 4.421875 -5.859375 C 3.703125 -5.410156 3.34375 -4.707031 3.34375 -3.75 C 3.34375 -3 3.566406 -2.425781 4.015625 -2.03125 C 4.472656 -1.644531 5.109375 -1.453125 5.921875 -1.453125 Z M 5.921875 -1.453125 "/></g></g></g><g fill="#737373" fill-opacity="1"><g transform="translate(1242.100877, 485.050623)"><g><path d="M 16.734375 0 L 14.3125 0 L 4.359375 -15.28125 L 4.265625 -15.28125 C 4.390625 -13.488281 4.453125 -11.847656 4.453125 -10.359375 L 4.453125 0 L 2.5 0 L 2.5 -18.21875 L 4.890625 -18.21875 L 14.828125 -2.984375 L 14.921875 -2.984375 C 14.910156 -3.210938 14.875 -3.9375 14.8125 -5.15625 C 14.75 -6.375 14.726562 -7.242188 14.75 -7.765625 L 14.75 -18.21875 L 16.734375 -18.21875 Z M 16.734375 0 "/></g></g></g><g fill="#737373" fill-opacity="1"><g transform="translate(1261.32388, 485.050623)"><g><path d="M 4.265625 0 L 2.1875 0 L 2.1875 -13.65625 L 4.265625 -13.65625 Z M 2.015625 -17.359375 C 2.015625 -17.828125 2.128906 -18.171875 2.359375 -18.390625 C 2.597656 -18.609375 2.890625 -18.71875 3.234375 -18.71875 C 3.566406 -18.71875 3.851562 -18.601562 4.09375 -18.375 C 4.332031 -18.15625 4.453125 -17.816406 4.453125 -17.359375 C 4.453125 -16.890625 4.332031 -16.539062 4.09375 -16.3125 C 3.851562 -16.082031 3.566406 -15.96875 3.234375 -15.96875 C 2.890625 -15.96875 2.597656 -16.082031 2.359375 -16.3125 C 2.128906 -16.539062 2.015625 -16.890625 2.015625 -17.359375 Z M 2.015625 -17.359375 "/></g></g></g><g fill="#737373" fill-opacity="1"><g transform="translate(1267.773048, 485.050623)"><g><path d="M 7.96875 0.25 C 5.945312 0.25 4.351562 -0.363281 3.1875 -1.59375 C 2.019531 -2.820312 1.4375 -4.53125 1.4375 -6.71875 C 1.4375 -8.914062 1.976562 -10.660156 3.0625 -11.953125 C 4.144531 -13.253906 5.597656 -13.90625 7.421875 -13.90625 C 9.128906 -13.90625 10.484375 -13.34375 11.484375 -12.21875 C 12.484375 -11.09375 12.984375 -9.609375 12.984375 -7.765625 L 12.984375 -6.453125 L 3.578125 -6.453125 C 3.617188 -4.847656 4.019531 -3.628906 4.78125 -2.796875 C 5.550781 -1.972656 6.632812 -1.5625 8.03125 -1.5625 C 9.5 -1.5625 10.953125 -1.867188 12.390625 -2.484375 L 12.390625 -0.640625 C 11.660156 -0.316406 10.96875 -0.0859375 10.3125 0.046875 C 9.664062 0.179688 8.882812 0.25 7.96875 0.25 Z M 7.40625 -12.171875 C 6.300781 -12.171875 5.421875 -11.8125 4.765625 -11.09375 C 4.117188 -10.382812 3.738281 -9.398438 3.625 -8.140625 L 10.765625 -8.140625 C 10.765625 -9.441406 10.472656 -10.4375 9.890625 -11.125 C 9.304688 -11.820312 8.476562 -12.171875 7.40625 -12.171875 Z M 7.40625 -12.171875 "/></g></g></g><g fill="#737373" fill-opacity="1"><g transform="translate(1282.078261, 485.050623)"><g><path d="M 5.1875 0 L 0 -13.65625 L 2.21875 -13.65625 L 5.15625 -5.5625 C 5.820312 -3.664062 6.210938 -2.4375 6.328125 -1.875 L 6.421875 -1.875 C 6.515625 -2.3125 6.804688 -3.21875 7.296875 -4.59375 C 7.785156 -5.976562 8.875 -9 10.5625 -13.65625 L 12.78125 -13.65625 L 7.59375 0 Z M 5.1875 0 "/></g></g></g><g fill="#737373" fill-opacity="1"><g transform="translate(1294.852096, 485.050623)"><g><path d="M 7.96875 0.25 C 5.945312 0.25 4.351562 -0.363281 3.1875 -1.59375 C 2.019531 -2.820312 1.4375 -4.53125 1.4375 -6.71875 C 1.4375 -8.914062 1.976562 -10.660156 3.0625 -11.953125 C 4.144531 -13.253906 5.597656 -13.90625 7.421875 -13.90625 C 9.128906 -13.90625 10.484375 -13.34375 11.484375 -12.21875 C 12.484375 -11.09375 12.984375 -9.609375 12.984375 -7.765625 L 12.984375 -6.453125 L 3.578125 -6.453125 C 3.617188 -4.847656 4.019531 -3.628906 4.78125 -2.796875 C 5.550781 -1.972656 6.632812 -1.5625 8.03125 -1.5625 C 9.5 -1.5625 10.953125 -1.867188 12.390625 -2.484375 L 12.390625 -0.640625 C 11.660156 -0.316406 10.96875 -0.0859375 10.3125 0.046875 C 9.664062 0.179688 8.882812 0.25 7.96875 0.25 Z M 7.40625 -12.171875 C 6.300781 -12.171875 5.421875 -11.8125 4.765625 -11.09375 C 4.117188 -10.382812 3.738281 -9.398438 3.625 -8.140625 L 10.765625 -8.140625 C 10.765625 -9.441406 10.472656 -10.4375 9.890625 -11.125 C 9.304688 -11.820312 8.476562 -12.171875 7.40625 -12.171875 Z M 7.40625 -12.171875 "/></g></g></g><g fill="#737373" fill-opacity="1"><g transform="translate(1242.100877, 415.91512)"><g><path d="M 8.109375 0 L 6 0 L 6 -16.328125 L 0.21875 -16.328125 L 0.21875 -18.21875 L 13.875 -18.21875 L 13.875 -16.328125 L 8.109375 -16.328125 Z M 8.109375 0 "/></g></g></g><g fill="#737373" fill-opacity="1"><g transform="translate(1256.206888, 415.91512)"><g><path d="M 4.265625 0 L 2.1875 0 L 2.1875 -13.65625 L 4.265625 -13.65625 Z M 2.015625 -17.359375 C 2.015625 -17.828125 2.128906 -18.171875 2.359375 -18.390625 C 2.597656 -18.609375 2.890625 -18.71875 3.234375 -18.71875 C 3.566406 -18.71875 3.851562 -18.601562 4.09375 -18.375 C 4.332031 -18.15625 4.453125 -17.816406 4.453125 -17.359375 C 4.453125 -16.890625 4.332031 -16.539062 4.09375 -16.3125 C 3.851562 -16.082031 3.566406 -15.96875 3.234375 -15.96875 C 2.890625 -15.96875 2.597656 -16.082031 2.359375 -16.3125 C 2.128906 -16.539062 2.015625 -16.890625 2.015625 -17.359375 Z M 2.015625 -17.359375 "/></g></g></g><g fill="#737373" fill-opacity="1"><g transform="translate(1262.656056, 415.91512)"><g><path d="M 7.96875 0.25 C 5.945312 0.25 4.351562 -0.363281 3.1875 -1.59375 C 2.019531 -2.820312 1.4375 -4.53125 1.4375 -6.71875 C 1.4375 -8.914062 1.976562 -10.660156 3.0625 -11.953125 C 4.144531 -13.253906 5.597656 -13.90625 7.421875 -13.90625 C 9.128906 -13.90625 10.484375 -13.34375 11.484375 -12.21875 C 12.484375 -11.09375 12.984375 -9.609375 12.984375 -7.765625 L 12.984375 -6.453125 L 3.578125 -6.453125 C 3.617188 -4.847656 4.019531 -3.628906 4.78125 -2.796875 C 5.550781 -1.972656 6.632812 -1.5625 8.03125 -1.5625 C 9.5 -1.5625 10.953125 -1.867188 12.390625 -2.484375 L 12.390625 -0.640625 C 11.660156 -0.316406 10.96875 -0.0859375 10.3125 0.046875 C 9.664062 0.179688 8.882812 0.25 7.96875 0.25 Z M 7.40625 -12.171875 C 6.300781 -12.171875 5.421875 -11.8125 4.765625 -11.09375 C 4.117188 -10.382812 3.738281 -9.398438 3.625 -8.140625 L 10.765625 -8.140625 C 10.765625 -9.441406 10.472656 -10.4375 9.890625 -11.125 C 9.304688 -11.820312 8.476562 -12.171875 7.40625 -12.171875 Z M 7.40625 -12.171875 "/></g></g></g><g fill="#737373" fill-opacity="1"><g transform="translate(1276.961269, 415.91512)"><g><path d="M 8.421875 -13.90625 C 9.023438 -13.90625 9.566406 -13.851562 10.046875 -13.75 L 9.765625 -11.828125 C 9.203125 -11.953125 8.703125 -12.015625 8.265625 -12.015625 C 7.160156 -12.015625 6.21875 -11.566406 5.4375 -10.671875 C 4.65625 -9.773438 4.265625 -8.660156 4.265625 -7.328125 L 4.265625 0 L 2.1875 0 L 2.1875 -13.65625 L 3.90625 -13.65625 L 4.140625 -11.125 L 4.234375 -11.125 C 4.742188 -12.007812 5.351562 -12.691406 6.0625 -13.171875 C 6.78125 -13.660156 7.566406 -13.90625 8.421875 -13.90625 Z M 8.421875 -13.90625 "/></g></g></g><g fill="#737373" fill-opacity="1"><g transform="translate(1287.369579, 415.91512)"><g><path d="M 8.421875 -13.90625 C 9.023438 -13.90625 9.566406 -13.851562 10.046875 -13.75 L 9.765625 -11.828125 C 9.203125 -11.953125 8.703125 -12.015625 8.265625 -12.015625 C 7.160156 -12.015625 6.21875 -11.566406 5.4375 -10.671875 C 4.65625 -9.773438 4.265625 -8.660156 4.265625 -7.328125 L 4.265625 0 L 2.1875 0 L 2.1875 -13.65625 L 3.90625 -13.65625 L 4.140625 -11.125 L 4.234375 -11.125 C 4.742188 -12.007812 5.351562 -12.691406 6.0625 -13.171875 C 6.78125 -13.660156 7.566406 -13.90625 8.421875 -13.90625 Z M 8.421875 -13.90625 "/></g></g></g><g fill="#737373" fill-opacity="1"><g transform="translate(1297.777888, 415.91512)"><g><path d="M 10.59375 0 L 10.171875 -1.9375 L 10.078125 -1.9375 C 9.398438 -1.082031 8.722656 -0.503906 8.046875 -0.203125 C 7.367188 0.0976562 6.519531 0.25 5.5 0.25 C 4.144531 0.25 3.082031 -0.0976562 2.3125 -0.796875 C 1.550781 -1.492188 1.171875 -2.488281 1.171875 -3.78125 C 1.171875 -6.53125 3.375 -7.972656 7.78125 -8.109375 L 10.109375 -8.1875 L 10.109375 -9.03125 C 10.109375 -10.101562 9.875 -10.894531 9.40625 -11.40625 C 8.945312 -11.914062 8.210938 -12.171875 7.203125 -12.171875 C 6.066406 -12.171875 4.78125 -11.820312 3.34375 -11.125 L 2.703125 -12.703125 C 3.378906 -13.066406 4.117188 -13.351562 4.921875 -13.5625 C 5.722656 -13.769531 6.523438 -13.875 7.328125 -13.875 C 8.953125 -13.875 10.15625 -13.515625 10.9375 -12.796875 C 11.726562 -12.078125 12.125 -10.914062 12.125 -9.3125 L 12.125 0 Z M 5.921875 -1.453125 C 7.203125 -1.453125 8.207031 -1.804688 8.9375 -2.515625 C 9.675781 -3.222656 10.046875 -4.210938 10.046875 -5.484375 L 10.046875 -6.71875 L 7.984375 -6.625 C 6.335938 -6.570312 5.148438 -6.316406 4.421875 -5.859375 C 3.703125 -5.410156 3.34375 -4.707031 3.34375 -3.75 C 3.34375 -3 3.566406 -2.425781 4.015625 -2.03125 C 4.472656 -1.644531 5.109375 -1.453125 5.921875 -1.453125 Z M 5.921875 -1.453125 "/></g></g></g><path stroke-linecap="butt" transform="matrix(0, -0.75, 0.75, 0, 136.162807, 286.457026)" fill="none" stroke-linejoin="miter" d="M -0.00000648169 4.001675 L 73.015622 4.001675 " stroke="#545454" stroke-width="8" stroke-opacity="1" stroke-miterlimit="4"/><path stroke-linecap="round" transform="matrix(0, -0.75, 0.75, 0, 136.162807, 286.457026)" fill="none" stroke-linejoin="round" d="M 57.015621 -7.998326 L 73.015622 4.001675 L 57.015621 16.001675 " stroke="#545454" stroke-width="8" stroke-opacity="1" stroke-miterlimit="4"/><path stroke-linecap="butt" transform="matrix(-0.75, 0, 0, -0.75, 124.094971, 304.517729)" fill="none" stroke-linejoin="miter" d="M 0.00162824 3.997597 L 73.433924 3.997597 " stroke="#545454" stroke-width="8" stroke-opacity="1" stroke-miterlimit="4"/><path stroke-linecap="round" transform="matrix(-0.75, 0, 0, -0.75, 124.094971, 304.517729)" fill="none" stroke-linejoin="round" d="M 57.433923 -8.002404 L 73.433924 3.997597 L 57.433923 15.997597 " stroke="#545454" stroke-width="8" stroke-opacity="1" stroke-miterlimit="4"/><path stroke-linecap="butt" transform="matrix(0, 0.75, -0.75, 0, 142.160404, 316.580834)" fill="none" stroke-linejoin="miter" d="M 0.00159677 4.00033 L 56.709933 4.00033 " stroke="#545454" stroke-width="8" stroke-opacity="1" stroke-miterlimit="4"/><path stroke-linecap="round" transform="matrix(0, 0.75, -0.75, 0, 142.160404, 316.580834)" fill="none" stroke-linejoin="round" d="M 40.709932 -7.99967 L 56.709933 4.00033 L 40.709932 16.000331 " stroke="#545454" stroke-width="8" stroke-opacity="1" stroke-miterlimit="4"/><path stroke-linecap="butt" transform="matrix(0.75, 0, 0, 0.75, 154.223509, 298.517729)" fill="none" stroke-linejoin="miter" d="M -0.00113682 4.002403 L 72.941575 4.002403 " stroke="#545454" stroke-width="8" stroke-opacity="1" stroke-miterlimit="4"/><path stroke-linecap="round" transform="matrix(0.75, 0, 0, 0.75, 154.223509, 298.517729)" fill="none" stroke-linejoin="round" d="M 56.941574 -7.997597 L 72.941575 4.002403 L 56.941574 16.002404 " stroke="#545454" stroke-width="8" stroke-opacity="1" stroke-miterlimit="4"/></svg>